<?xml version="1.0" encoding="utf-8"?>
<!-- Generator: Adobe Illustrator 19.0.0, SVG Export Plug-In . SVG Version: 6.00 Build 0)  -->
<svg version="1.1" id="Layer_1" xmlns="http://www.w3.org/2000/svg" xmlns:xlink="http://www.w3.org/1999/xlink" x="0px" y="0px"
	 viewBox="0 0 300 300" style="enable-background:new 0 0 300 300;" xml:space="preserve">
<style type="text/css">
	.st0{fill:#FFF3F3;stroke:#515050;stroke-miterlimit:10;}
	.st1{fill:#FFFFFF;stroke:#515050;stroke-miterlimit:10;}
	.st2{fill:#FFF3F3;}
	.st3{fill:#FFFFFF;}
	.st4{fill:#444444;}
	.st5{font-family:'ArialMT';}
	.st6{font-size:16px;}
	.st7{fill:#006838;}
	.st8{font-family:'Arial-BoldMT';}
	.st9{font-size:23px;}
	.st10{fill:#E6E7E8;}
	.st11{fill:#58595B;}
	.st12{opacity:0.4;fill:#484A4C;}
	.st13{fill:#252729;}
	.st14{fill:#242627;}
	.st15{fill:#B5B7B9;}
	.st16{opacity:0.29;}
	.st17{fill:#D11D23;}
	.st18{fill:#1E2022;}
	.st19{fill:#202123;}
	.st20{fill:#494B4D;}
	.st21{opacity:0.4;}
	.st22{fill:#95979A;}
	.st23{fill:#27292B;}
	.st24{fill:#131416;}
	.st25{fill:#47484A;}
	.st26{fill:#5D5E61;}
	.st27{fill:#2E3043;}
	.st28{fill:#B8BABC;}
	.st29{fill:#4D4E50;}
	.st30{fill:#18191B;}
	.st31{opacity:0.5;fill:#353738;}
	.st32{fill:#070707;}
	.st33{fill:#DFD5DB;}
	.st34{fill:#97999C;}
	.st35{fill:#A19BA1;}
	.st36{fill:#727577;}
	.st37{fill:#59575B;}
	.st38{fill:#706F70;}
	.st39{opacity:0.4;fill:#494B4D;}
	.st40{fill:#A5A7AA;}
	.st41{fill:#6D7072;}
	.st42{opacity:0.29;fill:#B5B7B9;}
	.st43{fill:#6F7173;}
	.st44{fill:#CB4F39;}
	.st45{fill:#651E0B;}
	.st46{fill:#EC994B;}
	.st47{opacity:0.29;fill:#898B8D;}
	.st48{fill:#007FBC;}
	.st49{fill:#949698;}
	.st50{fill:#888B8D;}
	.st51{fill:#EFEFF0;}
	.st52{fill:#979A9C;}
	.st53{fill:#D3D4D5;}
	.st54{fill:#DF1A22;}
	.st55{fill:#F15D43;}
	.st56{fill:#A13A23;}
	.st57{fill:#F57F49;}
</style>
<g id="XMLID_1_">
	<path id="XMLID_3_" class="st0" d="M14.4,34.1v229.2c0,5.4,2.2,10.3,5.7,13.9L277.5,19.9c-3.6-3.5-8.5-5.7-13.9-5.7l-229.2,0
		C23.3,14.2,14.4,23.1,14.4,34.1z"/>
	<path id="XMLID_2_" class="st1" d="M34.3,283.3h229.2c11,0,19.9-8.9,19.9-19.9V34.1c0-5.6-2.3-10.6-6-14.3L20.1,277.3
		C23.7,281,28.8,283.3,34.3,283.3z"/>
</g>
<g id="XMLID_89_">
	<path id="XMLID_91_" class="st2" d="M14.4,34.1v229.2c0,5.4,2.2,10.3,5.7,13.9L277.5,19.9c-3.6-3.5-8.5-5.7-13.9-5.7l-229.2,0
		C23.3,14.2,14.4,23.1,14.4,34.1z"/>
	<path id="XMLID_90_" class="st3" d="M34.3,283.3h229.2c11,0,19.9-8.9,19.9-19.9V34.1c0-5.6-2.3-10.6-6-14.3L20.1,277.3
		C23.7,281,28.8,283.3,34.3,283.3z"/>
</g>
<text id="XMLID_88_" transform="matrix(1 0 0 1 31.2936 229.0442)"><tspan x="0" y="0" class="st4 st5 st6">If you need this service just </tspan><tspan x="0" y="22.9" class="st4 st5 st6">click here</tspan></text>
<text id="XMLID_87_" transform="matrix(0.9922 0 0 1 31.2935 148.7307)"><tspan x="0" y="0" class="st7 st8 st9">Emergency</tspan><tspan x="0" y="30" class="st7 st8 st9">Embulance</tspan></text>
<g id="XMLID_83_">
	<g id="XMLID_327_">
		<g id="XMLID_674_">
			<g id="XMLID_679_">
				<path id="XMLID_314_" class="st10" d="M39.5,100.8v3.1c0,0-0.2,0.5-1,0.6c-0.7,0-2.4,0-2.4,0s-0.8,0-1.1-0.6V102
					c0,0-0.2-0.7,0.9-0.7h2.5v-0.6H39.5z"/>
				<path id="XMLID_680_" class="st11" d="M36,104.6c0,0-0.8,0-1.1-0.6c0,0,0.1,0,0.1,0V102c0,0-0.2-0.7,0.9-0.7h2.2v-0.7
					c0,0,0-0.1,0-0.1h1.2c0,0,0.2,0.1,0.2,0.1v3.3c0,0-0.1,0-0.1,0c0,0-0.2,0.6-1,0.6c-0.2,0-0.5,0-1,0
					C36.7,104.6,36,104.6,36,104.6z M39.2,100.8h-0.8v0.6c0,0-0.2-0.1-0.2-0.1h-2.3c-0.9,0-0.9,0.7-0.9,0.7v1.9c0.3,0.5,1,0.5,1,0.5
					c0,0,0.7,0,1.4,0c0.4,0,0.7,0,0.9,0c0.6,0,0.8-0.5,0.8-0.5V100.8z"/>
			</g>
			<path id="XMLID_676_" class="st12" d="M34.9,102v1.9c0.2,0.5,1.1,0.6,1.1,0.6s1.7,0,2.4,0c0.7,0,0.9-0.6,0.9-0.6v-3.3h-1.1v0.9
				h-2.3C34.8,101.5,34.9,102,34.9,102z M35.6,101.9c0.3-0.1,1.2,0,1.2,0c0.1,0.6,0.6,1,0.8,1.5c0,0-2,0.4-2.3-0.5
				C35.3,102.6,35.2,102,35.6,101.9z"/>
			<path id="XMLID_309_" class="st12" d="M35.3,104c0.3,0.1,0.6,0.1,0.9,0.1c0.4,0,0.9,0,1.3,0c0.2,0,0.5,0,0.6-0.3
				c0.1-0.2,0-0.4-0.1-0.6c-0.2-0.2-0.4-0.4-0.5-0.7c-0.2-0.4-0.3-0.8-0.3-1.2h1v-0.9h1.1v3.3c0,0-0.1,0.5-0.9,0.6
				c-0.7,0-2.4,0-2.4,0s-0.9,0-1.1-0.6v-0.5C34.9,103.7,35.1,103.9,35.3,104z"/>
		</g>
		<g id="XMLID_669_">
			<rect id="XMLID_308_" x="50.1" y="95" class="st13" width="76.9" height="8.1"/>
			<path id="XMLID_670_" class="st14" d="M50.1,95C50.1,95,50.1,95,50.1,95L127,95c0,0,0.1,0,0.1,0.1v8c0,0,0,0.1-0.1,0.1H50.2
				c0,0-0.1,0-0.1-0.1V95z M126.8,95H50.1v8.1h76.7V95z"/>
		</g>
		<g id="XMLID_663_">
			<g id="XMLID_664_">
				<path id="XMLID_305_" class="st3" d="M39.5,72.5l73.6-0.1l9.9,13.4l3.9,1.9c3.2,1.1,3.6,5.1,3.6,5.1l-0.1,10.7h-5.9l-1.9-5.5
					c0,0-0.6-2-2.7-2.3c-2.1-0.3-9.5,0-9.5,0s-2.3-0.2-3,2c-0.4,1.3-1.2,3.9-1.8,5.8H71.4l-1.9-5.5c0,0-0.6-2-2.7-2.3
					c-2.1-0.3-9.5,0-9.5,0s-2.3-0.2-3,2c-0.4,1.3-1.2,3.9-1.8,5.8h-13c-2.5-0.6-2-2.8-2-2.8l0.1-13L39.5,72.5z"/>
				<path id="XMLID_665_" class="st15" d="M39.5,103.7c-2-0.5-2.3-2.1-2.1-2.9l0.2-13l1.8-15.3c0,0,0-0.1,0.1-0.1l73.6-0.1
					c0,0,0,0,0,0c0,0,0,0,0.1,0l9.8,13.3l3.8,1.9c3.2,1.1,3.7,5.2,3.7,5.2l-0.1,10.7c0,0,0,0.1-0.1,0.1h-5.9c0,0-0.1,0-0.1,0
					l-1.9-5.5c0,0-0.6-1.9-2.6-2.2c-2.1-0.3-9.4,0-9.5,0c0,0-2.2-0.1-2.9,1.9c-0.1,0.3-0.2,0.7-0.3,1.1c-0.4,1.4-1,3.2-1.5,4.7
					c0,0,0,0-0.1,0H71.4c0,0-0.1,0-0.1,0l-1.9-5.5c0,0-0.6-1.9-2.6-2.2c-2.1-0.3-9.4,0-9.5,0c0,0-2.2-0.1-2.9,1.9
					c-0.1,0.3-0.2,0.7-0.3,1.1c-0.4,1.4-1,3.2-1.5,4.7c0,0,0,0-0.1,0L39.5,103.7C39.5,103.7,39.5,103.7,39.5,103.7z M53.9,98.8
					c0.1-0.4,0.2-0.8,0.3-1.1c0.7-2.2,3-2,3-2c0.1,0,7.4-0.3,9.5,0c2.1,0.3,2.7,2.3,2.7,2.3l1.8,5.5h34.2c0.4-1.5,1-3.3,1.5-4.7
					c0.1-0.4,0.2-0.8,0.3-1.1c0.7-2.2,3-2,3-2c0.1,0,7.4-0.3,9.5,0c2.1,0.3,2.7,2.3,2.7,2.3l1.8,5.5h5.7l0.1-10.6c0,0-0.5-4-3.6-5.1
					l-3.9-1.9c0,0,0,0,0,0L113,72.5l-73.5,0.1l-1.8,15.2l-0.2,13c0,0.1-0.4,2.2,2,2.7h13C52.9,102,53.5,100.2,53.9,98.8z"/>
			</g>
		</g>
		<g id="XMLID_661_" class="st16">
			<path id="XMLID_302_" class="st15" d="M37.7,87.8l1.2-9.8c1.9,1.4,3.9,2.6,5.9,3.7c6.1,3.3,12.6,5.5,19.3,7.3
				c6.5,1.7,13.1,2.9,19.8,3.8c8.8,1.3,17.7,2.3,26.6,2.6c5,0.1,10,0.1,15-0.3c1.6-0.1,3.3-0.3,4.9-0.5l-0.1,9.2h-5.9l-1.9-5.5
				c0,0-0.6-2-2.7-2.3c-2.1-0.3-9.5,0-9.5,0s-2.3-0.2-3,2c-0.4,1.3-1.2,3.9-1.8,5.8H71.4l-1.9-5.5c0,0-0.6-2-2.7-2.3
				c-2.1-0.3-9.5,0-9.5,0s-2.3-0.2-3,2c-0.4,1.3-1.2,3.9-1.8,5.8h-13c-2.5-0.6-2-2.8-2-2.8L37.7,87.8z"/>
		</g>
		<g id="XMLID_658_">
			<path id="XMLID_301_" class="st17" d="M128.4,88.8c1.3,1.2,1.8,3,1.9,3.8H37.6l0-3.8H128.4z"/>
			<polygon id="XMLID_300_" class="st17" points="130.4,93.7 130.4,94.5 37.6,94.5 37.6,93.7 			"/>
		</g>
		<g id="XMLID_652_">
			<g id="XMLID_653_">
				<path id="XMLID_299_" class="st18" d="M100.6,74.9h9c0,0,1.7-0.2,2.7,1.6c1,1.8,6.3,9.5,6.3,9.5s0.7,1.2-0.6,1.2l-11.7,0.3
					c0,0-4.7-2-6.9-3.2c-0.4-0.2-0.3-1.1-0.3-1.3v-6.7C99.1,76.2,98.9,74.9,100.6,74.9z"/>
				<path id="XMLID_654_" class="st19" d="M106.4,87.5c0,0-4.7-2-6.9-3.2c-0.3-0.2-0.3-0.7-0.3-1.1c0-0.1,0-0.2,0-0.3l0-6.7
					c0,0-0.1-0.5,0.3-0.9c0.3-0.3,0.7-0.5,1.3-0.5l9,0c0,0,0.4,0,1,0.1c0.5,0.2,1.2,0.6,1.7,1.5c1,1.8,6.3,9.4,6.3,9.5
					c0,0,0.4,0.6,0.1,1c-0.1,0.2-0.4,0.3-0.8,0.3L106.4,87.5C106.4,87.5,106.4,87.5,106.4,87.5C106.4,87.5,106.4,87.5,106.4,87.5z
					 M109.6,75h-9c-0.6,0-1,0.1-1.2,0.4c-0.3,0.4-0.2,0.8-0.2,0.8l0,6.7c0,0.1,0,0.2,0,0.3c0,0.3,0,0.8,0.3,1
					c2.2,1.2,6.6,3.1,6.9,3.2l11.6-0.3c0.3,0,0.5-0.1,0.6-0.2c0.2-0.3-0.1-0.8-0.1-0.8c-0.1-0.1-5.3-7.8-6.3-9.5
					c-0.8-1.4-2.1-1.6-2.5-1.6C109.7,74.9,109.6,75,109.6,75z"/>
			</g>
		</g>
		<g id="XMLID_646_">
			<g id="XMLID_647_">
				<path id="XMLID_296_" class="st20" d="M101.1,75.2h8.5c0,0,1.6-0.2,2.5,1.5c0.9,1.7,6,9,6,9s0.7,1.1-0.5,1.1l-11.1,0.3
					c0,0-4.4-1.9-6.6-3.1c-0.4-0.2-0.3-1-0.3-1.2v-6.4C99.7,76.5,99.4,75.2,101.1,75.2z"/>
				<path id="XMLID_648_" class="st19" d="M106.5,87.2c0,0-4.4-1.9-6.6-3.1c-0.3-0.2-0.3-0.7-0.3-1c0-0.1,0-0.2,0-0.3l0-6.4
					c0,0-0.1-0.5,0.3-0.9c0.3-0.3,0.7-0.4,1.2-0.4l8.5,0c0,0,0.4,0,0.9,0.1c0.5,0.2,1.2,0.5,1.7,1.4c0.9,1.7,6,8.9,6,9
					c0,0,0.3,0.6,0.1,0.9c-0.1,0.2-0.4,0.3-0.7,0.3L106.5,87.2C106.5,87.2,106.5,87.2,106.5,87.2C106.5,87.2,106.5,87.2,106.5,87.2z
					 M109.6,75.3h-8.5c-0.5,0-0.9,0.1-1.1,0.4c-0.3,0.3-0.2,0.8-0.2,0.8l0,6.4c0,0.1,0,0.2,0,0.3c0,0.3,0,0.8,0.3,0.9
					c2.1,1.1,6.3,2.9,6.6,3l11-0.3c0.3,0,0.5-0.1,0.6-0.2c0.2-0.3-0.1-0.8-0.1-0.8c-0.1-0.1-5.1-7.4-6-9c-0.8-1.4-2-1.5-2.3-1.5
					C109.6,75.3,109.6,75.3,109.6,75.3z"/>
			</g>
		</g>
		<g id="XMLID_644_" class="st21">
			<path id="XMLID_293_" class="st20" d="M116.3,83.2c-1.8-0.7-3.6-1.4-5.5-1.9c-1.9-0.5-3.8-0.9-5.7-1.2c-1.8-0.3-3.6-0.4-5.5-0.5
				v-3.1c0,0-0.2-1.3,1.4-1.3h8.5c0,0,1.6-0.2,2.5,1.5C112.7,77.7,114.8,80.9,116.3,83.2C116.3,83.2,116.3,83.2,116.3,83.2z"/>
		</g>
		<g id="XMLID_635_">
			<g id="XMLID_639_">
				<path id="XMLID_292_" class="st22" d="M124.5,101.9h6.1c0,0,0.5,0,0.5,1.1c0,0,0.1,1.4,0,1.6c-0.1,0.2-1.8,2.6-1.8,2.6
					s-0.4,0.7-1.2,0.7h-4c0,0-0.6-0.1-0.6-1.1c0-1,0-3.8,0-3.8S123.3,101.6,124.5,101.9z"/>
				<path id="XMLID_640_" class="st11" d="M123.6,107.6c-0.2-0.2-0.2-0.5-0.2-0.8v-3.8c0,0-0.1-0.5,0.2-0.9c0.2-0.2,0.4-0.3,0.7-0.3
					c0.1,0,0.1-0.1,0.2-0.1h6.1c0,0,0.6,0.1,0.6,1.3c0,0.2,0.1,1.5,0,1.7c-0.1,0.2-1.8,2.5-1.8,2.5c0,0-0.4,0.7-1.2,0.7h-4
					c0,0,0-0.1,0-0.1C123.9,107.7,123.8,107.7,123.6,107.6z M123.6,102.2c-0.3,0.3-0.3,0.7-0.3,0.7v3.8c0,0.3,0.1,0.6,0.3,0.8
					c0.1,0.1,0.3,0.2,0.3,0.2c0,0,0,0.1,0,0.1h4c0.8,0,1.1-0.7,1.1-0.7c0.1-0.1,1.6-2.4,1.8-2.6c0.1-0.1,0.1-0.9,0-1.5
					c0-1-0.4-1-0.4-1h-6.1c-0.1,0-0.1,0-0.2,0C124,101.9,123.8,102,123.6,102.2z"/>
			</g>
			<path id="XMLID_289_" class="st22" d="M124.5,101.9h0.3c-0.2,0.1-0.3,0.2-0.4,0.5c-0.1,0.4-0.1,0.8-0.1,1.1c0,0.4,0,1.2,0.6,1.1
				h6.1c-0.3,0.4-1.8,2.5-1.8,2.5s-0.4,0.5-1.2,0.6h-4c0,0-0.7,0-0.7-0.9c0-1,0-3.8,0-3.8S123.3,101.8,124.5,101.9z"/>
			<path id="XMLID_288_" class="st22" d="M124.1,101.9c-0.2,0.3-0.3,0.7-0.4,1.1c0,0.6-0.1,1.2-0.1,1.7c0,0.5,0.1,1.1,0.3,1.5
				c0.2,0.4,0.6,0.6,1.1,0.7c0.5,0.1,1,0.1,1.5,0c0.6,0,1.2-0.1,1.8-0.3c0.6-0.2,1.1-0.6,1.5-1c0.3-0.3,0.6-0.6,0.9-0.9
				c-0.5,0.6-1.6,2.3-1.6,2.3s-0.4,0.5-1.2,0.6h-4c0,0-0.7,0-0.7-0.9c0-1,0-3.8,0-3.8S123.3,102,124.1,101.9z"/>
			<path id="XMLID_287_" class="st22" d="M130.9,103.6c0,0,0-1.4-0.4-1.4h-5.4l4.8,0.4C129.9,102.6,130.8,102.7,130.9,103.6z"/>
		</g>
		<g id="XMLID_615_">
			<g id="XMLID_630_">
				<path id="XMLID_286_" class="st23" d="M115.2,82.5c0,0,1.7,0.4,1.9,1.1c0.2,0.7,0.1,3.1,0.1,3.1s-0.1,0.6-0.7,0.6h-1.3
					c0,0-0.4,0.1-0.4-0.3c0-0.4,0-3.6,0-3.6S114.7,82.3,115.2,82.5z"/>
				<path id="XMLID_631_" class="st24" d="M114.7,87c0-0.4,0-3.4,0-3.6c0,0,0-0.7,0.2-0.9c0.1-0.1,0.1-0.1,0.2-0.1c0,0,0.1,0,0.1,0
					c0.1,0,1.7,0.4,1.9,1.1c0.2,0.7,0.1,3,0.1,3.1c0,0-0.1,0.6-0.8,0.6h-1.3c0,0-0.1,0.1-0.1,0.1v0C114.8,87.4,114.7,87.3,114.7,87z
					 M115,82.6c-0.2,0.2-0.2,0.6-0.2,0.8c0,0,0,3.2,0,3.6c0,0.2,0,0.3,0.3,0.3v0l0.1,0c0,0,0,0,0,0h1.3c0.6,0,0.7-0.6,0.7-0.6
					c0,0,0.1-2.5-0.1-3.1c-0.2-0.6-1.8-1-1.9-1c0,0-0.1,0-0.1,0C115,82.6,115,82.6,115,82.6z"/>
			</g>
			<g id="XMLID_617_">
				<g id="XMLID_625_">
					<path id="XMLID_283_" class="st23" d="M116.8,85.9l1.7,1.4c0,0,0.3,0.4,0,0.6c0,0-0.2,0.2-0.4,0.1c-0.2-0.1-2.1-0.9-2.1-0.9
						L116.8,85.9z"/>
					<path id="XMLID_626_" class="st24" d="M118.1,88.1c-0.2-0.1-2-0.8-2.1-0.9c0,0,0,0,0,0c0,0,0,0,0-0.1l0.8-1.2c0,0,0,0,0,0
						c0,0,0,0,0.1,0l1.7,1.4c0,0,0,0,0,0c0,0,0.2,0.2,0.1,0.5c0,0.1-0.1,0.2-0.2,0.2c0,0-0.2,0.1-0.3,0.1
						C118.2,88.1,118.1,88.1,118.1,88.1z M116.8,86l-0.7,1.1c0.4,0.1,1.8,0.8,2,0.8c0,0,0.1,0,0.1,0c0.1,0,0.3-0.1,0.3-0.1
						c0.1-0.1,0.1-0.2,0.1-0.3c0-0.1-0.1-0.2-0.1-0.2L116.8,86z"/>
				</g>
				<g id="XMLID_618_">
					<g id="XMLID_620_">
						<path id="XMLID_280_" class="st23" d="M115.2,82.5c0,0,1.7,0.4,1.9,1.1c0.2,0.7,0.1,3.1,0.1,3.1s-0.1,0.6-0.7,0.6h-1.3
							c0,0-0.4,0.1-0.4-0.3c0-0.4,0-3.6,0-3.6S114.7,82.3,115.2,82.5z"/>
						<path id="XMLID_621_" class="st24" d="M114.7,87c0-0.4,0-3.4,0-3.6c0,0,0-0.7,0.2-0.9c0.1-0.1,0.1-0.1,0.2-0.1
							c0,0,0.1,0,0.1,0c0.1,0,1.7,0.4,1.9,1.1c0.2,0.7,0.1,3,0.1,3.1c0,0-0.1,0.6-0.8,0.6h-1.3c0,0-0.1,0.1-0.1,0.1v0
							C114.8,87.4,114.7,87.3,114.7,87z M115,82.6c-0.2,0.2-0.2,0.6-0.2,0.8c0,0,0,3.2,0,3.6c0,0.2,0,0.3,0.3,0.3v0l0.1,0
							c0,0,0,0,0,0h1.3c0.6,0,0.7-0.6,0.7-0.6c0,0,0.1-2.5-0.1-3.1c-0.2-0.6-1.8-1-1.9-1c0,0-0.1,0-0.1,0
							C115,82.6,115,82.6,115,82.6z"/>
					</g>
					<path id="XMLID_277_" class="st25" d="M115.6,83c0,0,1.2,0.3,1.4,0.8c0.1,0.5,0.1,2.6,0.1,2.6s-0.1,0.6-0.5,0.6h-0.9
						c0,0-0.3-0.1-0.3-0.4c0-0.3,0-2.9,0-2.9S115.2,82.8,115.6,83z"/>
				</g>
			</g>
			<path id="XMLID_276_" class="st10" d="M116.2,83.3c0,0,0.6,0.3,0.6,0.8c0,0.5,0,1.4,0,1.4S116.7,83.8,116.2,83.3z"/>
		</g>
		<g id="XMLID_610_">
			<path id="XMLID_275_" class="st26" d="M98.9,92.3c0,0.5,0.4,0.9,0.9,0.9h0.2c0.5,0,0.9-0.4,0.9-0.9v-3c0-0.5-0.4-0.9-0.9-0.9
				h-0.2c-0.5,0-0.9,0.4-0.9,0.9V92.3z"/>
			<path id="XMLID_274_" class="st27" d="M99.2,92c0,0.4,0.3,0.7,0.7,0.7l0,0c0.4,0,0.7-0.3,0.7-0.7v-2.2c0-0.4-0.3-0.7-0.7-0.7l0,0
				c-0.4,0-0.7,0.3-0.7,0.7V92z"/>
			<path id="XMLID_273_" class="st28" d="M99.5,88.5c0,0,0.1,0,0.1,0c0.5,0,0.9,0.4,0.9,0.9v2.9c0,0.5-0.4,0.9-0.9,0.9
				c0,0-0.1,0-0.1,0V88.5z"/>
			<path id="XMLID_272_" class="st3" d="M99.9,88.9C99.9,88.9,99.9,88.9,99.9,88.9c0.3,0,0.6,0.2,0.6,0.5V91c0,0.3-0.2,0.5-0.5,0.5
				c0,0,0,0-0.1,0V88.9z"/>
		</g>
		<g id="XMLID_605_">
			<path id="XMLID_271_" class="st26" d="M92.1,92.3c0,0.5,0.4,0.9,0.9,0.9h0.2c0.5,0,0.9-0.4,0.9-0.9v-3c0-0.5-0.4-0.9-0.9-0.9H93
				c-0.5,0-0.9,0.4-0.9,0.9V92.3z"/>
			<path id="XMLID_270_" class="st27" d="M92.4,92c0,0.4,0.3,0.7,0.7,0.7l0,0c0.4,0,0.7-0.3,0.7-0.7v-2.2c0-0.4-0.3-0.7-0.7-0.7l0,0
				c-0.4,0-0.7,0.3-0.7,0.7V92z"/>
			<path id="XMLID_269_" class="st28" d="M92.7,88.5c0,0,0.1,0,0.1,0c0.5,0,0.9,0.4,0.9,0.9v2.9c0,0.5-0.4,0.9-0.9,0.9
				c0,0-0.1,0-0.1,0V88.5z"/>
			<path id="XMLID_268_" class="st3" d="M93.1,88.9C93.1,88.9,93.1,88.9,93.1,88.9c0.3,0,0.6,0.2,0.6,0.5V91c0,0.3-0.2,0.5-0.5,0.5
				c0,0,0,0-0.1,0V88.9z"/>
		</g>
		<g id="XMLID_559_">
			<g id="XMLID_561_">
				<g id="XMLID_600_">
					<circle id="XMLID_267_" class="st29" cx="114.7" cy="104.3" r="7.9"/>
					<path id="XMLID_601_" class="st30" d="M106.7,104.3c0-4.4,3.6-8,8-8c4.4,0,8,3.6,8,8s-3.6,8-8,8
						C110.3,112.2,106.7,108.7,106.7,104.3z M106.8,104.3c0,4.3,3.5,7.8,7.8,7.8s7.8-3.5,7.8-7.8c0-4.3-3.5-7.8-7.8-7.8
						S106.8,100,106.8,104.3z"/>
				</g>
				<path id="XMLID_597_" class="st31" d="M106.8,104.3c0,4.4,3.5,7.9,7.9,7.9c4.4,0,7.9-3.5,7.9-7.9c0-4.4-3.5-7.9-7.9-7.9
					C110.3,96.4,106.8,99.9,106.8,104.3z M110,98.9c0.1-1.2,5.5-3.7,9.4-0.2c0,0,3.3,2.5,2.5,6.7c0,0-0.3,2.2-1.8,3.7
					c0,0-0.6,0.5-1.1,0.1c-0.5-0.3-0.4-0.9,0-1.6c0.4-0.7,2.2-2.8,0.8-6c-1.4-3.2-5.8-3.9-8.3-2.4C111.6,99.3,110,100.1,110,98.9z"
					/>
				<g id="XMLID_562_">
					<ellipse id="XMLID_262_" class="st32" cx="114.7" cy="104.3" rx="5.2" ry="5.3"/>
					<g id="XMLID_591_">
						<ellipse id="XMLID_261_" class="st33" cx="114.6" cy="104.3" rx="5" ry="5"/>
						<path id="XMLID_592_" class="st34" d="M109.6,104.3c0-2.8,2.3-5.1,5.1-5.1c2.8,0,5.1,2.3,5.1,5.1c0,2.8-2.3,5.1-5.1,5.1
							C111.9,109.4,109.6,107.1,109.6,104.3z M109.7,104.3c0,2.7,2.2,5,4.9,5c2.7,0,4.9-2.2,4.9-5c0-2.7-2.2-5-4.9-5
							C111.9,99.3,109.7,101.5,109.7,104.3z"/>
					</g>
					<g id="XMLID_586_">
						<ellipse id="XMLID_258_" class="st33" cx="114.6" cy="104.3" rx="4.7" ry="4.7"/>
						<path id="XMLID_587_" class="st34" d="M109.9,104.3c0-2.6,2.1-4.8,4.7-4.8c2.6,0,4.7,2.1,4.7,4.8c0,2.6-2.1,4.8-4.7,4.8
							C112,109,109.9,106.9,109.9,104.3z M110.1,104.3c0,2.5,2.1,4.6,4.6,4.6c2.5,0,4.6-2.1,4.6-4.6c0-2.5-2.1-4.6-4.6-4.6
							C112.1,99.7,110.1,101.7,110.1,104.3z"/>
					</g>
					<g id="XMLID_581_">
						<ellipse id="XMLID_255_" class="st35" cx="114.6" cy="104.3" rx="4.1" ry="4.1"/>
						<path id="XMLID_582_" class="st36" d="M110.5,104.3c0-2.3,1.9-4.2,4.2-4.2c2.3,0,4.2,1.9,4.2,4.2c0,2.3-1.9,4.2-4.2,4.2
							C112.3,108.4,110.5,106.6,110.5,104.3z M110.6,104.3c0,2.2,1.8,4,4,4c2.2,0,4-1.8,4-4c0-2.2-1.8-4-4-4
							C112.4,100.3,110.6,102.1,110.6,104.3z"/>
					</g>
					<ellipse id="XMLID_252_" cx="114.6" cy="104.3" rx="3.3" ry="3.3"/>
					<g id="XMLID_575_">
						<path id="XMLID_251_" class="st33" d="M113.1,105.6c-0.8,0.5-1.4,1.2-1.8,1.8c-0.3-0.3-0.5-0.6-0.7-0.9c1.7-0.7,4-2,2.4-3.4
							c-0.8-0.7-1.6-1.1-2.4-1.3c0.1-0.2,0.3-0.5,0.5-0.7c0.1-0.1,0.2-0.2,0.3-0.4c1.1,1.5,2.7,3.4,3.7,1.6c0.5-0.9,0.7-1.9,0.8-2.7
							c0.3,0.1,0.6,0.2,0.9,0.4c-1.1,1.5-2.2,3.8-0.2,4.1c1,0.1,1.9,0,2.6-0.2c0,0.3,0,0.7-0.1,1c-1.7-0.6-4.1-1.1-3.8,1
							c0.1,1,0.5,1.9,0.9,2.6c-0.2,0.1-0.4,0.1-0.6,0.2C115.4,107,114.8,104.4,113.1,105.6z"/>
						<path id="XMLID_576_" class="st34" d="M115.6,108.9C115.6,108.9,115.6,108.8,115.6,108.9c-0.2-1.4-0.6-3-1.4-3.4
							c-0.3-0.1-0.7-0.1-1.1,0.2c-0.7,0.5-1.3,1.1-1.8,1.8c0,0,0,0-0.1,0c0,0,0,0-0.1,0c-0.3-0.3-0.5-0.6-0.7-0.9c0,0,0,0,0-0.1
							c0,0,0,0,0,0c1.2-0.5,2.8-1.3,2.9-2.2c0.1-0.4-0.1-0.7-0.5-1.1c-0.7-0.6-1.5-1-2.3-1.3c0,0,0,0,0,0c0,0,0,0,0-0.1
							c0.1-0.2,0.3-0.5,0.5-0.7c0.1-0.1,0.2-0.2,0.3-0.4c0,0,0,0,0.1,0c0,0,0,0,0,0c0.7,1.1,1.8,2.4,2.7,2.3c0.4,0,0.7-0.3,0.9-0.7
							c0.4-0.8,0.7-1.7,0.8-2.7c0,0,0,0,0,0c0,0,0,0,0.1,0c0.3,0.1,0.6,0.2,0.9,0.4c0,0,0,0,0,0c0,0,0,0,0,0.1
							c-0.8,1.1-1.6,2.6-1.2,3.4c0.1,0.3,0.5,0.5,1,0.6c0.9,0.1,1.7,0.1,2.6-0.2c0,0,0,0,0.1,0c0,0,0,0,0,0.1c0,0.4,0,0.7-0.1,1.1
							c0,0,0,0,0,0c0,0,0,0-0.1,0c-1.2-0.4-2.8-0.8-3.4-0.2c-0.3,0.2-0.4,0.6-0.3,1.1c0.1,0.9,0.4,1.8,0.9,2.6c0,0,0,0,0,0.1
							c0,0,0,0,0,0C116.1,108.8,115.9,108.8,115.6,108.9C115.7,108.9,115.7,108.9,115.6,108.9C115.6,108.9,115.6,108.9,115.6,108.9z
							 M115.3,106.1c-0.1-0.6,0-1,0.4-1.3c0.7-0.6,2.3-0.2,3.5,0.2c0-0.3,0.1-0.6,0.1-0.9c-0.9,0.2-1.7,0.3-2.6,0.1
							c-0.6-0.1-0.9-0.3-1.1-0.7c-0.4-0.9,0.4-2.3,1.2-3.5c-0.2-0.1-0.5-0.2-0.7-0.3c-0.1,0.9-0.4,1.8-0.8,2.6
							c-0.3,0.5-0.6,0.8-1,0.8c-0.9,0.1-2-1.2-2.8-2.3c-0.1,0.1-0.2,0.2-0.3,0.3c-0.2,0.2-0.3,0.4-0.4,0.6c0.9,0.3,1.6,0.7,2.3,1.3
							c0.4,0.4,0.6,0.8,0.6,1.2c-0.1,0.9-1.6,1.8-2.9,2.3c0.2,0.3,0.3,0.5,0.6,0.7c0.5-0.7,1.1-1.3,1.8-1.8l0,0
							c0.5-0.3,0.9-0.4,1.3-0.2c0.9,0.4,1.2,2,1.4,3.4c0.2,0,0.3-0.1,0.5-0.1C115.7,107.8,115.5,106.9,115.3,106.1z"/>
					</g>
					<g id="XMLID_570_">
						<path id="XMLID_248_" class="st33" d="M112.6,104.5c-0.9,0-1.8,0.2-2.5,0.4c-0.1-0.4-0.1-0.7,0-1.1c1.8,0.4,4.4,0.7,3.9-1.4
							c-0.3-1-0.7-1.8-1.2-2.5c0.2-0.1,0.5-0.2,0.8-0.3c0.2,0,0.3-0.1,0.5-0.1c0,1.9,0.3,4.4,2.1,3.4c0.9-0.5,1.7-1.1,2.2-1.7
							c0.2,0.2,0.4,0.5,0.5,0.8c-1.7,0.6-4,1.8-2.5,3.3c0.7,0.7,1.5,1.1,2.2,1.4c-0.2,0.3-0.4,0.6-0.7,0.8c-1.1-1.5-2.8-3.3-3.7-1.4
							c-0.5,0.9-0.7,1.8-0.7,2.6c-0.2-0.1-0.4-0.1-0.6-0.2C113.8,106.9,114.7,104.5,112.6,104.5z"/>
						<path id="XMLID_571_" class="st34" d="M113.5,108.9c-0.2-0.1-0.4-0.1-0.6-0.2c0,0,0,0,0,0c0,0,0,0,0-0.1
							c0.6-1.2,1.3-2.8,0.8-3.5c-0.2-0.3-0.5-0.5-1.1-0.5c-0.8,0-1.7,0.1-2.5,0.4c0,0,0,0-0.1,0c0,0,0,0,0,0c-0.1-0.4-0.1-0.8,0-1.1
							c0,0,0,0,0,0c0,0,0,0,0.1,0c1.3,0.3,3,0.5,3.6-0.1c0.3-0.3,0.3-0.7,0.2-1.2c-0.2-0.9-0.6-1.7-1.2-2.4c0,0,0,0,0-0.1
							c0,0,0,0,0,0c0.3-0.1,0.5-0.2,0.8-0.3c0.2,0,0.3-0.1,0.5-0.1c0,0,0,0,0.1,0c0,0,0,0,0,0.1c0,1.3,0.1,3,0.9,3.4
							c0.3,0.2,0.7,0.2,1.2-0.1c0.8-0.4,1.6-1,2.2-1.7c0,0,0,0,0.1,0c0,0,0,0,0.1,0c0.2,0.2,0.4,0.5,0.5,0.8c0,0,0,0,0,0.1
							c0,0,0,0,0,0c-1.2,0.5-2.8,1.2-2.9,2.1c-0.1,0.4,0.1,0.7,0.5,1.1c0.6,0.6,1.4,1.1,2.2,1.4c0,0,0,0,0,0c0,0,0,0,0,0.1
							c-0.2,0.3-0.4,0.6-0.7,0.8c0,0,0,0-0.1,0c0,0,0,0,0,0c-0.7-1-1.8-2.3-2.7-2.2c-0.4,0-0.7,0.3-0.9,0.8
							C113.9,107,113.7,107.9,113.5,108.9C113.6,108.8,113.6,108.8,113.5,108.9C113.5,108.9,113.5,108.9,113.5,108.9
							C113.5,108.9,113.5,108.9,113.5,108.9z M118,107.5c0.2-0.2,0.4-0.4,0.5-0.7c-0.8-0.3-1.5-0.8-2.2-1.4
							c-0.4-0.4-0.6-0.8-0.5-1.2c0.2-0.9,1.7-1.7,2.9-2.1c-0.1-0.2-0.3-0.4-0.4-0.7c-0.6,0.7-1.3,1.3-2.2,1.7
							c-0.5,0.3-0.9,0.3-1.3,0.1c-0.8-0.5-0.9-2.1-0.9-3.5c-0.1,0-0.3,0.1-0.4,0.1c-0.2,0.1-0.5,0.1-0.7,0.2
							c0.5,0.7,0.9,1.5,1.1,2.4c0.1,0.6,0.1,1-0.2,1.3c-0.7,0.7-2.3,0.5-3.7,0.2c0,0.3,0,0.6,0,0.9c0.8-0.3,1.6-0.4,2.4-0.4
							c0,0,0,0,0,0c0.6,0,1,0.2,1.2,0.5c0.5,0.8-0.1,2.4-0.8,3.6c0.2,0.1,0.3,0.1,0.5,0.2c0.1-0.9,0.3-1.8,0.7-2.6
							c0.3-0.5,0.6-0.8,1-0.8c0,0,0.1,0,0.1,0C116.2,105.3,117.2,106.5,118,107.5z"/>
					</g>
					<g id="XMLID_565_">
						<ellipse id="XMLID_245_" class="st33" cx="114.6" cy="104.3" rx="1" ry="1"/>
						<path id="XMLID_566_" class="st34" d="M113.6,104.3c0-0.6,0.5-1.1,1.1-1.1c0.6,0,1.1,0.5,1.1,1.1c0,0.6-0.5,1.1-1.1,1.1
							C114.1,105.3,113.6,104.9,113.6,104.3z M113.7,104.3c0,0.5,0.4,0.9,0.9,0.9c0.5,0,0.9-0.4,0.9-0.9c0-0.5-0.4-0.9-0.9-0.9
							C114.1,103.3,113.7,103.8,113.7,104.3z"/>
					</g>
					<ellipse id="XMLID_242_" class="st34" cx="114.6" cy="104.3" rx="0.9" ry="0.9"/>
					<ellipse id="XMLID_241_" class="st37" cx="114.6" cy="104.3" rx="0.8" ry="0.8"/>
				</g>
			</g>
			<path id="XMLID_240_" class="st38" d="M117.3,97.6c0,0,3.7,1.3,4.4,5c0,0,0.1,0.5-0.2,0.7c0,0-0.2,0.2-0.3-0.2
				c-0.1-0.4-0.8-4.6-5.9-5.4c0,0-0.8,0-0.8-0.2C114.5,97.2,115.8,97,117.3,97.6z"/>
		</g>
		<g id="XMLID_513_">
			<g id="XMLID_515_">
				<g id="XMLID_554_">
					<circle id="XMLID_239_" class="st29" cx="61.9" cy="104.3" r="7.9"/>
					<path id="XMLID_555_" class="st30" d="M53.9,104.3c0-4.4,3.6-8,8-8c4.4,0,8,3.6,8,8s-3.6,8-8,8
						C57.5,112.2,53.9,108.7,53.9,104.3z M54.1,104.3c0,4.3,3.5,7.8,7.8,7.8c4.3,0,7.8-3.5,7.8-7.8c0-4.3-3.5-7.8-7.8-7.8
						C57.6,96.4,54.1,100,54.1,104.3z"/>
				</g>
				<path id="XMLID_551_" class="st31" d="M54,104.3c0,4.4,3.5,7.9,7.9,7.9c4.4,0,7.9-3.5,7.9-7.9c0-4.4-3.5-7.9-7.9-7.9
					C57.5,96.4,54,99.9,54,104.3z M57.3,98.9c0.1-1.2,5.5-3.7,9.4-0.2c0,0,3.3,2.5,2.5,6.7c0,0-0.3,2.2-1.8,3.7c0,0-0.6,0.5-1.1,0.1
					c-0.5-0.3-0.4-0.9,0-1.6c0.4-0.7,2.2-2.8,0.8-6c-1.4-3.2-5.8-3.9-8.3-2.4C58.9,99.3,57.2,100.1,57.3,98.9z"/>
				<g id="XMLID_516_">
					<ellipse id="XMLID_234_" class="st32" cx="61.9" cy="104.3" rx="5.2" ry="5.3"/>
					<g id="XMLID_545_">
						<ellipse id="XMLID_233_" class="st33" cx="61.9" cy="104.3" rx="5" ry="5"/>
						<path id="XMLID_546_" class="st34" d="M56.8,104.3c0-2.8,2.3-5.1,5.1-5.1c2.8,0,5.1,2.3,5.1,5.1c0,2.8-2.3,5.1-5.1,5.1
							C59.1,109.4,56.8,107.1,56.8,104.3z M57,104.3c0,2.7,2.2,5,4.9,5c2.7,0,4.9-2.2,4.9-5c0-2.7-2.2-5-4.9-5
							C59.2,99.3,57,101.5,57,104.3z"/>
					</g>
					<g id="XMLID_540_">
						<ellipse id="XMLID_230_" class="st33" cx="61.9" cy="104.3" rx="4.7" ry="4.7"/>
						<path id="XMLID_541_" class="st34" d="M57.2,104.3c0-2.6,2.1-4.8,4.7-4.8c2.6,0,4.7,2.1,4.7,4.8c0,2.6-2.1,4.8-4.7,4.8
							C59.3,109,57.2,106.9,57.2,104.3z M57.3,104.3c0,2.5,2.1,4.6,4.6,4.6c2.5,0,4.6-2.1,4.6-4.6c0-2.5-2.1-4.6-4.6-4.6
							C59.4,99.7,57.3,101.7,57.3,104.3z"/>
					</g>
					<g id="XMLID_535_">
						<ellipse id="XMLID_227_" class="st35" cx="61.9" cy="104.3" rx="4.1" ry="4.1"/>
						<path id="XMLID_536_" class="st36" d="M57.7,104.3c0-2.3,1.9-4.2,4.2-4.2c2.3,0,4.2,1.9,4.2,4.2c0,2.3-1.9,4.2-4.2,4.2
							C59.6,108.4,57.7,106.6,57.7,104.3z M57.9,104.3c0,2.2,1.8,4,4,4c2.2,0,4-1.8,4-4c0-2.2-1.8-4-4-4
							C59.7,100.3,57.9,102.1,57.9,104.3z"/>
					</g>
					<ellipse id="XMLID_224_" cx="61.9" cy="104.3" rx="3.3" ry="3.3"/>
					<g id="XMLID_529_">
						<path id="XMLID_223_" class="st33" d="M60.3,105.6c-0.8,0.5-1.4,1.2-1.8,1.8c-0.3-0.3-0.5-0.6-0.7-0.9c1.7-0.7,4-2,2.4-3.4
							c-0.8-0.7-1.6-1.1-2.4-1.3c0.1-0.2,0.3-0.5,0.5-0.7c0.1-0.1,0.2-0.2,0.3-0.4c1.1,1.5,2.7,3.4,3.7,1.6c0.5-0.9,0.7-1.9,0.8-2.7
							c0.3,0.1,0.6,0.2,0.9,0.4c-1.1,1.5-2.2,3.8-0.2,4.1c1,0.1,1.9,0,2.6-0.2c0,0.3,0,0.7-0.1,1c-1.7-0.6-4.1-1.1-3.8,1
							c0.1,1,0.5,1.9,0.9,2.6c-0.2,0.1-0.4,0.1-0.6,0.2C62.7,107,62,104.4,60.3,105.6z"/>
						<path id="XMLID_530_" class="st34" d="M62.9,108.9C62.9,108.9,62.8,108.8,62.9,108.9c-0.2-1.4-0.6-3-1.4-3.4
							c-0.3-0.1-0.7-0.1-1.1,0.2c-0.7,0.5-1.3,1.1-1.8,1.8c0,0,0,0-0.1,0c0,0,0,0-0.1,0c-0.3-0.3-0.5-0.6-0.7-0.9c0,0,0,0,0-0.1
							c0,0,0,0,0,0c1.2-0.5,2.8-1.3,2.9-2.2c0.1-0.4-0.1-0.7-0.5-1.1c-0.7-0.6-1.5-1-2.3-1.3c0,0,0,0,0,0c0,0,0,0,0-0.1
							c0.1-0.2,0.3-0.5,0.5-0.7c0.1-0.1,0.2-0.2,0.3-0.4c0,0,0,0,0.1,0c0,0,0,0,0,0c0.7,1.1,1.8,2.4,2.7,2.3c0.4,0,0.7-0.3,0.9-0.7
							c0.4-0.8,0.7-1.7,0.8-2.7c0,0,0,0,0,0c0,0,0,0,0.1,0c0.3,0.1,0.6,0.2,0.9,0.4c0,0,0,0,0,0c0,0,0,0,0,0.1
							c-0.8,1.1-1.6,2.6-1.2,3.4c0.1,0.3,0.5,0.5,1,0.6c0.9,0.1,1.7,0.1,2.6-0.2c0,0,0,0,0.1,0c0,0,0,0,0,0.1c0,0.4,0,0.7-0.1,1.1
							c0,0,0,0,0,0c0,0,0,0-0.1,0c-1.2-0.4-2.8-0.8-3.4-0.2c-0.3,0.2-0.4,0.6-0.3,1.1c0.1,0.9,0.4,1.8,0.9,2.6c0,0,0,0,0,0.1
							c0,0,0,0,0,0C63.3,108.8,63.1,108.8,62.9,108.9C62.9,108.9,62.9,108.9,62.9,108.9C62.9,108.9,62.9,108.9,62.9,108.9z
							 M62.6,106.1c-0.1-0.6,0-1,0.4-1.3c0.7-0.6,2.3-0.2,3.5,0.2c0-0.3,0.1-0.6,0.1-0.9c-0.9,0.2-1.7,0.3-2.6,0.1
							c-0.6-0.1-0.9-0.3-1.1-0.7c-0.4-0.9,0.4-2.3,1.2-3.5c-0.2-0.1-0.5-0.2-0.7-0.3c-0.1,0.9-0.4,1.8-0.8,2.6
							c-0.3,0.5-0.6,0.8-1,0.8c-0.9,0.1-2-1.2-2.8-2.3c-0.1,0.1-0.2,0.2-0.3,0.3c-0.2,0.2-0.3,0.4-0.4,0.6c0.9,0.3,1.6,0.7,2.3,1.3
							c0.4,0.4,0.6,0.8,0.6,1.2c-0.1,0.9-1.6,1.8-2.9,2.3c0.2,0.3,0.3,0.5,0.6,0.7c0.5-0.7,1.1-1.3,1.8-1.8l0,0
							c0.5-0.3,0.9-0.4,1.3-0.2c0.9,0.4,1.2,2,1.4,3.4c0.2,0,0.3-0.1,0.5-0.1C63,107.8,62.7,106.9,62.6,106.1z"/>
					</g>
					<g id="XMLID_524_">
						<path id="XMLID_220_" class="st33" d="M59.8,104.5c-0.9,0-1.8,0.2-2.5,0.4c-0.1-0.4-0.1-0.7,0-1.1c1.8,0.4,4.4,0.7,3.9-1.4
							c-0.3-1-0.7-1.8-1.2-2.5c0.2-0.1,0.5-0.2,0.8-0.3c0.2,0,0.3-0.1,0.5-0.1c0,1.9,0.3,4.4,2.1,3.4c0.9-0.5,1.7-1.1,2.2-1.7
							c0.2,0.2,0.4,0.5,0.5,0.8c-1.7,0.6-4,1.8-2.5,3.3c0.7,0.7,1.5,1.1,2.2,1.4c-0.2,0.3-0.4,0.6-0.7,0.8c-1.1-1.5-2.8-3.3-3.7-1.4
							c-0.5,0.9-0.7,1.8-0.7,2.6c-0.2-0.1-0.4-0.1-0.6-0.2C61,106.9,61.9,104.5,59.8,104.5z"/>
						<path id="XMLID_525_" class="st34" d="M60.7,108.9c-0.2-0.1-0.4-0.1-0.6-0.2c0,0,0,0,0,0c0,0,0,0,0-0.1
							c0.6-1.2,1.3-2.8,0.8-3.5c-0.2-0.3-0.5-0.5-1.1-0.5c-0.8,0-1.7,0.1-2.5,0.4c0,0,0,0-0.1,0c0,0,0,0,0,0c-0.1-0.4-0.1-0.8,0-1.1
							c0,0,0,0,0,0c0,0,0,0,0.1,0c1.3,0.3,3,0.5,3.6-0.1c0.3-0.3,0.3-0.7,0.2-1.2c-0.2-0.9-0.6-1.7-1.2-2.4c0,0,0,0,0-0.1
							c0,0,0,0,0,0c0.3-0.1,0.5-0.2,0.8-0.3c0.2,0,0.3-0.1,0.5-0.1c0,0,0,0,0.1,0c0,0,0,0,0,0.1c0,1.3,0.1,3,0.9,3.4
							c0.3,0.2,0.7,0.2,1.2-0.1c0.8-0.4,1.6-1,2.2-1.7c0,0,0,0,0.1,0c0,0,0,0,0.1,0c0.2,0.2,0.4,0.5,0.5,0.8c0,0,0,0,0,0.1
							c0,0,0,0,0,0c-1.2,0.5-2.8,1.2-2.9,2.1c-0.1,0.4,0.1,0.7,0.5,1.1c0.6,0.6,1.4,1.1,2.2,1.4c0,0,0,0,0,0c0,0,0,0,0,0.1
							c-0.2,0.3-0.4,0.6-0.7,0.8c0,0,0,0-0.1,0c0,0,0,0,0,0c-0.7-1-1.8-2.3-2.7-2.2c-0.4,0-0.7,0.3-0.9,0.8
							C61.2,107,60.9,107.9,60.7,108.9C60.8,108.8,60.8,108.8,60.7,108.9C60.8,108.9,60.8,108.9,60.7,108.9
							C60.8,108.9,60.8,108.9,60.7,108.9z M65.2,107.5c0.2-0.2,0.4-0.4,0.5-0.7c-0.8-0.3-1.5-0.8-2.2-1.4c-0.4-0.4-0.6-0.8-0.5-1.2
							c0.2-0.9,1.7-1.7,2.9-2.1c-0.1-0.2-0.3-0.5-0.4-0.7c-0.6,0.7-1.3,1.3-2.2,1.7c-0.5,0.3-0.9,0.3-1.3,0.1
							c-0.8-0.5-0.9-2.1-0.9-3.5c-0.1,0-0.3,0.1-0.4,0.1c-0.2,0.1-0.5,0.1-0.7,0.2c0.5,0.7,0.9,1.5,1.1,2.4c0.1,0.6,0.1,1-0.2,1.3
							c-0.7,0.7-2.3,0.5-3.7,0.2c0,0.3,0,0.6,0,0.9c0.8-0.3,1.6-0.4,2.4-0.4c0,0,0,0,0,0c0.6,0,1,0.2,1.2,0.5
							c0.5,0.8-0.1,2.4-0.8,3.6c0.2,0.1,0.3,0.1,0.5,0.2c0.1-0.9,0.3-1.8,0.7-2.6c0.3-0.5,0.6-0.8,1-0.8c0,0,0.1,0,0.1,0
							C63.4,105.3,64.5,106.5,65.2,107.5z"/>
					</g>
					<g id="XMLID_519_">
						<ellipse id="XMLID_217_" class="st33" cx="61.9" cy="104.3" rx="1" ry="1"/>
						<path id="XMLID_520_" class="st34" d="M60.8,104.3c0-0.6,0.5-1.1,1.1-1.1c0.6,0,1.1,0.5,1.1,1.1c0,0.6-0.5,1.1-1.1,1.1
							C61.3,105.3,60.8,104.9,60.8,104.3z M61,104.3c0,0.5,0.4,0.9,0.9,0.9c0.5,0,0.9-0.4,0.9-0.9c0-0.5-0.4-0.9-0.9-0.9
							C61.4,103.3,61,103.8,61,104.3z"/>
					</g>
					<ellipse id="XMLID_214_" class="st34" cx="61.9" cy="104.3" rx="0.9" ry="0.9"/>
					<ellipse id="XMLID_213_" class="st37" cx="61.9" cy="104.3" rx="0.8" ry="0.8"/>
				</g>
			</g>
			<path id="XMLID_212_" class="st38" d="M64.5,97.6c0,0,3.7,1.3,4.4,5c0,0,0.1,0.5-0.2,0.7c0,0-0.2,0.2-0.3-0.2
				c-0.1-0.4-0.8-4.6-5.9-5.4c0,0-0.8,0-0.8-0.2C61.8,97.2,63.1,97,64.5,97.6z"/>
		</g>
		<g id="XMLID_504_">
			<g id="XMLID_507_">
				<path id="XMLID_211_" class="st20" d="M119.3,84.9c0,0-5.1-7.8-5.6-8.7c-0.5-0.9,0.1-1.3,0.1-1.3l0.9-0.2l8.2,11.2
					C121,86.1,119.3,84.9,119.3,84.9z"/>
				<path id="XMLID_508_" class="st19" d="M119.3,85C119.3,85,119.2,85,119.3,85c-0.1-0.1-5.2-7.9-5.7-8.7c-0.5-0.9,0.1-1.4,0.1-1.4
					c0,0,0,0,0,0l0.9-0.2c0,0,0.1,0,0.1,0l8.2,11.2c0,0,0,0,0,0.1c0,0,0,0-0.1,0c-0.2,0-0.4,0.1-0.7,0.1
					C120.6,85.9,119.3,85,119.3,85z M114.7,74.7l-0.9,0.2c-0.1,0.1-0.5,0.5-0.1,1.2c0.5,0.9,5.4,8.4,5.6,8.7
					c0.1,0.1,1.7,1.1,3.5,0.9L114.7,74.7z M119.3,84.9L119.3,84.9L119.3,84.9z"/>
			</g>
			<path id="XMLID_207_" class="st39" d="M114.6,77c-0.2-0.1-0.4-0.1-0.6-0.2c-0.2-0.3-0.3-0.5-0.4-0.6c-0.1-0.1-0.1-0.2-0.1-0.3
				c1,0.4,1.9,0.7,2.9,1.1l0.8,1.1C116.4,77.7,115.5,77.4,114.6,77z"/>
			<path id="XMLID_206_" class="st39" d="M122,85c-1.2-0.5-2.4-0.9-3.5-1.4c-0.4-0.6-0.9-1.4-1.5-2.3c1.1,0.5,2.3,1,3.4,1.4
				c0.2,0.1,0.4,0.2,0.6,0.2l1.6,2.2C122.3,85.2,122.2,85.1,122,85z"/>
		</g>
		<path id="XMLID_501_" class="st40" d="M97.6,102.6V88.1c0,0,0-0.1,0.1-0.1l17.1,0l2.9,0.4c0,0,0.1,0,0.1,0.1v5.9
			c0,0,0,0.1-0.1,0.1l-6.4,0c0,0-3.6-0.2-4.5,2.5l-1.7,5.7c0,0,0,0-0.1,0L97.6,102.6C97.6,102.7,97.6,102.7,97.6,102.6z M106.7,96.9
			c0.9-2.8,4.6-2.6,4.6-2.6h6.3v-5.7l-2.8-0.4h-17v14.4h7.2L106.7,96.9z"/>
		<path id="XMLID_203_" class="st15" d="M97,103.6c0.1,0,0.1-0.1,0.1-0.1V72.7c0-0.1-0.1-0.1-0.1-0.1c-0.1,0-0.1,0.1-0.1,0.1v30.8
			C96.9,103.6,96.9,103.6,97,103.6z"/>
		<g id="XMLID_495_">
			<path id="XMLID_202_" class="st15" d="M70.8,74.4h7.8h6.9h7.8c0,0,2.3-0.3,2.3,2.3V77v7.5v0.3c0,2.6-2.3,2.3-2.3,2.3h-7.8h-6.9
				h-7.8c0,0-2.3,0.3-2.3-2.3v-0.3V77v-0.3C68.4,74.1,70.8,74.4,70.8,74.4z"/>
			<path id="XMLID_496_" class="st41" d="M93.2,87.3l-22.5,0c0,0-1,0.1-1.7-0.5c-0.5-0.4-0.7-1-0.7-1.9v-8.2c0-0.8,0.2-1.5,0.7-1.9
				c0.7-0.6,1.6-0.5,1.7-0.5l22.5,0c0,0,1-0.1,1.7,0.5c0.5,0.4,0.7,1,0.7,1.9v8.2c0,0.8-0.2,1.5-0.7,1.9c-0.5,0.5-1.2,0.5-1.5,0.5
				C93.3,87.3,93.2,87.3,93.2,87.3z M93.2,74.5H70.8c0,0,0,0,0,0c0,0-0.9-0.1-1.6,0.5c-0.4,0.4-0.6,1-0.6,1.8v8.2
				c0,0.8,0.2,1.4,0.6,1.8c0.7,0.6,1.6,0.5,1.6,0.5l22.5,0c0,0,0.9,0.1,1.6-0.5c0.4-0.4,0.6-1,0.6-1.8v-8.2c0-0.8-0.2-1.4-0.6-1.8
				c-0.5-0.4-1.1-0.5-1.4-0.5C93.3,74.4,93.2,74.5,93.2,74.5z"/>
		</g>
		<g id="XMLID_490_">
			<path id="XMLID_199_" class="st3" d="M71,74.8h7.6h6.7h7.6c0,0,2.3-0.2,2.3,2.2v0.3v7.1v0.3c0,2.4-2.3,2.2-2.3,2.2h-7.6h-6.7H71
				c0,0-2.3,0.2-2.3-2.2v-0.3v-7.1v-0.3C68.7,74.5,71,74.8,71,74.8z"/>
			<path id="XMLID_491_" class="st15" d="M92.8,86.9l-21.8,0c0,0-1,0.1-1.7-0.5c-0.4-0.4-0.7-1-0.7-1.7v-7.7c0-0.8,0.2-1.3,0.7-1.7
				c0.7-0.6,1.6-0.5,1.7-0.5l21.8,0c0,0,1-0.1,1.7,0.5c0.4,0.4,0.7,1,0.7,1.7v7.7c0,0.8-0.2,1.3-0.7,1.7c-0.5,0.5-1.2,0.5-1.5,0.5
				C92.9,86.9,92.8,86.9,92.8,86.9z M92.8,74.8H71c0,0,0,0,0,0c0,0-0.9-0.1-1.6,0.5c-0.4,0.4-0.6,0.9-0.6,1.6v7.7
				c0,0.7,0.2,1.3,0.6,1.6c0.6,0.6,1.6,0.5,1.6,0.5l21.9,0c0,0,0.9,0.1,1.6-0.5c0.4-0.4,0.6-0.9,0.6-1.6v-7.7c0-0.7-0.2-1.3-0.6-1.6
				c-0.5-0.4-1.1-0.5-1.4-0.5C92.9,74.8,92.8,74.8,92.8,74.8z"/>
		</g>
		<g id="XMLID_485_">
			<path id="XMLID_196_" class="st3" d="M71,74.8h7.6h6.7h7.6c0,0,2.3-0.2,2.3,2.2v0.3v7.1v0.3c0,2.4-2.3,2.2-2.3,2.2h-7.6h-6.7H71
				c0,0-2.3,0.2-2.3-2.2v-0.3v-7.1v-0.3C68.7,74.5,71,74.8,71,74.8z"/>
			<path id="XMLID_486_" class="st15" d="M92.8,86.9l-21.8,0c0,0-1,0.1-1.7-0.5c-0.4-0.4-0.7-1-0.7-1.7v-7.7c0-0.8,0.2-1.3,0.7-1.7
				c0.7-0.6,1.6-0.5,1.7-0.5l21.8,0c0,0,1-0.1,1.7,0.5c0.4,0.4,0.7,1,0.7,1.7v7.7c0,0.8-0.2,1.3-0.7,1.7c-0.5,0.5-1.2,0.5-1.5,0.5
				C92.9,86.9,92.8,86.9,92.8,86.9z M92.8,74.8H71c0,0,0,0,0,0c0,0-0.9-0.1-1.6,0.5c-0.4,0.4-0.6,0.9-0.6,1.6v7.7
				c0,0.7,0.2,1.3,0.6,1.6c0.6,0.6,1.6,0.5,1.6,0.5l21.9,0c0,0,0.9,0.1,1.6-0.5c0.4-0.4,0.6-0.9,0.6-1.6v-7.7c0-0.7-0.2-1.3-0.6-1.6
				c-0.5-0.4-1.1-0.5-1.4-0.5C92.9,74.8,92.8,74.8,92.8,74.8z"/>
		</g>
		<path id="XMLID_193_" class="st42" d="M88.2,80.7c-4.9-1-9.8-1.8-14.8-2.4c-1.6-0.2-3.1-0.3-4.7-0.5v-0.9c0-2.4,2.3-2.2,2.3-2.2
			h21.8c0,0,2.3-0.2,2.3,2.2v5.4C92.8,81.7,90.5,81.2,88.2,80.7z"/>
		<g id="XMLID_479_">
			<path id="XMLID_192_" class="st15" d="M44.1,74.4h6.2h6.9H65c0,0,2.3-0.3,2.3,2.3V77v7.5v0.3c0,2.6-2.3,2.3-2.3,2.3h-7.8h-6.9
				h-7.8c0,0-2.1,0.3-2.1-2.1l0.9-8.4C41.3,74.1,44.1,74.4,44.1,74.4z"/>
			<path id="XMLID_480_" class="st41" d="M41,86.8c-0.4-0.4-0.7-1-0.7-1.8l0.9-8.4c0-0.7,0.2-1.3,0.7-1.7c0.8-0.7,2.1-0.6,2.2-0.6
				l20.9,0c0,0,1-0.1,1.7,0.5c0.5,0.4,0.7,1,0.7,1.9v8.2c0,0.8-0.2,1.5-0.7,1.9C66,87.4,65,87.3,65,87.3l-22.5,0c0,0-0.1,0-0.2,0
				C42,87.3,41.4,87.2,41,86.8z M65,87.1c0,0,0.9,0.1,1.6-0.5c0.4-0.4,0.6-1,0.6-1.8v-8.2c0-0.8-0.2-1.4-0.6-1.8
				c-0.7-0.6-1.6-0.5-1.6-0.5H44.1c0,0,0,0,0,0c0,0-1.3-0.1-2.1,0.6c-0.4,0.4-0.6,0.9-0.6,1.6l-0.9,8.4c0,0.7,0.2,1.3,0.6,1.7
				c0.6,0.5,1.5,0.4,1.5,0.4h14.7L65,87.1z"/>
		</g>
		<g id="XMLID_474_">
			<path id="XMLID_189_" class="st3" d="M44.4,74.8h6h6.7h7.6c0,0,2.3-0.2,2.3,2.2v0.3v7v0.3c0,2.4-2.3,2.2-2.3,2.2h-7.6h-6.7h-7.6
				c0,0-2.1,0.3-2.1-2l0.9-7.9C41.7,74.5,44.4,74.8,44.4,74.8z"/>
			<path id="XMLID_475_" class="st15" d="M41.4,86.4c-0.4-0.4-0.6-0.9-0.6-1.6l0.9-7.9c0-0.7,0.2-1.2,0.6-1.6c0.8-0.7,2-0.6,2.1-0.6
				l20.3,0c0,0,1-0.1,1.7,0.5c0.4,0.4,0.7,1,0.7,1.7v7.7c0,0.8-0.2,1.3-0.7,1.7c-0.7,0.6-1.6,0.5-1.7,0.5l-21.8,0c0,0-0.1,0-0.2,0
				C42.4,86.9,41.8,86.8,41.4,86.4z M64.7,86.7c0,0,0.9,0.1,1.6-0.5c0.4-0.4,0.6-0.9,0.6-1.6v-7.7c0-0.7-0.2-1.3-0.6-1.6
				c-0.6-0.6-1.6-0.5-1.6-0.5H44.4c0,0,0,0,0,0c0,0-1.3-0.1-2,0.5c-0.4,0.3-0.6,0.9-0.6,1.5l-0.9,7.9c0,0.7,0.2,1.2,0.6,1.5
				c0.6,0.5,1.4,0.4,1.4,0.4h14.3L64.7,86.7z"/>
		</g>
		<g id="XMLID_469_">
			<path id="XMLID_186_" class="st3" d="M44.4,74.8h6h6.7h7.6c0,0,2.3-0.2,2.3,2.2v0.3v7v0.3c0,2.4-2.3,2.2-2.3,2.2h-7.6h-6.7h-7.6
				c0,0-2.1,0.3-2.1-2l0.9-7.9C41.7,74.5,44.4,74.8,44.4,74.8z"/>
			<path id="XMLID_470_" class="st15" d="M41.4,86.4c-0.4-0.4-0.6-0.9-0.6-1.6l0.9-7.9c0-0.7,0.2-1.2,0.6-1.6c0.8-0.7,2-0.6,2.1-0.6
				l20.3,0c0,0,1-0.1,1.7,0.5c0.4,0.4,0.7,1,0.7,1.7v7.7c0,0.8-0.2,1.3-0.7,1.7c-0.7,0.6-1.6,0.5-1.7,0.5l-21.8,0c0,0-0.1,0-0.2,0
				C42.4,86.9,41.8,86.8,41.4,86.4z M64.7,86.7c0,0,0.9,0.1,1.6-0.5c0.4-0.4,0.6-0.9,0.6-1.6v-7.7c0-0.7-0.2-1.3-0.6-1.6
				c-0.6-0.6-1.6-0.5-1.6-0.5H44.4c0,0,0,0,0,0c0,0-1.3-0.1-2,0.5c-0.4,0.3-0.6,0.9-0.6,1.5l-0.9,7.9c0,0.7,0.2,1.2,0.6,1.5
				c0.6,0.5,1.4,0.4,1.4,0.4h14.3L64.7,86.7z"/>
		</g>
		<path id="XMLID_183_" class="st42" d="M58.8,77c-4.9-0.3-9.9-0.5-14.8-0.4c-0.7,0-1.5,0-2.2,0.1c0.1-2.3,2.7-2,2.7-2h20.3
			c0,0,2.3-0.2,2.3,2.2v0.7C64.2,77.4,61.5,77.2,58.8,77z"/>
		<g id="XMLID_463_">
			<path id="XMLID_182_" class="st20" d="M41.1,74.2l-1.6,12.9c0,0-0.2,0.4-0.4,0.5c-0.1,0-0.7,0.1-1.4,0.1L39.4,73h1
				C40.4,73,41.1,72.9,41.1,74.2z"/>
			<path id="XMLID_464_" class="st19" d="M37.6,87.7C37.6,87.7,37.6,87.7,37.6,87.7L39.3,73c0,0,0-0.1,0.1-0.1l1,0
				c0,0,0.2,0,0.4,0.2c0.2,0.2,0.3,0.6,0.3,1.1c0,0,0,0,0,0l-1.6,12.9c0,0,0,0,0,0c0,0-0.2,0.4-0.5,0.5C39,87.6,38.9,87.7,37.6,87.7
				C37.7,87.7,37.7,87.7,37.6,87.7C37.6,87.7,37.6,87.7,37.6,87.7z M41,74.2c0-0.5-0.1-0.8-0.3-1C40.6,73,40.5,73,40.4,73h-1
				l-1.7,14.6c1.1,0,1.2-0.1,1.3-0.1c0.2-0.1,0.3-0.3,0.4-0.4L41,74.2z"/>
		</g>
		<path id="XMLID_179_" class="st20" d="M39.1,75.4l0.1-0.5c0.5,0.3,0.9,0.7,1.4,1c0.1,0.1,0.2,0.1,0.3,0.2l-0.1,0.5
			C40.2,76.2,39.7,75.8,39.1,75.4z"/>
		<path id="XMLID_178_" class="st20" d="M38,84.6l0.2-1.5c0.2,0.2,0.5,0.4,0.7,0.6c0.3,0.2,0.6,0.5,0.9,0.7l-0.2,1.7
			C39.1,85.6,38.6,85.1,38,84.6z"/>
		<g id="XMLID_451_">
			<g id="XMLID_456_">
				<path id="XMLID_177_" class="st22" d="M126.4,88.1l1,0.4c0,0,1,0.6,1.9,2.1c0.9,1.5,0.7,3.8,0.7,3.8l0,1.7
					c-0.1,0.1-0.2,0.2-0.3,0.3h-1.3c-0.1-0.1-0.2-0.3-0.3-0.4C128.2,90.4,126.4,88.1,126.4,88.1z"/>
				<path id="XMLID_457_" class="st43" d="M128.4,96.4c-0.1-0.1-0.2-0.3-0.2-0.4c0,0,0,0,0,0c0-5.6-1.8-7.9-1.8-7.9c0,0,0-0.1,0-0.1
					c0,0,0.1,0,0.1,0l1,0.4c0,0,0,0,0,0c0,0,1,0.7,1.9,2.1c0.9,1.5,0.7,3.7,0.7,3.8l0,1.7c0,0,0,0,0,0c-0.1,0.1-0.2,0.2-0.3,0.3
					c0,0,0,0,0,0L128.4,96.4C128.4,96.4,128.4,96.4,128.4,96.4z M130,96.1l0-1.7c0,0,0.2-2.3-0.7-3.7c-0.9-1.4-1.8-2-1.9-2.1
					l-0.8-0.3c0.2,0.3,0.5,0.8,0.8,1.7c0.4,1.2,0.9,3.2,0.9,6.1c0.1,0.1,0.1,0.2,0.2,0.3h1.2C129.8,96.2,129.9,96.1,130,96.1z"/>
			</g>
			<path id="XMLID_453_" class="st22" d="M126.4,88.1c0,0,1.8,2.3,1.8,7.9c0.1,0.1,0.2,0.2,0.3,0.4h1.3c0.1-0.1,0.2-0.2,0.3-0.3
				l0-1.7c0,0,0.2-2.3-0.7-3.8c-0.9-1.5-1.9-2.1-1.9-2.1L126.4,88.1z M127.3,88.9c0,0,1.8,1.4,2.1,2.8c0,0,0.2,0.8,0.2,1.2
				c0.1,0.4,0,3,0,3h-0.4l-0.1-2.9C129.2,93,129.1,90.6,127.3,88.9z"/>
			<path id="XMLID_172_" class="st22" d="M127.2,89.4c0.3,0.6,0.5,1.1,0.6,1.7c0.2,0.7,0.3,1.4,0.4,2.1c0.1,0.7,0.2,1.5,0.2,2.2
				c0,0.3,0,0.6,0,0.9h-0.1c-0.1-0.1-0.2-0.3-0.3-0.4c0-5.7-1.8-7.9-1.8-7.9l0,0C126.7,88.5,127,88.9,127.2,89.4z"/>
		</g>
		<g id="XMLID_438_">
			<g id="XMLID_446_">
				<path id="XMLID_171_" class="st44" d="M123.9,95.1c0,0.3,0.3,0.7,0.6,0.7h1.2c0.3,0,0.6-0.4,0.6-0.7l0,0c0-0.3-0.3-0.7-0.6-0.7
					h-1.2C124.2,94.4,123.9,94.8,123.9,95.1L123.9,95.1z"/>
				<path id="XMLID_447_" class="st45" d="M123.9,95.1c0-0.4,0.3-0.7,0.7-0.7h1.2c0.4,0,0.7,0.3,0.7,0.7c0,0.4-0.3,0.7-0.7,0.7h-1.2
					C124.2,95.8,123.9,95.5,123.9,95.1z M124.6,94.4c-0.3,0-0.6,0.3-0.6,0.6c0,0.3,0.3,0.6,0.6,0.6h1.2c0.3,0,0.6-0.3,0.6-0.6
					c0-0.3-0.3-0.6-0.6-0.6H124.6z"/>
			</g>
			<g id="XMLID_441_">
				<path id="XMLID_168_" class="st44" d="M123.9,95.1c0,0.3,0.3,0.7,0.6,0.7h1.2c0.3,0,0.6-0.4,0.6-0.7l0,0c0-0.3-0.3-0.7-0.6-0.7
					h-1.2C124.2,94.4,123.9,94.8,123.9,95.1L123.9,95.1z"/>
				<path id="XMLID_442_" class="st45" d="M123.9,95.1c0-0.4,0.3-0.7,0.7-0.7h1.2c0.4,0,0.7,0.3,0.7,0.7c0,0.4-0.3,0.7-0.7,0.7h-1.2
					C124.2,95.8,123.9,95.5,123.9,95.1z M124.6,94.4c-0.3,0-0.6,0.3-0.6,0.6c0,0.3,0.3,0.6,0.6,0.6h1.2c0.3,0,0.6-0.3,0.6-0.6
					c0-0.3-0.3-0.6-0.6-0.6H124.6z"/>
			</g>
			<path id="XMLID_165_" class="st46" d="M124.3,95c0,0.3,0,0.4,0.3,0.4h1c0.3,0,0.5-0.2,0.5-0.4v0c0-0.3-0.2-0.5-0.5-0.5h-1
				C124.3,94.4,124.3,94.7,124.3,95L124.3,95z"/>
			<path id="XMLID_164_" class="st46" d="M125,95c0,0.1,0.1,0.2,0.3,0.2l0.5,0c0.1,0,0.2-0.1,0.2-0.3l0,0c0-0.1-0.1-0.2-0.3-0.2
				l-0.5,0C125.1,94.7,125,94.8,125,95L125,95z"/>
		</g>
		<path id="XMLID_163_" class="st46" d="M129.8,98.5H125c0,0-0.9-0.1-0.9,0.5l0.6,1.9c0,0,0.1,0.4,0.4,0.4h4.2c0,0,0.7,0,0.7-0.4
			v-2.1C130,98.8,130,98.5,129.8,98.5z"/>
		<path id="XMLID_434_" class="st46" d="M124.1,99l0.6,1.9c0,0,0.1,0.4,0.4,0.4h4.2c0,0,0.7,0,0.7-0.4v-2.1c0,0,0-0.3-0.3-0.3H125
			C125,98.5,124.1,98.4,124.1,99z M125.4,99.1c0-0.4,0.6-0.4,0.6-0.4h3.3c0.2,0,0.2,0.2,0.2,0.2v1.5c0,0.3-0.5,0.3-0.5,0.3h-2.9
			c-0.2,0-0.3-0.3-0.3-0.3L125.4,99.1z"/>
		<path id="XMLID_160_" class="st22" d="M129.4,100.2v-0.9c0,0,0-0.4-0.3-0.4h-2.1c0,0-0.2,0-0.2,0.1c0,0.1,1.7,0.2,1.7,0.2
			s0.5,0.1,0.6,0.4C129.2,99.8,129.4,100.2,129.4,100.2z"/>
		<g id="XMLID_328_">
			<g id="XMLID_428_">
				<path id="XMLID_159_" class="st3" d="M39.5,72.4l1.3-3.2c1.3-3.3,6.1-2.9,6.1-2.9s58.3,0,59.4,0c1.1,0,1.7,0.3,1.7,0.3
					c2.3,0.7,3.9,4,3.9,4l1.2,1.8H39.5z"/>
				<path id="XMLID_429_" class="st15" d="M39.4,72.5C39.4,72.5,39.4,72.4,39.4,72.5l1.2-3.2c0.5-1.4,1.8-2.3,3.6-2.7
					c1.4-0.3,2.6-0.2,2.6-0.2h59.4c1.1,0,1.7,0.3,1.8,0.3c2.3,0.7,3.9,3.9,3.9,4l1.2,1.8c0,0,0,0,0,0.1c0,0,0,0-0.1,0L39.4,72.5
					C39.4,72.5,39.4,72.5,39.4,72.5z M111.8,70.7c0,0-1.6-3.3-3.9-3.9c0,0-0.6-0.3-1.7-0.3l-59.4,0c0,0-1.2-0.1-2.6,0.2
					c-1.2,0.3-2.8,1-3.5,2.6l-1.2,3.1H113L111.8,70.7z"/>
			</g>
			<path id="XMLID_425_" class="st47" d="M39.5,72.4h73.6l-1.2-1.8c0,0-1.6-3.3-3.9-4c0,0-0.6-0.3-1.7-0.3c-1.1,0-59.4,0-59.4,0
				S42,66,40.7,69.3L39.5,72.4z M43.7,71.8l1-2.6c1-2.6,5-2.4,5-2.4s40.9,0,50.3,0c0,0,0,0,0,0c0.8,1.3,1.6,2.6,2.3,3.9
				c0.2,0.3,0.4,0.6,0.6,1H43.7z"/>
			<g id="XMLID_418_">
				<g id="XMLID_423_">
					<path id="XMLID_154_" class="st48" d="M106.3,66.4c1.1,0,1.7,0.3,1.7,0.3c2.3,0.7,3.9,4,3.9,4l1.2,1.8H106l-3-6.1
						C105,66.4,106.1,66.4,106.3,66.4z"/>
				</g>
				<path id="XMLID_420_" class="st48" d="M103,66.4l3,6.1h7.1l-1.2-1.8c0,0-1.6-3.3-3.9-4c0,0-0.6-0.3-1.7-0.3
					C106.1,66.4,105,66.4,103,66.4z M105.1,67.2c1.2,0,2,0,2.1,0c0.7,0,1.1,0.2,1.1,0.2c1.5,0.4,2.5,2.6,2.5,2.6l0.8,1.2H107
					L105.1,67.2z"/>
				<path id="XMLID_151_" class="st48" d="M107.5,67.5c0,0,1.2,0,1.9,1c0.7,1,1.6,2.3,1.6,2.3h-1l-1-2.2
					C109,68.5,108.3,67.6,107.5,67.5z"/>
			</g>
			<g id="XMLID_329_">
				<g id="XMLID_405_">
					<g id="XMLID_413_">
						<path id="XMLID_150_" class="st44" d="M99.7,69.6c0,0.5,0.4,1,0.9,1h1.6c0.5,0,0.9-0.5,0.9-1l0,0c0-0.5-0.4-1-0.9-1h-1.6
							C100,68.6,99.7,69.1,99.7,69.6L99.7,69.6z"/>
						<path id="XMLID_414_" class="st45" d="M99.6,69.6c0-0.5,0.4-1,0.9-1h1.6c0.5,0,0.9,0.5,0.9,1c0,0.5-0.4,1-0.9,1h-1.6
							C100,70.6,99.6,70.1,99.6,69.6z M100.5,68.6c-0.4,0-0.8,0.4-0.8,0.8c0,0.4,0.4,0.8,0.8,0.8h1.6c0.4,0,0.8-0.4,0.8-0.8
							c0-0.4-0.4-0.8-0.8-0.8H100.5z"/>
					</g>
					<g id="XMLID_408_">
						<path id="XMLID_147_" class="st44" d="M99.7,69.6c0,0.5,0.4,1,0.9,1h1.6c0.5,0,0.9-0.5,0.9-1l0,0c0-0.5-0.4-1-0.9-1h-1.6
							C100,68.6,99.7,69.1,99.7,69.6L99.7,69.6z"/>
						<path id="XMLID_409_" class="st45" d="M99.6,69.6c0-0.5,0.4-1,0.9-1h1.6c0.5,0,0.9,0.5,0.9,1c0,0.5-0.4,1-0.9,1h-1.6
							C100,70.6,99.6,70.1,99.6,69.6z M100.5,68.6c-0.4,0-0.8,0.4-0.8,0.8c0,0.4,0.4,0.8,0.8,0.8h1.6c0.4,0,0.8-0.4,0.8-0.8
							c0-0.4-0.4-0.8-0.8-0.8H100.5z"/>
					</g>
					<path id="XMLID_144_" class="st46" d="M100.1,69.4c0,0.4,0.1,0.6,0.5,0.6h1.4c0.4,0,0.6-0.2,0.6-0.6v0c0-0.4-0.2-0.8-0.6-0.8
						h-1.4C100.2,68.6,100.1,69,100.1,69.4L100.1,69.4z"/>
					<path id="XMLID_143_" class="st46" d="M101.1,69.4c0,0.2,0.2,0.3,0.4,0.3l0.7,0c0.2,0,0.3-0.2,0.3-0.4l0-0.1
						c0-0.2-0.2-0.3-0.4-0.3l-0.7,0C101.3,69,101.1,69.1,101.1,69.4L101.1,69.4z"/>
				</g>
				<g id="XMLID_330_">
					<g id="XMLID_386_">
						<g id="XMLID_400_">
							<path id="XMLID_142_" class="st49" d="M92.6,70.4v-1.7c0-0.6,0.6-0.8,0.6-0.8h2.1h0.7h1c0,0,0.6,0.2,0.6,0.8v1.7
								c0,0,0,0.9-0.8,0.9h-0.9h-1.7h-0.9C92.5,71.3,92.6,70.4,92.6,70.4z"/>
							<path id="XMLID_401_" class="st50" d="M92.8,71.1c-0.3-0.3-0.3-0.8-0.3-0.8v-1.7c0-0.7,0.7-0.9,0.7-0.9c0,0,0,0,0,0H97
								c0,0,0,0,0,0c0,0,0.7,0.2,0.7,0.9l0,1.7c0,0,0,0.5-0.3,0.8c-0.1,0.1-0.3,0.2-0.6,0.2h-3.5C93.1,71.4,92.9,71.3,92.8,71.1z
								 M93.2,68c-0.1,0-0.6,0.2-0.6,0.7v1.7c0,0,0,0,0,0c0,0,0,0.4,0.2,0.7c0.1,0.1,0.3,0.2,0.5,0.2h3.5c0.2,0,0.4-0.1,0.5-0.2
								c0.2-0.3,0.2-0.7,0.2-0.7v-1.7c0-0.5-0.5-0.7-0.6-0.7H93.2z"/>
						</g>
						<g id="XMLID_395_">
							<path id="XMLID_139_" class="st51" d="M93,70.2v-1.4c0-0.5,0.5-0.7,0.5-0.7h1.7h0.6h0.9c0,0,0.5,0.1,0.5,0.7v1.4
								c0,0,0,0.8-0.6,0.8h-0.8h-1.4h-0.8C92.9,71,93,70.2,93,70.2z"/>
							<path id="XMLID_396_" class="st52" d="M93.1,70.9c-0.2-0.2-0.2-0.6-0.2-0.7v-1.4c0-0.6,0.6-0.7,0.6-0.7c0,0,0,0,0,0h3.1
								c0,0,0,0,0,0c0,0,0.6,0.2,0.6,0.7l0,1.4c0,0,0,0.4-0.2,0.7c-0.1,0.1-0.3,0.2-0.5,0.2h-2.9C93.4,71.1,93.3,71,93.1,70.9z
								 M93.5,68.2c-0.1,0-0.5,0.2-0.5,0.6v1.4c0,0,0,0,0,0c0,0,0,0.4,0.2,0.6c0.1,0.1,0.2,0.2,0.4,0.2h2.9c0.2,0,0.3-0.1,0.4-0.2
								c0.2-0.2,0.2-0.6,0.2-0.6v-1.4c0-0.4-0.4-0.6-0.5-0.6H93.5z"/>
						</g>
						<g id="XMLID_390_">
							<path id="XMLID_136_" class="st51" d="M93,70.2v-1.4c0-0.5,0.5-0.7,0.5-0.7h1.7h0.6h0.9c0,0,0.5,0.1,0.5,0.7v1.4
								c0,0,0,0.8-0.6,0.8h-0.8h-1.4h-0.8C92.9,71,93,70.2,93,70.2z"/>
							<path id="XMLID_391_" class="st52" d="M93.1,70.9c-0.2-0.2-0.2-0.6-0.2-0.7v-1.4c0-0.6,0.6-0.7,0.6-0.7c0,0,0,0,0,0h3.1
								c0,0,0,0,0,0c0,0,0.6,0.2,0.6,0.7l0,1.4c0,0,0,0.4-0.2,0.7c-0.1,0.1-0.3,0.2-0.5,0.2h-2.9C93.4,71.1,93.3,71,93.1,70.9z
								 M93.5,68.2c-0.1,0-0.5,0.2-0.5,0.6v1.4c0,0,0,0,0,0c0,0,0,0.4,0.2,0.6c0.1,0.1,0.2,0.2,0.4,0.2h2.9c0.2,0,0.3-0.1,0.4-0.2
								c0.2-0.2,0.2-0.6,0.2-0.6v-1.4c0-0.4-0.4-0.6-0.5-0.6H93.5z"/>
						</g>
						<path id="XMLID_387_" class="st53" d="M93.6,71h0.8h1.4h0.8c0.7,0,0.6-0.8,0.6-0.8v-1.4c0-0.5-0.5-0.7-0.5-0.7h-0.9h-0.6h-1.7
							c0,0-0.5,0.1-0.5,0.7v1.4C93,70.2,92.9,71,93.6,71z M95,69.4v-0.6c0-0.2,0.2-0.3,0.2-0.3H96h0.2h0.4c0,0,0.2,0.1,0.2,0.3v0.6
							c0,0,0,0.4-0.3,0.4h-0.3h-0.6h-0.3C94.9,69.8,95,69.4,95,69.4z"/>
					</g>
					<g id="XMLID_367_">
						<g id="XMLID_381_">
							<path id="XMLID_131_" class="st49" d="M46.1,70.4v-1.7c0-0.6,0.6-0.8,0.6-0.8h2.1h0.7h1c0,0,0.6,0.2,0.6,0.8v1.7
								c0,0,0,0.9-0.8,0.9h-0.9h-1.7h-0.9C46,71.3,46.1,70.4,46.1,70.4z"/>
							<path id="XMLID_382_" class="st50" d="M46.3,71.1C46,70.9,46,70.4,46,70.4v-1.7c0-0.7,0.7-0.9,0.7-0.9c0,0,0,0,0,0h3.8
								c0,0,0,0,0,0c0,0,0.7,0.2,0.7,0.9l0,1.7c0,0,0,0.5-0.3,0.8c-0.1,0.1-0.3,0.2-0.6,0.2h-3.5C46.6,71.4,46.4,71.3,46.3,71.1z
								 M46.7,68c-0.1,0-0.6,0.2-0.6,0.7v1.7c0,0,0,0,0,0c0,0,0,0.4,0.2,0.7c0.1,0.1,0.3,0.2,0.5,0.2h3.5c0.2,0,0.4-0.1,0.5-0.2
								c0.2-0.3,0.2-0.7,0.2-0.7v-1.7c0-0.5-0.5-0.7-0.6-0.7H46.7z"/>
						</g>
						<g id="XMLID_376_">
							<path id="XMLID_128_" class="st51" d="M46.5,70.2v-1.4c0-0.5,0.5-0.7,0.5-0.7h1.7h0.6h0.9c0,0,0.5,0.1,0.5,0.7v1.4
								c0,0,0,0.8-0.6,0.8h-0.8h-1.4h-0.8C46.5,71,46.5,70.2,46.5,70.2z"/>
							<path id="XMLID_377_" class="st52" d="M46.7,70.9c-0.2-0.2-0.2-0.6-0.2-0.7v-1.4c0-0.6,0.6-0.7,0.6-0.7c0,0,0,0,0,0h3.1
								c0,0,0,0,0,0c0,0,0.6,0.2,0.6,0.7l0,1.4c0,0,0,0.4-0.2,0.7c-0.1,0.1-0.3,0.2-0.5,0.2h-2.9C46.9,71.1,46.8,71,46.7,70.9z
								 M47,68.2c-0.1,0-0.5,0.2-0.5,0.6v1.4c0,0,0,0,0,0c0,0,0,0.4,0.2,0.6c0.1,0.1,0.2,0.2,0.4,0.2h2.9c0.2,0,0.3-0.1,0.4-0.2
								c0.2-0.2,0.2-0.6,0.2-0.6v-1.4c0-0.4-0.4-0.6-0.5-0.6H47z"/>
						</g>
						<g id="XMLID_371_">
							<path id="XMLID_125_" class="st51" d="M46.5,70.2v-1.4c0-0.5,0.5-0.7,0.5-0.7h1.7h0.6h0.9c0,0,0.5,0.1,0.5,0.7v1.4
								c0,0,0,0.8-0.6,0.8h-0.8h-1.4h-0.8C46.5,71,46.5,70.2,46.5,70.2z"/>
							<path id="XMLID_372_" class="st52" d="M46.7,70.9c-0.2-0.2-0.2-0.6-0.2-0.7v-1.4c0-0.6,0.6-0.7,0.6-0.7c0,0,0,0,0,0h3.1
								c0,0,0,0,0,0c0,0,0.6,0.2,0.6,0.7l0,1.4c0,0,0,0.4-0.2,0.7c-0.1,0.1-0.3,0.2-0.5,0.2h-2.9C46.9,71.1,46.8,71,46.7,70.9z
								 M47,68.2c-0.1,0-0.5,0.2-0.5,0.6v1.4c0,0,0,0,0,0c0,0,0,0.4,0.2,0.6c0.1,0.1,0.2,0.2,0.4,0.2h2.9c0.2,0,0.3-0.1,0.4-0.2
								c0.2-0.2,0.2-0.6,0.2-0.6v-1.4c0-0.4-0.4-0.6-0.5-0.6H47z"/>
						</g>
						<path id="XMLID_368_" class="st53" d="M47.1,71h0.8h1.4h0.8c0.7,0,0.6-0.8,0.6-0.8v-1.4c0-0.5-0.5-0.7-0.5-0.7h-0.9h-0.6H47
							c0,0-0.5,0.1-0.5,0.7v1.4C46.5,70.2,46.5,71,47.1,71z M48.5,69.4v-0.6c0-0.2,0.2-0.3,0.2-0.3h0.8h0.2h0.4c0,0,0.2,0.1,0.2,0.3
							v0.6c0,0,0,0.4-0.3,0.4h-0.3h-0.6h-0.3C48.5,69.8,48.5,69.4,48.5,69.4z"/>
					</g>
					<g id="XMLID_354_">
						<g id="XMLID_362_">
							<path id="XMLID_120_" class="st44" d="M42.1,69.6c0,0.5,0.4,1,0.9,1h1.6c0.5,0,0.9-0.5,0.9-1l0,0c0-0.5-0.4-1-0.9-1H43
								C42.5,68.6,42.1,69.1,42.1,69.6L42.1,69.6z"/>
							<path id="XMLID_363_" class="st45" d="M42.1,69.6c0-0.5,0.4-1,0.9-1h1.6c0.5,0,0.9,0.5,0.9,1c0,0.5-0.4,1-0.9,1H43
								C42.5,70.6,42.1,70.1,42.1,69.6z M43,68.6c-0.4,0-0.8,0.4-0.8,0.8c0,0.4,0.4,0.8,0.8,0.8h1.6c0.4,0,0.8-0.4,0.8-0.8
								c0-0.4-0.4-0.8-0.8-0.8H43z"/>
						</g>
						<g id="XMLID_357_">
							<path id="XMLID_117_" class="st44" d="M42.1,69.6c0,0.5,0.4,1,0.9,1h1.6c0.5,0,0.9-0.5,0.9-1l0,0c0-0.5-0.4-1-0.9-1H43
								C42.5,68.6,42.1,69.1,42.1,69.6L42.1,69.6z"/>
							<path id="XMLID_358_" class="st45" d="M42.1,69.6c0-0.5,0.4-1,0.9-1h1.6c0.5,0,0.9,0.5,0.9,1c0,0.5-0.4,1-0.9,1H43
								C42.5,70.6,42.1,70.1,42.1,69.6z M43,68.6c-0.4,0-0.8,0.4-0.8,0.8c0,0.4,0.4,0.8,0.8,0.8h1.6c0.4,0,0.8-0.4,0.8-0.8
								c0-0.4-0.4-0.8-0.8-0.8H43z"/>
						</g>
						<path id="XMLID_114_" class="st46" d="M42.6,69.4c0,0.4,0,0.6,0.4,0.6h1.4c0.4,0,0.7-0.2,0.7-0.6v0c0-0.4-0.3-0.8-0.7-0.8H43
							C42.6,68.6,42.6,69,42.6,69.4L42.6,69.4z"/>
						<path id="XMLID_113_" class="st46" d="M43.6,69.4c0,0.2,0.2,0.3,0.4,0.3l0.7,0c0.2,0,0.3-0.2,0.3-0.4l0-0.1
							c0-0.2-0.2-0.3-0.4-0.3l-0.7,0C43.7,69,43.6,69.1,43.6,69.4L43.6,69.4z"/>
					</g>
					<g id="XMLID_331_">
						<path id="XMLID_351_" class="st54" d="M72.1,70.8l1-2.4h0.6l1,2.4H74l-0.2-0.5h-0.9l-0.2,0.5H72.1z M73.1,69.9h0.6L73.4,69
							L73.1,69.9z"/>
						<path id="XMLID_349_" class="st54" d="M69.2,70.8v-2.4H70l0.5,1.5h0l0.5-1.5h0.8v2.4h-0.5l0-1.7h0l-0.6,1.7h-0.4l-0.6-1.7h0
							l0,1.7H69.2z"/>
						<path id="XMLID_345_" class="st54" d="M66.9,69.9c0-0.1,0.1-0.1,0.1-0.2c0,0,0.1-0.1,0.2-0.1c0.1,0,0.1-0.1,0.2-0.1v0
							c-0.1,0-0.2-0.1-0.3-0.2c-0.1-0.1-0.1-0.2-0.1-0.3c0-0.1,0-0.2,0.1-0.3c0-0.1,0.1-0.1,0.2-0.2c0.1,0,0.2-0.1,0.3-0.1
							c0.1,0,0.2,0,0.3,0h0.9v2.4h-0.9c-0.1,0-0.2,0-0.3,0c-0.1,0-0.2-0.1-0.3-0.1c-0.1-0.1-0.2-0.1-0.2-0.2
							c-0.1-0.1-0.1-0.2-0.1-0.3C66.8,70,66.8,69.9,66.9,69.9z M67.6,69.3c0.1,0,0.1,0.1,0.2,0.1h0.3v-0.5h-0.3
							c-0.1,0-0.2,0-0.3,0.1c-0.1,0-0.1,0.1-0.1,0.2C67.5,69.2,67.5,69.2,67.6,69.3z M67.4,70.2C67.5,70.2,67.5,70.3,67.4,70.2
							c0.1,0.1,0.2,0.1,0.2,0.1c0,0,0.1,0,0.1,0h0.3v-0.5h-0.3c-0.1,0-0.2,0-0.3,0.1c-0.1,0-0.1,0.1-0.1,0.2
							C67.4,70.1,67.4,70.1,67.4,70.2z"/>
						<path id="XMLID_343_" class="st54" d="M64.4,69.9v-1.5H65v1.4c0,0.1,0,0.1,0,0.2c0,0.1,0,0.1,0.1,0.2c0,0,0.1,0.1,0.1,0.1
							c0.1,0,0.1,0,0.2,0s0.1,0,0.2,0c0.1,0,0.1-0.1,0.1-0.1c0,0,0.1-0.1,0.1-0.2c0-0.1,0-0.1,0-0.2v-1.4h0.6v1.5
							c0,0.1,0,0.3-0.1,0.4c0,0.1-0.1,0.2-0.2,0.3c-0.1,0.1-0.2,0.1-0.3,0.2c-0.1,0-0.3,0.1-0.4,0.1c-0.2,0-0.3,0-0.4-0.1
							c-0.1,0-0.2-0.1-0.3-0.2c-0.1-0.1-0.2-0.2-0.2-0.3C64.5,70.2,64.4,70,64.4,69.9z"/>
						<path id="XMLID_341_" class="st54" d="M62.5,70.8v-0.5h0.9v-1.9H64v2.4H62.5z"/>
						<path id="XMLID_338_" class="st54" d="M60,70.8l1-2.4h0.6l1,2.4h-0.6l-0.2-0.5h-0.9l-0.2,0.5H60z M60.9,69.9h0.6L61.2,69
							L60.9,69.9z"/>
						<path id="XMLID_336_" class="st54" d="M57.6,70.8v-2.4h0.6l0,1.6h0l1-1.6h0.7v2.4h-0.6l0-1.6h0l-1,1.6H57.6z"/>
						<path id="XMLID_334_" class="st54" d="M55,70.5l0.4-0.4c0.1,0.1,0.1,0.1,0.2,0.2c0.1,0,0.2,0.1,0.3,0.1c0.1,0,0.2,0,0.3-0.1
							c0.1,0,0.2-0.1,0.2-0.1c0.1-0.1,0.1-0.1,0.1-0.2c0-0.1,0.1-0.2,0.1-0.3c0-0.1,0-0.2-0.1-0.3c0-0.1-0.1-0.2-0.1-0.2
							c-0.1-0.1-0.1-0.1-0.2-0.2c-0.1,0-0.2-0.1-0.3-0.1c-0.1,0-0.2,0-0.3,0.1c-0.1,0-0.2,0.1-0.2,0.2L55,68.7
							c0.1-0.1,0.2-0.2,0.4-0.3c0.2-0.1,0.3-0.1,0.5-0.1c0.2,0,0.4,0,0.5,0.1c0.2,0.1,0.3,0.1,0.4,0.3c0.1,0.1,0.2,0.2,0.3,0.4
							c0.1,0.2,0.1,0.3,0.1,0.5c0,0.2,0,0.4-0.1,0.5c-0.1,0.2-0.2,0.3-0.3,0.4c-0.1,0.1-0.2,0.2-0.4,0.3c-0.2,0.1-0.3,0.1-0.5,0.1
							c-0.2,0-0.4,0-0.5-0.1C55.3,70.7,55.1,70.6,55,70.5z"/>
						<path id="XMLID_332_" class="st54" d="M53.1,70.8v-0.5h1.1v-0.5h-1v-0.5h1v-0.4h-1v-0.5h1.6v2.4H53.1z"/>
					</g>
				</g>
			</g>
		</g>
	</g>
	<g id="XMLID_84_">
		<g id="XMLID_322_">
			<path id="XMLID_99_" class="st55" d="M37.6,89.9h1.3c0,0,0.5-0.1,0.5,0.5V99c0,0,0.1,0.9-0.3,0.9c-0.4,0-1.6,0-1.6,0L37.6,89.9z"
				/>
			<path id="XMLID_323_" class="st56" d="M37.4,100C37.4,100,37.4,100,37.4,100l0.1-10.1c0,0,0-0.1,0.1-0.1l1.3,0c0,0,0.2,0,0.4,0.1
				c0.1,0.1,0.2,0.3,0.2,0.5l0,8.7c0,0,0.1,0.6-0.2,0.8c-0.1,0.1-0.2,0.1-0.2,0.1C38.7,100,37.5,100,37.4,100
				C37.4,100,37.4,100,37.4,100z M38.9,89.9h-1.3l-0.1,9.9c0.3,0,1.2,0,1.5,0c0.1,0,0.1,0,0.1-0.1c0.2-0.2,0.1-0.6,0.1-0.7v-8.7
				c0-0.2,0-0.3-0.1-0.4C39.1,89.9,39,89.9,38.9,89.9C38.9,89.9,38.9,89.9,38.9,89.9z"/>
		</g>
		<g id="XMLID_317_">
			<path id="XMLID_96_" class="st57" d="M37.5,95.4l0.1-5.6h1.3c0,0,0.5-0.1,0.5,0.5v5H37.5z"/>
			<path id="XMLID_318_" class="st56" d="M37.5,95.5C37.5,95.5,37.4,95.4,37.5,95.5l0-5.6c0,0,0-0.1,0.1-0.1l1.3,0
				c0,0,0.2,0,0.4,0.1c0.1,0.1,0.2,0.3,0.2,0.5v5c0,0,0,0.1-0.1,0.1L37.5,95.5C37.5,95.5,37.5,95.5,37.5,95.5z M39.4,90.4
				c0-0.2,0-0.3-0.1-0.4c-0.1-0.1-0.3-0.1-0.3-0.1h-1.3l-0.1,5.4h1.8V90.4z"/>
		</g>
		<path id="XMLID_86_" class="st56" d="M37.5,99.9c0,0,1.2,0,1.6,0c0.4,0,0.3-0.9,0.3-0.9v-8.7c0-0.6-0.5-0.5-0.5-0.5h-1.3
			L37.5,99.9z M37.7,99.1l0.2-8.8h0.9c0,0,0.5-0.1,0.5,0.5v7.5c0,0,0.1,0.8-0.3,0.8C38.5,99.1,37.7,99.1,37.7,99.1z"/>
		<path id="XMLID_6_" class="st57" d="M38.6,90.5c0,0,0.3,0.1,0.3,1c0,1,0,7.1,0,7.1l-0.3-7c0,0,0-0.8-0.5-1.1H38.6z"/>
	</g>
</g>
</svg>
