<?xml version="1.0" encoding="utf-8"?>
<!-- Generator: Adobe Illustrator 19.0.0, SVG Export Plug-In . SVG Version: 6.00 Build 0)  -->
<svg version="1.1" id="Layer_1" xmlns="http://www.w3.org/2000/svg" xmlns:xlink="http://www.w3.org/1999/xlink" x="0px" y="0px"
	 viewBox="0 0 300 300" style="enable-background:new 0 0 300 300;" xml:space="preserve">
<style type="text/css">
	.st0{fill:#FFF3F3;stroke:#757575;stroke-miterlimit:10;}
	.st1{fill:#FFFFFF;stroke:#757575;stroke-miterlimit:10;}
	.st2{fill:#FFF3F3;}
	.st3{fill:#FFFFFF;}
	.st4{fill:#006838;}
	.st5{font-family:'FranklinGothic-Demi';}
	.st6{font-size:23px;}
	.st7{fill:#5EB030;}
	.st8{fill:#EB5848;}
	.st9{fill:#444444;}
	.st10{font-family:'ArialMT';}
	.st11{font-size:16.9054px;}
</style>
<g id="XMLID_1_">
	<path id="XMLID_3_" class="st0" d="M15.4,36.9v229.2c0,5.4,2.2,10.3,5.7,13.9L278.5,22.6c-3.6-3.5-8.5-5.7-13.9-5.7H35.4
		C24.4,16.9,15.4,25.9,15.4,36.9z"/>
	<path id="XMLID_2_" class="st1" d="M35.4,286.1h229.2c11,0,19.9-8.9,19.9-19.9V36.9c0-5.6-2.3-10.6-6-14.3L21.1,280
		C24.8,283.7,29.8,286.1,35.4,286.1z"/>
</g>
<g id="XMLID_22_">
	<path id="XMLID_36_" class="st2" d="M15.4,36.9v229.2c0,5.4,2.2,10.3,5.7,13.9L278.5,22.6c-3.6-3.5-8.5-5.7-13.9-5.7H35.4
		C24.4,16.9,15.4,25.9,15.4,36.9z"/>
	<path id="XMLID_30_" class="st3" d="M35.4,286.1h229.2c11,0,19.9-8.9,19.9-19.9V36.9c0-5.6-2.3-10.6-6-14.3L21.1,280
		C24.8,283.7,29.8,286.1,35.4,286.1z"/>
</g>
<text id="XMLID_9_" transform="matrix(0.9922 0 0 1 34.5585 176.5439)"><tspan x="0" y="0" class="st4 st5 st6">Emergency </tspan><tspan x="0" y="26" class="st4 st5 st6">Doctor Home Call</tspan></text>
<g id="XMLID_27_">
	<polygon id="XMLID_26_" class="st3" points="40.6,96.6 40.6,145.5 101.1,145.5 101.1,96.6 70.9,77.6 	"/>
	<path id="XMLID_37_" class="st7" d="M71.6,77.3l-0.8-0.5l-0.8,0.5L40.6,95.8l-0.7,0.4v49.8h61.9V96.2l-0.7-0.4L71.6,77.3z
		 M100.4,144.6h-59V97l29.5-18.5L100.4,97V144.6z"/>
	<path id="XMLID_15_" class="st7" d="M106.5,98.5L70.9,76.1L35.2,98.5c-0.7,0.5-0.9,1.6-0.3,2.3c0.5,0.7,1.4,0.9,2.1,0.5L70.9,80
		l33.9,21.3c0.8,0.4,1.8,0.1,2.2-0.7C107.4,99.9,107.2,99,106.5,98.5L106.5,98.5z"/>
	<path id="XMLID_14_" class="st8" d="M56.7,121.9c-1.9,0-3.4,1.5-3.4,3.4c0,1.9,1.5,3.4,3.4,3.4s3.4-1.5,3.4-3.4
		C60.1,123.4,58.6,121.9,56.7,121.9L56.7,121.9z"/>
	<path id="XMLID_12_" class="st7" d="M89.2,121.3H70.9v11.5H51.2v-16.5c0-0.8-0.6-1.4-1.4-1.4c0,0,0,0,0,0l0,0
		c-0.8,0-1.4,0.6-1.4,1.4v28.9h2.9v-5.3h39.3v5.2h2.9v-19.4C93.4,123.2,91.5,121.3,89.2,121.3C89.2,121.3,89.2,121.3,89.2,121.3z"/>
	<path id="XMLID_11_" class="st8" d="M61.1,127.4c0,2.1,1.7,3.7,3.7,3.7h3.8v-7.5h-3.8C62.8,123.6,61.1,125.3,61.1,127.4
		C61.1,127.4,61.1,127.4,61.1,127.4z"/>
	<circle id="XMLID_10_" class="st7" cx="70.9" cy="102.3" r="12.4"/>
	<path id="XMLID_8_" class="st3" d="M77.4,105.9l-3.8-1.3c-0.4-0.1-0.8,0.1-0.9,0.5l-0.3,0.9c-0.9-0.5-1.7-1.1-2.5-1.8
		c-1-1-1.9-2.1-2.6-3.3l0.9-0.3c0.4-0.1,0.6-0.5,0.5-0.9c0,0,0,0,0,0l-1.3-3.8c-0.1-0.4-0.5-0.6-0.9-0.5L64.3,96l0,0.1
		c-0.2,0.2-0.4,0.4-0.4,0.7c0,0.4,0,0.8,0.1,1.3v0c0.5,2.5,1.9,5.1,4,7.2c0.1,0.1,0.3,0.3,0.4,0.4c2.4,2.2,5.2,3.5,7.8,3.6
		c0.6,0,1.1-0.4,1.1-1c0,0,0-0.1,0-0.1l0.5-1.5C78,106.4,77.8,106,77.4,105.9z"/>
</g>
<text id="XMLID_29_" transform="matrix(1 0 0 1 34.5581 239.1801)" class="st9 st10 st11">Healthcare whenever you need</text>
</svg>
