<?xml version="1.0" encoding="utf-8"?>
<!-- Generator: Adobe Illustrator 19.0.0, SVG Export Plug-In . SVG Version: 6.00 Build 0)  -->
<svg version="1.1" id="Layer_1" xmlns="http://www.w3.org/2000/svg" xmlns:xlink="http://www.w3.org/1999/xlink" x="0px" y="0px"
	 viewBox="0 0 300 300" style="enable-background:new 0 0 300 300;" xml:space="preserve">
<style type="text/css">
	.st0{fill:#FFF3F3;stroke:#3F3C3C;stroke-miterlimit:10;}
	.st1{fill:#FFFFFF;stroke:#3F3C3C;stroke-miterlimit:10;}
	.st2{fill:#FFF3F3;}
	.st3{fill:#FFFFFF;}
	.st4{fill:#444444;}
	.st5{font-family:'ArialMT';}
	.st6{font-size:16.5033px;}
	.st7{fill:#006838;}
	.st8{font-family:'Arial-BoldMT';}
	.st9{font-size:23.7235px;}
	.st10{fill:#E6E7E8;}
	.st11{fill:#58595B;}
	.st12{opacity:0.4;fill:#484A4C;}
	.st13{fill:#252729;}
	.st14{fill:#242627;}
	.st15{fill:#B5B7B9;}
	.st16{opacity:0.29;}
	.st17{fill:#D11D23;}
	.st18{fill:#1E2022;}
	.st19{fill:#202123;}
	.st20{fill:#494B4D;}
	.st21{opacity:0.4;}
	.st22{fill:#95979A;}
	.st23{fill:#27292B;}
	.st24{fill:#131416;}
	.st25{fill:#47484A;}
	.st26{fill:#5D5E61;}
	.st27{fill:#2E3043;}
	.st28{fill:#B8BABC;}
	.st29{fill:#4D4E50;}
	.st30{fill:#18191B;}
	.st31{opacity:0.5;fill:#353738;}
	.st32{fill:#070707;}
	.st33{fill:#DFD5DB;}
	.st34{fill:#97999C;}
	.st35{fill:#A19BA1;}
	.st36{fill:#727577;}
	.st37{fill:#59575B;}
	.st38{fill:#706F70;}
	.st39{opacity:0.4;fill:#494B4D;}
	.st40{fill:#A5A7AA;}
	.st41{fill:#6D7072;}
	.st42{opacity:0.29;fill:#B5B7B9;}
	.st43{fill:#6F7173;}
	.st44{fill:#CB4F39;}
	.st45{fill:#651E0B;}
	.st46{fill:#EC994B;}
	.st47{opacity:0.29;fill:#898B8D;}
	.st48{fill:#007FBC;}
	.st49{fill:#949698;}
	.st50{fill:#888B8D;}
	.st51{fill:#EFEFF0;}
	.st52{fill:#979A9C;}
	.st53{fill:#D3D4D5;}
	.st54{fill:#DF1A22;}
	.st55{fill:#F15D43;}
	.st56{fill:#A13A23;}
	.st57{fill:#F57F49;}
</style>
<g id="XMLID_1_">
	<path id="XMLID_3_" class="st0" d="M11,31.2v236.4c0,5.6,2.2,10.7,5.9,14.4L282.4,16.5c-3.7-3.6-8.8-5.9-14.4-5.9H31.6
		C20.2,10.6,11,19.8,11,31.2z"/>
	<path id="XMLID_2_" class="st1" d="M31.6,288.2H268c11.4,0,20.6-9.2,20.6-20.6V31.2c0-5.8-2.4-11-6.2-14.7L16.9,282
		C20.6,285.8,25.8,288.2,31.6,288.2z"/>
</g>
<g id="XMLID_89_">
	<path id="XMLID_91_" class="st2" d="M11,31.2v236.4c0,5.6,2.2,10.7,5.9,14.4L282.4,16.5c-3.7-3.6-8.8-5.9-14.4-5.9H31.6
		C20.2,10.6,11,19.8,11,31.2z"/>
	<path id="XMLID_90_" class="st3" d="M31.6,288.2H268c11.4,0,20.6-9.2,20.6-20.6V31.2c0-5.8-2.4-11-6.2-14.7L16.9,282
		C20.6,285.8,25.8,288.2,31.6,288.2z"/>
</g>
<text id="XMLID_88_" transform="matrix(1 0 0 1 28.4029 232.2559)"><tspan x="0" y="0" class="st4 st5 st6">If you need this service just </tspan><tspan x="0" y="23.6" class="st4 st5 st6">click here</tspan></text>
<text id="XMLID_87_" transform="matrix(0.9922 0 0 1 28.4028 149.416)"><tspan x="0" y="0" class="st7 st8 st9">Emergency</tspan><tspan x="0" y="30.9" class="st7 st8 st9">Ambulance</tspan></text>
<g id="XMLID_83_">
	<g id="XMLID_327_">
		<g id="XMLID_674_">
			<g id="XMLID_679_">
				<path id="XMLID_314_" class="st10" d="M36.8,100v3.2c0,0-0.2,0.6-1,0.6c-0.8,0-2.5,0-2.5,0s-0.8,0-1.1-0.6v-2
					c0,0-0.2-0.7,0.9-0.7h2.6V100H36.8z"/>
				<path id="XMLID_680_" class="st11" d="M33.3,103.9c0,0-0.9,0-1.2-0.6c0,0,0.1,0,0.1,0v-2c0,0-0.2-0.7,0.9-0.7h2.3v-0.8
					c0,0,0-0.1,0-0.1h1.2c0,0,0.2,0.1,0.2,0.1v3.4c0,0-0.1,0-0.1,0c0,0-0.2,0.6-1,0.7c-0.2,0-0.6,0-1,0
					C34,103.9,33.3,103.9,33.3,103.9z M36.5,100h-0.9v0.6c0,0-0.2-0.1-0.2-0.1h-2.3c-1,0-0.9,0.7-0.9,0.7v1.9c0.3,0.5,1,0.6,1,0.6
					c0,0,0.7,0,1.5,0c0.4,0,0.8,0,1,0c0.7,0,0.8-0.5,0.8-0.5V100z"/>
			</g>
			<path id="XMLID_676_" class="st12" d="M32.1,101.3v2c0.2,0.6,1.1,0.6,1.1,0.6s1.7,0,2.5,0c0.8,0,0.9-0.6,0.9-0.6v-3.4h-1.1v0.9
				h-2.4C32,100.7,32.1,101.3,32.1,101.3z M32.8,101.1c0.3-0.1,1.3,0,1.3,0c0.1,0.6,0.6,1,0.9,1.5c0,0-2,0.4-2.3-0.6
				C32.5,101.8,32.5,101.2,32.8,101.1z"/>
			<path id="XMLID_309_" class="st12" d="M32.6,103.3c0.3,0.1,0.6,0.1,0.9,0.1c0.5,0,0.9,0,1.4,0c0.3,0,0.5,0,0.6-0.3
				c0.1-0.2,0-0.4-0.1-0.6c-0.2-0.2-0.4-0.5-0.5-0.7c-0.2-0.4-0.3-0.8-0.3-1.2h1v-0.9h1.1v3.4c0,0-0.1,0.6-0.9,0.6
				c-0.8,0-2.5,0-2.5,0s-0.9,0-1.1-0.6v-0.6C32.1,102.9,32.3,103.2,32.6,103.3z"/>
		</g>
		<g id="XMLID_669_">
			<rect id="XMLID_308_" x="47.8" y="94" class="st13" width="79.3" height="8.3"/>
			<path id="XMLID_670_" class="st14" d="M47.8,94C47.8,94,47.8,94,47.8,94l79.3-0.1c0,0,0.1,0,0.1,0.1v8.2c0,0,0,0.1-0.1,0.1H47.9
				c0,0-0.1,0-0.1-0.1V94z M126.9,94H47.8v8.3h79.1V94z"/>
		</g>
		<g id="XMLID_663_">
			<g id="XMLID_664_">
				<path id="XMLID_305_" class="st3" d="M36.8,70.8l75.9-0.1l10.2,13.8l4,2c3.3,1.1,3.7,5.3,3.7,5.3l-0.1,11h-6l-1.9-5.7
					c0,0-0.6-2-2.8-2.3c-2.2-0.3-9.8,0-9.8,0s-2.4-0.2-3.1,2c-0.4,1.4-1.3,4-1.9,6H69.7l-1.9-5.7c0,0-0.6-2-2.8-2.3
					c-2.2-0.3-9.8,0-9.8,0s-2.4-0.2-3.1,2c-0.4,1.4-1.3,4-1.9,6H36.9c-2.6-0.6-2.1-2.9-2.1-2.9L35,86.5L36.8,70.8z"/>
				<path id="XMLID_665_" class="st15" d="M36.9,102.9c-2.1-0.5-2.3-2.1-2.2-3l0.2-13.4l1.9-15.7c0,0,0-0.1,0.1-0.1l75.9-0.1
					c0,0,0,0,0,0c0,0,0,0,0.1,0L123,84.5l4,2c3.3,1.1,3.8,5.3,3.8,5.4l-0.1,11c0,0,0,0.1-0.1,0.1h-6c0,0-0.1,0-0.1,0l-1.9-5.7
					c0,0-0.6-2-2.7-2.3c-2.1-0.3-9.7,0-9.8,0c0,0-2.3-0.1-3,2c-0.1,0.3-0.2,0.7-0.4,1.1c-0.4,1.4-1.1,3.3-1.5,4.9c0,0,0,0.1-0.1,0.1
					H69.7c0,0-0.1,0-0.1,0l-1.9-5.7c0,0-0.6-2-2.7-2.3c-2.1-0.3-9.7,0-9.8,0c0,0-2.3-0.1-3,2c-0.1,0.3-0.2,0.7-0.4,1.1
					c-0.4,1.4-1.1,3.3-1.5,4.9c0,0,0,0.1-0.1,0.1L36.9,102.9C36.9,102.9,36.9,102.9,36.9,102.9z M51.8,98c0.1-0.4,0.3-0.8,0.4-1.1
					c0.7-2.2,3.1-2.1,3.1-2.1c0.1,0,7.7-0.3,9.8,0c2.2,0.3,2.8,2.4,2.8,2.4l1.9,5.6h35.3c0.5-1.5,1.1-3.4,1.5-4.8
					c0.1-0.4,0.3-0.8,0.4-1.1c0.7-2.2,3.1-2.1,3.1-2.1c0.1,0,7.7-0.3,9.8,0c2.2,0.3,2.8,2.4,2.8,2.4l1.9,5.6h5.9l0.1-11
					c0,0-0.5-4.1-3.7-5.2l-4-2c0,0,0,0,0,0l-10.1-13.8l-75.8,0.1L35,86.5L34.9,100c0,0.1-0.5,2.3,2,2.8h13.4
					C50.7,101.2,51.3,99.3,51.8,98z"/>
			</g>
		</g>
		<g id="XMLID_661_" class="st16">
			<path id="XMLID_302_" class="st15" d="M35,86.5l1.2-10.1c1.9,1.4,4,2.7,6.1,3.8c6.3,3.4,13,5.7,19.9,7.5c6.7,1.8,13.6,3,20.4,3.9
				c9.1,1.3,18.3,2.4,27.5,2.6c5.2,0.2,10.3,0.1,15.5-0.4c1.7-0.1,3.4-0.3,5.1-0.5l-0.1,9.5h-6l-1.9-5.7c0,0-0.6-2-2.8-2.3
				c-2.2-0.3-9.8,0-9.8,0s-2.4-0.2-3.1,2c-0.4,1.4-1.3,4-1.9,6H69.7l-1.9-5.7c0,0-0.6-2-2.8-2.3c-2.2-0.3-9.8,0-9.8,0
				s-2.4-0.2-3.1,2c-0.4,1.4-1.3,4-1.9,6H36.9c-2.6-0.6-2.1-2.9-2.1-2.9L35,86.5z"/>
		</g>
		<g id="XMLID_658_">
			<path id="XMLID_301_" class="st17" d="M128.6,87.6c1.3,1.3,1.8,3.1,2,3.9H34.9l0-3.9H128.6z"/>
			<polygon id="XMLID_300_" class="st17" points="130.6,92.7 130.6,93.5 34.9,93.5 34.9,92.7 			"/>
		</g>
		<g id="XMLID_652_">
			<g id="XMLID_653_">
				<path id="XMLID_299_" class="st18" d="M99.9,73.2h9.3c0,0,1.7-0.2,2.8,1.6c1,1.8,6.5,9.8,6.5,9.8s0.7,1.2-0.6,1.2l-12,0.3
					c0,0-4.8-2-7.2-3.3c-0.4-0.2-0.3-1.1-0.3-1.3v-6.9C98.4,74.6,98.2,73.2,99.9,73.2z"/>
				<path id="XMLID_654_" class="st19" d="M105.8,86.3c0,0-4.8-2.1-7.2-3.3c-0.4-0.2-0.4-0.7-0.4-1.1c0-0.1,0-0.2,0-0.3l0-6.9
					c0,0-0.1-0.6,0.3-1c0.3-0.3,0.7-0.5,1.3-0.5l9.3,0c0,0,0.5,0,1,0.1c0.5,0.2,1.3,0.6,1.8,1.5c1,1.8,6.5,9.7,6.5,9.8
					c0,0,0.4,0.6,0.1,1c-0.1,0.2-0.4,0.3-0.8,0.3L105.8,86.3C105.9,86.3,105.9,86.3,105.8,86.3C105.9,86.3,105.9,86.3,105.8,86.3z
					 M109.2,73.3h-9.3c-0.6,0-1,0.1-1.2,0.4c-0.3,0.4-0.2,0.9-0.2,0.9l0,6.9c0,0.1,0,0.2,0,0.3c0,0.3,0,0.8,0.3,1
					c2.3,1.2,6.8,3.2,7.1,3.3l12-0.3c0.3,0,0.6-0.1,0.7-0.3c0.2-0.3-0.1-0.9-0.1-0.9c-0.1-0.1-5.5-8-6.5-9.8
					c-0.8-1.5-2.1-1.6-2.6-1.6C109.2,73.3,109.2,73.3,109.2,73.3z"/>
			</g>
		</g>
		<g id="XMLID_646_">
			<g id="XMLID_647_">
				<path id="XMLID_296_" class="st20" d="M100.4,73.6h8.8c0,0,1.6-0.2,2.6,1.6c1,1.7,6.2,9.3,6.2,9.3s0.7,1.2-0.5,1.2L106,85.9
					c0,0-4.6-1.9-6.8-3.2c-0.4-0.2-0.3-1-0.3-1.3v-6.6C98.9,74.9,98.7,73.6,100.4,73.6z"/>
				<path id="XMLID_648_" class="st19" d="M106,86c0,0-4.6-2-6.8-3.2c-0.3-0.2-0.3-0.7-0.3-1.1c0-0.1,0-0.2,0-0.3l0-6.6
					c0,0-0.1-0.5,0.3-0.9c0.3-0.3,0.7-0.5,1.3-0.5l8.8,0c0,0,0.4,0,1,0.1c0.5,0.2,1.2,0.5,1.7,1.5c1,1.7,6.1,9.2,6.2,9.3
					c0,0,0.4,0.6,0.1,1c-0.1,0.2-0.4,0.3-0.7,0.3L106,86C106,86,106,86,106,86C106,86,106,86,106,86z M109.2,73.7h-8.8
					c-0.5,0-0.9,0.1-1.2,0.4c-0.3,0.4-0.2,0.8-0.2,0.8l0,6.6c0,0.1,0,0.2,0,0.3c0,0.3,0,0.8,0.3,0.9c2.1,1.2,6.5,3,6.8,3.1l11.4-0.3
					c0.3,0,0.5-0.1,0.6-0.2c0.2-0.3-0.1-0.8-0.1-0.8c-0.1-0.1-5.2-7.6-6.2-9.3c-0.8-1.4-2-1.5-2.4-1.5
					C109.2,73.6,109.2,73.7,109.2,73.7z"/>
			</g>
		</g>
		<g id="XMLID_644_" class="st21">
			<path id="XMLID_293_" class="st20" d="M116.1,81.8c-1.8-0.8-3.7-1.4-5.7-1.9c-1.9-0.5-3.9-0.9-5.9-1.2c-1.9-0.3-3.8-0.5-5.6-0.6
				v-3.2c0,0-0.2-1.3,1.5-1.3h8.8c0,0,1.6-0.2,2.6,1.6C112.4,76.2,114.5,79.4,116.1,81.8C116.1,81.8,116.1,81.8,116.1,81.8z"/>
		</g>
		<g id="XMLID_635_">
			<g id="XMLID_639_">
				<path id="XMLID_292_" class="st22" d="M124.5,101.1h6.3c0,0,0.5,0,0.5,1.1c0,0,0.1,1.4,0,1.6c-0.1,0.2-1.8,2.7-1.8,2.7
					s-0.4,0.7-1.2,0.7h-4.2c0,0-0.7-0.1-0.7-1.1c0-1,0-3.9,0-3.9S123.3,100.8,124.5,101.1z"/>
				<path id="XMLID_640_" class="st11" d="M123.6,106.9c-0.2-0.2-0.3-0.5-0.3-0.9v-3.9c0,0-0.1-0.6,0.2-0.9c0.2-0.2,0.4-0.3,0.7-0.3
					c0.1,0,0.1-0.1,0.2-0.1h6.3c0,0,0.6,0.1,0.6,1.3c0,0.2,0.1,1.6-0.1,1.8c-0.1,0.2-1.8,2.6-1.8,2.6c0,0-0.4,0.7-1.3,0.7h-4.1
					c0,0,0-0.1,0-0.1C123.9,107.1,123.8,107.1,123.6,106.9z M123.7,101.4c-0.3,0.3-0.3,0.7-0.3,0.7v3.9c0,0.3,0.1,0.7,0.3,0.8
					c0.1,0.1,0.3,0.2,0.4,0.2c0,0,0,0.1,0,0.1h4.2c0.8,0,1.1-0.7,1.2-0.7c0.1-0.1,1.7-2.5,1.8-2.7c0.1-0.1,0.1-0.9,0-1.6
					c0-1-0.4-1.1-0.4-1.1h-6.3c-0.1,0-0.1,0-0.2,0C124,101.2,123.8,101.3,123.7,101.4z"/>
			</g>
			<path id="XMLID_289_" class="st22" d="M124.5,101.1h0.3c-0.2,0.1-0.4,0.2-0.4,0.5c-0.1,0.4-0.1,0.8-0.1,1.2c0,0.4,0,1.3,0.6,1.1
				h6.3c-0.3,0.4-1.8,2.6-1.8,2.6s-0.4,0.5-1.2,0.6h-4.2c0,0-0.7,0-0.7-1c0-1,0-3.9,0-3.9S123.3,101,124.5,101.1z"/>
			<path id="XMLID_288_" class="st22" d="M124.1,101.1c-0.3,0.3-0.3,0.7-0.4,1.2c0,0.6-0.1,1.2-0.1,1.8c0,0.5,0.1,1.1,0.4,1.6
				c0.2,0.4,0.7,0.6,1.1,0.7c0.5,0.1,1.1,0.1,1.6,0c0.6,0,1.3-0.1,1.9-0.3c0.6-0.2,1.1-0.6,1.6-1.1c0.3-0.3,0.6-0.7,0.9-1
				c-0.5,0.7-1.7,2.3-1.7,2.3s-0.4,0.5-1.2,0.6h-4.2c0,0-0.7,0-0.7-1c0-1,0-3.9,0-3.9S123.3,101.3,124.1,101.1z"/>
			<path id="XMLID_287_" class="st22" d="M131.1,102.8c0,0,0-1.4-0.4-1.4h-5.5l4.9,0.4C130.1,101.8,131,102,131.1,102.8z"/>
		</g>
		<g id="XMLID_615_">
			<g id="XMLID_630_">
				<path id="XMLID_286_" class="st23" d="M114.9,81.1c0,0,1.7,0.4,2,1.1c0.2,0.7,0.1,3.2,0.1,3.2s-0.1,0.6-0.8,0.6h-1.3
					c0,0-0.4,0.1-0.4-0.3c0-0.4,0-3.7,0-3.7S114.4,80.9,114.9,81.1z"/>
				<path id="XMLID_631_" class="st24" d="M114.4,85.8c0-0.4,0-3.6,0-3.7c0,0,0-0.7,0.2-0.9c0.1-0.1,0.1-0.1,0.2-0.1
					c0,0,0.1,0,0.1,0c0.1,0,1.8,0.4,2,1.1c0.2,0.7,0.1,3.1,0.1,3.2c0,0-0.1,0.6-0.8,0.6h-1.3c0,0-0.1,0.1-0.1,0.1v0
					C114.5,86.2,114.4,86,114.4,85.8z M114.7,81.2c-0.2,0.2-0.2,0.7-0.2,0.8c0,0,0,3.3,0,3.7c0,0.2,0,0.3,0.3,0.3v0l0.1,0
					c0,0,0,0,0,0h1.3c0.6,0,0.7-0.6,0.7-0.6c0,0,0.1-2.5-0.1-3.2c-0.2-0.7-1.9-1.1-1.9-1.1c0,0-0.1,0-0.1,0
					C114.8,81.2,114.7,81.2,114.7,81.2z"/>
			</g>
			<g id="XMLID_617_">
				<g id="XMLID_625_">
					<path id="XMLID_283_" class="st23" d="M116.6,84.7l1.8,1.5c0,0,0.3,0.4,0,0.6c0,0-0.2,0.2-0.4,0.1c-0.2-0.1-2.2-0.9-2.2-0.9
						L116.6,84.7z"/>
					<path id="XMLID_626_" class="st24" d="M117.9,86.9c-0.2-0.1-2.1-0.9-2.2-0.9c0,0,0,0,0,0c0,0,0,0,0-0.1l0.8-1.3c0,0,0,0,0,0
						c0,0,0,0,0.1,0l1.8,1.5c0,0,0,0,0,0c0,0,0.2,0.2,0.1,0.5c0,0.1-0.1,0.2-0.2,0.3c0,0-0.2,0.1-0.4,0.1
						C118,86.9,118,86.9,117.9,86.9z M116.6,84.8l-0.7,1.1c0.4,0.2,1.9,0.8,2.1,0.9c0,0,0.1,0,0.1,0c0.1,0,0.3-0.1,0.3-0.1
						c0.1-0.1,0.1-0.2,0.1-0.3c0-0.1-0.1-0.2-0.1-0.2L116.6,84.8z"/>
				</g>
				<g id="XMLID_618_">
					<g id="XMLID_620_">
						<path id="XMLID_280_" class="st23" d="M114.9,81.1c0,0,1.7,0.4,2,1.1c0.2,0.7,0.1,3.2,0.1,3.2s-0.1,0.6-0.8,0.6h-1.3
							c0,0-0.4,0.1-0.4-0.3c0-0.4,0-3.7,0-3.7S114.4,80.9,114.9,81.1z"/>
						<path id="XMLID_621_" class="st24" d="M114.4,85.8c0-0.4,0-3.6,0-3.7c0,0,0-0.7,0.2-0.9c0.1-0.1,0.1-0.1,0.2-0.1
							c0,0,0.1,0,0.1,0c0.1,0,1.8,0.4,2,1.1c0.2,0.7,0.1,3.1,0.1,3.2c0,0-0.1,0.6-0.8,0.6h-1.3c0,0-0.1,0.1-0.1,0.1v0
							C114.5,86.2,114.4,86,114.4,85.8z M114.7,81.2c-0.2,0.2-0.2,0.7-0.2,0.8c0,0,0,3.3,0,3.7c0,0.2,0,0.3,0.3,0.3v0l0.1,0
							c0,0,0,0,0,0h1.3c0.6,0,0.7-0.6,0.7-0.6c0,0,0.1-2.5-0.1-3.2c-0.2-0.7-1.9-1.1-1.9-1.1c0,0-0.1,0-0.1,0
							C114.8,81.2,114.7,81.2,114.7,81.2z"/>
					</g>
					<path id="XMLID_277_" class="st25" d="M115.3,81.6c0,0,1.2,0.3,1.4,0.9c0.2,0.6,0.1,2.7,0.1,2.7s-0.1,0.6-0.5,0.6h-0.9
						c0,0-0.3-0.1-0.3-0.4c0-0.3,0-3,0-3S114.9,81.4,115.3,81.6z"/>
				</g>
			</g>
			<path id="XMLID_276_" class="st10" d="M116,82c0,0,0.7,0.3,0.6,0.8c0,0.6,0,1.4,0,1.4S116.5,82.5,116,82z"/>
		</g>
		<g id="XMLID_610_">
			<path id="XMLID_275_" class="st26" d="M98.1,91.3c0,0.5,0.4,0.9,0.9,0.9h0.2c0.5,0,0.9-0.4,0.9-0.9v-3c0-0.5-0.4-0.9-0.9-0.9
				h-0.2c-0.5,0-0.9,0.4-0.9,0.9V91.3z"/>
			<path id="XMLID_274_" class="st27" d="M98.4,90.9c0,0.4,0.3,0.7,0.7,0.7l0,0c0.4,0,0.7-0.3,0.7-0.7v-2.3c0-0.4-0.3-0.7-0.7-0.7
				l0,0c-0.4,0-0.7,0.3-0.7,0.7V90.9z"/>
			<path id="XMLID_273_" class="st28" d="M98.7,87.3c0,0,0.1,0,0.1,0c0.5,0,0.9,0.4,0.9,0.9v3c0,0.5-0.4,0.9-0.9,0.9
				c0,0-0.1,0-0.1,0V87.3z"/>
			<path id="XMLID_272_" class="st3" d="M99.1,87.7C99.2,87.7,99.2,87.7,99.1,87.7c0.4,0,0.6,0.2,0.6,0.5v1.6c0,0.3-0.2,0.5-0.5,0.5
				c0,0,0,0-0.1,0V87.7z"/>
		</g>
		<g id="XMLID_605_">
			<path id="XMLID_271_" class="st26" d="M91.1,91.3c0,0.5,0.4,0.9,0.9,0.9h0.2c0.5,0,0.9-0.4,0.9-0.9v-3c0-0.5-0.4-0.9-0.9-0.9
				h-0.2c-0.5,0-0.9,0.4-0.9,0.9V91.3z"/>
			<path id="XMLID_270_" class="st27" d="M91.4,90.9c0,0.4,0.3,0.7,0.7,0.7l0,0c0.4,0,0.7-0.3,0.7-0.7v-2.3c0-0.4-0.3-0.7-0.7-0.7
				l0,0c-0.4,0-0.7,0.3-0.7,0.7V90.9z"/>
			<path id="XMLID_269_" class="st28" d="M91.7,87.3c0,0,0.1,0,0.1,0c0.5,0,0.9,0.4,0.9,0.9v3c0,0.5-0.4,0.9-0.9,0.9
				c0,0-0.1,0-0.1,0V87.3z"/>
			<path id="XMLID_268_" class="st3" d="M92.2,87.7C92.2,87.7,92.2,87.7,92.2,87.7c0.4,0,0.6,0.2,0.6,0.5v1.6c0,0.3-0.2,0.5-0.5,0.5
				c0,0,0,0-0.1,0V87.7z"/>
		</g>
		<g id="XMLID_559_">
			<g id="XMLID_561_">
				<g id="XMLID_600_">
					<circle id="XMLID_267_" class="st29" cx="114.4" cy="103.6" r="8.1"/>
					<path id="XMLID_601_" class="st30" d="M106.2,103.6c0-4.5,3.7-8.2,8.2-8.2c4.5,0,8.2,3.7,8.2,8.2s-3.7,8.2-8.2,8.2
						C109.9,111.8,106.2,108.1,106.2,103.6z M106.3,103.6c0,4.4,3.6,8.1,8.1,8.1s8.1-3.6,8.1-8.1c0-4.4-3.6-8.1-8.1-8.1
						S106.3,99.1,106.3,103.6z"/>
				</g>
				<path id="XMLID_597_" class="st31" d="M106.2,103.6c0,4.5,3.6,8.1,8.1,8.1c4.5,0,8.1-3.6,8.1-8.1c0-4.5-3.6-8.1-8.1-8.1
					C109.9,95.4,106.2,99.1,106.2,103.6z M109.6,98c0.1-1.2,5.6-3.8,9.7-0.2c0,0,3.4,2.5,2.5,6.9c0,0-0.3,2.3-1.8,3.8
					c0,0-0.6,0.5-1.1,0.1c-0.5-0.3-0.4-0.9,0-1.6c0.4-0.7,2.3-2.9,0.9-6.2c-1.4-3.3-5.9-4.1-8.6-2.5C111.3,98.4,109.6,99.2,109.6,98
					z"/>
				<g id="XMLID_562_">
					<ellipse id="XMLID_262_" class="st32" cx="114.4" cy="103.6" rx="5.4" ry="5.4"/>
					<g id="XMLID_591_">
						<ellipse id="XMLID_261_" class="st33" cx="114.4" cy="103.6" rx="5.1" ry="5.2"/>
						<path id="XMLID_592_" class="st34" d="M109.2,103.6c0-2.9,2.3-5.3,5.2-5.3c2.9,0,5.2,2.4,5.2,5.3c0,2.9-2.3,5.3-5.2,5.3
							C111.5,108.8,109.2,106.5,109.2,103.6z M109.3,103.6c0,2.8,2.3,5.1,5.1,5.1c2.8,0,5.1-2.3,5.1-5.1c0-2.8-2.3-5.1-5.1-5.1
							C111.6,98.4,109.3,100.7,109.3,103.6z"/>
					</g>
					<g id="XMLID_586_">
						<ellipse id="XMLID_258_" class="st33" cx="114.4" cy="103.6" rx="4.8" ry="4.8"/>
						<path id="XMLID_587_" class="st34" d="M109.5,103.6c0-2.7,2.2-4.9,4.9-4.9c2.7,0,4.9,2.2,4.9,4.9c0,2.7-2.2,4.9-4.9,4.9
							C111.7,108.5,109.5,106.3,109.5,103.6z M109.6,103.6c0,2.6,2.1,4.8,4.7,4.8c2.6,0,4.7-2.1,4.7-4.8c0-2.6-2.1-4.8-4.7-4.8
							C111.8,98.8,109.6,100.9,109.6,103.6z"/>
					</g>
					<g id="XMLID_581_">
						<ellipse id="XMLID_255_" class="st35" cx="114.4" cy="103.6" rx="4.2" ry="4.2"/>
						<path id="XMLID_582_" class="st36" d="M110.1,103.6c0-2.4,1.9-4.3,4.3-4.3c2.4,0,4.3,1.9,4.3,4.3c0,2.4-1.9,4.3-4.3,4.3
							C112,107.9,110.1,105.9,110.1,103.6z M110.2,103.6c0,2.3,1.9,4.2,4.2,4.2c2.3,0,4.2-1.9,4.2-4.2c0-2.3-1.9-4.2-4.2-4.2
							C112.1,99.4,110.2,101.3,110.2,103.6z"/>
					</g>
					<ellipse id="XMLID_252_" cx="114.4" cy="103.6" rx="3.5" ry="3.4"/>
					<g id="XMLID_575_">
						<path id="XMLID_251_" class="st33" d="M112.7,105c-0.8,0.6-1.4,1.2-1.9,1.9c-0.3-0.3-0.5-0.6-0.7-0.9c1.8-0.7,4.1-2.1,2.5-3.5
							c-0.8-0.7-1.7-1.1-2.4-1.4c0.1-0.2,0.3-0.5,0.5-0.7c0.1-0.1,0.2-0.2,0.3-0.4c1.1,1.6,2.8,3.5,3.8,1.6c0.5-1,0.7-1.9,0.8-2.8
							c0.3,0.1,0.6,0.2,0.9,0.4c-1.1,1.6-2.3,4-0.2,4.2c1,0.1,1.9,0,2.7-0.2c0,0.4,0,0.7-0.1,1.1c-1.8-0.6-4.3-1.1-4,1
							c0.2,1.1,0.5,1.9,0.9,2.7c-0.2,0.1-0.4,0.1-0.6,0.2C115.2,106.3,114.5,103.7,112.7,105z"/>
						<path id="XMLID_576_" class="st34" d="M115.4,108.3C115.4,108.3,115.4,108.3,115.4,108.3c-0.2-1.4-0.6-3.1-1.4-3.5
							c-0.3-0.2-0.7-0.1-1.2,0.2c-0.7,0.5-1.3,1.1-1.8,1.8c0,0,0,0-0.1,0c0,0,0,0-0.1,0c-0.3-0.3-0.5-0.6-0.7-0.9c0,0,0,0,0-0.1
							c0,0,0,0,0,0c1.3-0.5,2.8-1.4,3-2.3c0.1-0.4-0.1-0.7-0.5-1.1c-0.7-0.6-1.5-1.1-2.4-1.4c0,0,0,0,0,0c0,0,0,0,0-0.1
							c0.1-0.2,0.3-0.5,0.5-0.7c0.1-0.1,0.2-0.2,0.3-0.4c0,0,0,0,0.1,0c0,0,0,0,0.1,0c0.8,1.1,1.9,2.4,2.8,2.4
							c0.4,0,0.7-0.3,0.9-0.8c0.4-0.8,0.7-1.8,0.8-2.7c0,0,0,0,0-0.1c0,0,0,0,0.1,0c0.3,0.1,0.6,0.2,0.9,0.4c0,0,0,0,0,0
							c0,0,0,0,0,0.1c-0.8,1.1-1.6,2.7-1.2,3.5c0.2,0.3,0.5,0.5,1,0.6c0.9,0.1,1.8,0.1,2.7-0.2c0,0,0,0,0.1,0c0,0,0,0,0,0.1
							c0,0.4,0,0.7-0.1,1.1c0,0,0,0,0,0c0,0,0,0-0.1,0c-1.2-0.4-2.9-0.8-3.5-0.2c-0.3,0.2-0.4,0.6-0.3,1.2c0.1,0.9,0.4,1.8,0.9,2.6
							c0,0,0,0,0,0.1c0,0,0,0,0,0C115.9,108.2,115.7,108.3,115.4,108.3C115.4,108.3,115.4,108.3,115.4,108.3
							C115.4,108.3,115.4,108.3,115.4,108.3z M115.1,105.4c-0.1-0.6,0-1,0.4-1.3c0.7-0.6,2.3-0.2,3.6,0.2c0-0.3,0.1-0.6,0.1-0.9
							c-0.9,0.2-1.8,0.3-2.7,0.2c-0.6-0.1-1-0.3-1.1-0.7c-0.4-0.9,0.4-2.4,1.2-3.6c-0.2-0.1-0.5-0.2-0.7-0.3c-0.1,1-0.4,1.9-0.8,2.7
							c-0.3,0.5-0.6,0.8-1.1,0.8c-1,0.1-2.1-1.2-2.8-2.4c-0.1,0.1-0.2,0.2-0.3,0.3c-0.2,0.2-0.3,0.4-0.4,0.6
							c0.9,0.3,1.7,0.8,2.4,1.3c0.5,0.4,0.7,0.8,0.6,1.2c-0.2,1-1.7,1.8-3,2.4c0.2,0.3,0.4,0.5,0.6,0.8c0.5-0.7,1.1-1.3,1.8-1.8l0,0
							c0.5-0.3,0.9-0.4,1.3-0.3c0.9,0.4,1.3,2.1,1.5,3.5c0.2,0,0.3-0.1,0.5-0.1C115.5,107.2,115.2,106.3,115.1,105.4z"/>
					</g>
					<g id="XMLID_570_">
						<path id="XMLID_248_" class="st33" d="M112.2,103.8c-1,0-1.8,0.2-2.6,0.5c-0.1-0.4-0.1-0.8,0-1.1c1.9,0.4,4.6,0.7,4-1.4
							c-0.3-1-0.7-1.9-1.2-2.5c0.3-0.1,0.5-0.2,0.8-0.3c0.2,0,0.3-0.1,0.5-0.1c0,1.9,0.3,4.5,2.2,3.5c1-0.5,1.7-1.1,2.3-1.8
							c0.2,0.3,0.4,0.5,0.5,0.8c-1.8,0.7-4.2,1.9-2.5,3.4c0.8,0.7,1.6,1.1,2.3,1.4c-0.2,0.3-0.4,0.6-0.7,0.8
							c-1.1-1.6-2.8-3.4-3.8-1.5c-0.5,0.9-0.7,1.9-0.8,2.7c-0.2-0.1-0.4-0.1-0.6-0.2C113.5,106.3,114.4,103.8,112.2,103.8z"/>
						<path id="XMLID_571_" class="st34" d="M113.2,108.3c-0.2-0.1-0.4-0.1-0.7-0.2c0,0,0,0,0,0c0,0,0,0,0-0.1
							c0.6-1.2,1.3-2.8,0.8-3.6c-0.2-0.3-0.6-0.5-1.1-0.5c-0.9,0-1.7,0.1-2.6,0.4c0,0,0,0-0.1,0c0,0,0,0,0,0c-0.1-0.4-0.1-0.8,0-1.2
							c0,0,0,0,0,0c0,0,0,0,0.1,0c1.3,0.3,3.1,0.5,3.7-0.1c0.3-0.3,0.3-0.7,0.2-1.2c-0.2-0.9-0.6-1.7-1.2-2.5c0,0,0,0,0-0.1
							c0,0,0,0,0,0c0.3-0.1,0.5-0.2,0.8-0.3c0.2,0,0.3-0.1,0.5-0.1c0,0,0,0,0.1,0c0,0,0,0,0,0.1c0,1.4,0.1,3.1,0.9,3.5
							c0.3,0.2,0.7,0.2,1.2-0.1c0.8-0.4,1.6-1,2.2-1.8c0,0,0,0,0.1,0c0,0,0,0,0.1,0c0.2,0.3,0.4,0.5,0.5,0.8c0,0,0,0,0,0.1
							c0,0,0,0,0,0c-1.3,0.5-2.8,1.2-3,2.1c-0.1,0.4,0.1,0.7,0.5,1.1c0.7,0.6,1.4,1.1,2.3,1.4c0,0,0,0,0,0c0,0,0,0,0,0.1
							c-0.2,0.3-0.4,0.6-0.7,0.8c0,0,0,0-0.1,0c0,0,0,0-0.1,0c-0.8-1.1-1.9-2.3-2.8-2.3c-0.4,0-0.7,0.3-0.9,0.8
							C113.6,106.4,113.4,107.3,113.2,108.3C113.3,108.3,113.3,108.3,113.2,108.3C113.2,108.3,113.2,108.3,113.2,108.3
							C113.2,108.3,113.2,108.3,113.2,108.3z M117.8,106.9c0.2-0.2,0.4-0.4,0.6-0.7c-0.8-0.3-1.6-0.8-2.3-1.4
							c-0.4-0.4-0.6-0.8-0.5-1.2c0.2-1,1.7-1.7,3-2.2c-0.1-0.2-0.3-0.5-0.4-0.7c-0.6,0.7-1.4,1.3-2.2,1.7c-0.5,0.3-1,0.3-1.3,0.1
							c-0.8-0.5-1-2.2-1-3.6c-0.1,0-0.3,0.1-0.4,0.1c-0.2,0.1-0.5,0.1-0.7,0.2c0.5,0.8,0.9,1.6,1.2,2.5c0.2,0.6,0.1,1-0.2,1.3
							c-0.7,0.7-2.4,0.5-3.8,0.2c0,0.3,0,0.6,0,1c0.8-0.3,1.7-0.4,2.5-0.4h0c0.6,0,1,0.2,1.2,0.6c0.5,0.8-0.1,2.5-0.8,3.7
							c0.2,0.1,0.3,0.1,0.5,0.2c0.1-0.9,0.4-1.8,0.8-2.7c0.3-0.5,0.6-0.8,1-0.9c0,0,0.1,0,0.1,0C116,104.6,117,105.8,117.8,106.9z"
							/>
					</g>
					<g id="XMLID_565_">
						<ellipse id="XMLID_245_" class="st33" cx="114.4" cy="103.6" rx="1" ry="1"/>
						<path id="XMLID_566_" class="st34" d="M113.3,103.6c0-0.6,0.5-1.1,1.1-1.1c0.6,0,1.1,0.5,1.1,1.1c0,0.6-0.5,1.1-1.1,1.1
							C113.8,104.7,113.3,104.2,113.3,103.6z M113.4,103.6c0,0.5,0.4,1,0.9,1c0.5,0,0.9-0.4,0.9-1c0-0.5-0.4-1-0.9-1
							C113.8,102.6,113.4,103,113.4,103.6z"/>
					</g>
					<ellipse id="XMLID_242_" class="st34" cx="114.4" cy="103.6" rx="0.9" ry="0.9"/>
					<ellipse id="XMLID_241_" class="st37" cx="114.4" cy="103.6" rx="0.8" ry="0.8"/>
				</g>
			</g>
			<path id="XMLID_240_" class="st38" d="M117.1,96.7c0,0,3.8,1.4,4.6,5.2c0,0,0.1,0.5-0.2,0.7c0,0-0.2,0.2-0.3-0.2
				c-0.1-0.4-0.8-4.7-6-5.6c0,0-0.9,0-0.9-0.2C114.3,96.3,115.6,96.1,117.1,96.7z"/>
		</g>
		<g id="XMLID_513_">
			<g id="XMLID_515_">
				<g id="XMLID_554_">
					<circle id="XMLID_239_" class="st29" cx="60" cy="103.6" r="8.1"/>
					<path id="XMLID_555_" class="st30" d="M51.8,103.6c0-4.5,3.7-8.2,8.2-8.2c4.5,0,8.2,3.7,8.2,8.2s-3.7,8.2-8.2,8.2
						C55.5,111.8,51.8,108.1,51.8,103.6z M51.9,103.6c0,4.4,3.6,8.1,8.1,8.1c4.4,0,8.1-3.6,8.1-8.1c0-4.4-3.6-8.1-8.1-8.1
						C55.5,95.5,51.9,99.1,51.9,103.6z"/>
				</g>
				<path id="XMLID_551_" class="st31" d="M51.8,103.6c0,4.5,3.6,8.1,8.1,8.1c4.5,0,8.1-3.6,8.1-8.1c0-4.5-3.6-8.1-8.1-8.1
					C55.5,95.4,51.8,99.1,51.8,103.6z M55.2,98c0.1-1.2,5.6-3.8,9.7-0.2c0,0,3.4,2.5,2.5,6.9c0,0-0.3,2.3-1.8,3.8
					c0,0-0.6,0.5-1.1,0.1c-0.5-0.3-0.4-0.9,0-1.6c0.4-0.7,2.3-2.9,0.9-6.2c-1.4-3.3-5.9-4.1-8.6-2.5C56.9,98.4,55.2,99.2,55.2,98z"
					/>
				<g id="XMLID_516_">
					<ellipse id="XMLID_234_" class="st32" cx="60" cy="103.6" rx="5.4" ry="5.4"/>
					<g id="XMLID_545_">
						<ellipse id="XMLID_233_" class="st33" cx="60" cy="103.6" rx="5.1" ry="5.2"/>
						<path id="XMLID_546_" class="st34" d="M54.7,103.6c0-2.9,2.3-5.3,5.2-5.3c2.9,0,5.2,2.4,5.2,5.3c0,2.9-2.3,5.3-5.2,5.3
							C57.1,108.8,54.7,106.5,54.7,103.6z M54.9,103.6c0,2.8,2.3,5.1,5.1,5.1c2.8,0,5.1-2.3,5.1-5.1c0-2.8-2.3-5.1-5.1-5.1
							C57.2,98.4,54.9,100.7,54.9,103.6z"/>
					</g>
					<g id="XMLID_540_">
						<ellipse id="XMLID_230_" class="st33" cx="60" cy="103.6" rx="4.8" ry="4.8"/>
						<path id="XMLID_541_" class="st34" d="M55.1,103.6c0-2.7,2.2-4.9,4.9-4.9c2.7,0,4.9,2.2,4.9,4.9c0,2.7-2.2,4.9-4.9,4.9
							C57.3,108.5,55.1,106.3,55.1,103.6z M55.2,103.6c0,2.6,2.1,4.8,4.7,4.8c2.6,0,4.7-2.1,4.7-4.8c0-2.6-2.1-4.8-4.7-4.8
							C57.4,98.8,55.2,100.9,55.2,103.6z"/>
					</g>
					<g id="XMLID_535_">
						<ellipse id="XMLID_227_" class="st35" cx="60" cy="103.6" rx="4.2" ry="4.2"/>
						<path id="XMLID_536_" class="st36" d="M55.7,103.6c0-2.4,1.9-4.3,4.3-4.3c2.4,0,4.3,1.9,4.3,4.3c0,2.4-1.9,4.3-4.3,4.3
							C57.6,107.9,55.7,105.9,55.7,103.6z M55.8,103.6c0,2.3,1.9,4.2,4.2,4.2c2.3,0,4.2-1.9,4.2-4.2c0-2.3-1.9-4.2-4.2-4.2
							C57.7,99.4,55.8,101.3,55.8,103.6z"/>
					</g>
					<ellipse id="XMLID_224_" cx="60" cy="103.6" rx="3.5" ry="3.4"/>
					<g id="XMLID_529_">
						<path id="XMLID_223_" class="st33" d="M58.3,105c-0.8,0.6-1.4,1.2-1.9,1.9c-0.3-0.3-0.5-0.6-0.7-0.9c1.8-0.7,4.1-2.1,2.5-3.5
							c-0.8-0.7-1.7-1.1-2.4-1.4c0.1-0.2,0.3-0.5,0.5-0.7c0.1-0.1,0.2-0.2,0.3-0.4c1.1,1.6,2.8,3.5,3.8,1.6c0.5-1,0.7-1.9,0.8-2.8
							c0.3,0.1,0.6,0.2,0.9,0.4c-1.1,1.6-2.3,4-0.2,4.2c1,0.1,1.9,0,2.7-0.2c0,0.4,0,0.7-0.1,1.1c-1.8-0.6-4.3-1.1-4,1
							c0.2,1.1,0.5,1.9,0.9,2.7c-0.2,0.1-0.4,0.1-0.6,0.2C60.8,106.3,60.1,103.7,58.3,105z"/>
						<path id="XMLID_530_" class="st34" d="M61,108.3C61,108.3,60.9,108.3,61,108.3c-0.2-1.4-0.6-3.1-1.4-3.5
							c-0.3-0.2-0.7-0.1-1.2,0.2c-0.7,0.5-1.3,1.1-1.8,1.8c0,0,0,0-0.1,0c0,0,0,0-0.1,0c-0.3-0.3-0.5-0.6-0.7-0.9c0,0,0,0,0-0.1
							c0,0,0,0,0,0c1.3-0.5,2.8-1.4,3-2.3c0.1-0.4-0.1-0.7-0.5-1.1c-0.7-0.6-1.5-1.1-2.4-1.4c0,0,0,0,0,0c0,0,0,0,0-0.1
							c0.1-0.2,0.3-0.5,0.5-0.7c0.1-0.1,0.2-0.2,0.3-0.4c0,0,0,0,0.1,0c0,0,0,0,0.1,0c0.8,1.1,1.9,2.4,2.8,2.4
							c0.4,0,0.7-0.3,0.9-0.8c0.4-0.8,0.7-1.8,0.8-2.7c0,0,0,0,0-0.1c0,0,0,0,0.1,0c0.3,0.1,0.6,0.2,0.9,0.4c0,0,0,0,0,0
							c0,0,0,0,0,0.1c-0.8,1.1-1.6,2.7-1.2,3.5c0.2,0.3,0.5,0.5,1,0.6c0.9,0.1,1.8,0.1,2.7-0.2c0,0,0,0,0.1,0c0,0,0,0,0,0.1
							c0,0.4,0,0.7-0.1,1.1c0,0,0,0,0,0c0,0,0,0-0.1,0c-1.2-0.4-2.9-0.8-3.5-0.2c-0.3,0.2-0.4,0.6-0.3,1.2c0.1,0.9,0.4,1.8,0.9,2.6
							c0,0,0,0,0,0.1c0,0,0,0,0,0C61.5,108.2,61.2,108.3,61,108.3C61,108.3,61,108.3,61,108.3C61,108.3,61,108.3,61,108.3z
							 M60.7,105.4c-0.1-0.6,0-1,0.4-1.3c0.7-0.6,2.3-0.2,3.6,0.2c0-0.3,0.1-0.6,0.1-0.9c-0.9,0.2-1.8,0.3-2.7,0.2
							c-0.6-0.1-1-0.3-1.1-0.7c-0.4-0.9,0.4-2.4,1.2-3.6c-0.2-0.1-0.5-0.2-0.7-0.3c-0.1,1-0.4,1.9-0.8,2.7c-0.3,0.5-0.6,0.8-1.1,0.8
							c-1,0.1-2.1-1.2-2.8-2.4c-0.1,0.1-0.2,0.2-0.3,0.3c-0.2,0.2-0.3,0.4-0.4,0.6c0.9,0.3,1.7,0.8,2.4,1.3c0.5,0.4,0.7,0.8,0.6,1.2
							c-0.2,1-1.7,1.8-3,2.4c0.2,0.3,0.4,0.5,0.6,0.8c0.5-0.7,1.1-1.3,1.8-1.8l0,0c0.5-0.3,0.9-0.4,1.3-0.3c0.9,0.4,1.3,2.1,1.5,3.5
							c0.2,0,0.3-0.1,0.5-0.1C61.1,107.2,60.8,106.3,60.7,105.4z"/>
					</g>
					<g id="XMLID_524_">
						<path id="XMLID_220_" class="st33" d="M57.8,103.8c-1,0-1.8,0.2-2.6,0.5c-0.1-0.4-0.1-0.8,0-1.1c1.9,0.4,4.6,0.7,4-1.4
							c-0.3-1-0.7-1.9-1.2-2.5c0.3-0.1,0.5-0.2,0.8-0.3c0.2,0,0.3-0.1,0.5-0.1c0,1.9,0.3,4.5,2.2,3.5c1-0.5,1.7-1.1,2.3-1.8
							c0.2,0.3,0.4,0.5,0.5,0.8c-1.8,0.7-4.2,1.9-2.5,3.4c0.8,0.7,1.6,1.1,2.3,1.4c-0.2,0.3-0.4,0.6-0.7,0.8
							c-1.1-1.6-2.8-3.4-3.8-1.5c-0.5,0.9-0.7,1.9-0.8,2.7c-0.2-0.1-0.4-0.1-0.6-0.2C59.1,106.3,60,103.8,57.8,103.8z"/>
						<path id="XMLID_525_" class="st34" d="M58.8,108.3c-0.2-0.1-0.4-0.1-0.7-0.2c0,0,0,0,0,0c0,0,0,0,0-0.1
							c0.6-1.2,1.3-2.8,0.8-3.6c-0.2-0.3-0.6-0.5-1.1-0.5c-0.9,0-1.7,0.1-2.6,0.4c0,0,0,0-0.1,0c0,0,0,0,0,0c-0.1-0.4-0.1-0.8,0-1.2
							c0,0,0,0,0,0c0,0,0,0,0.1,0c1.3,0.3,3.1,0.5,3.7-0.1c0.3-0.3,0.3-0.7,0.2-1.2c-0.2-0.9-0.6-1.7-1.2-2.5c0,0,0,0,0-0.1
							c0,0,0,0,0,0c0.3-0.1,0.5-0.2,0.8-0.3c0.2,0,0.3-0.1,0.5-0.1c0,0,0,0,0.1,0c0,0,0,0,0,0.1c0,1.4,0.1,3.1,0.9,3.5
							c0.3,0.2,0.7,0.2,1.2-0.1c0.8-0.4,1.6-1,2.2-1.8c0,0,0,0,0.1,0c0,0,0,0,0.1,0c0.2,0.3,0.4,0.5,0.5,0.8c0,0,0,0,0,0.1
							c0,0,0,0,0,0c-1.3,0.5-2.8,1.2-3,2.1c-0.1,0.4,0.1,0.7,0.5,1.1c0.7,0.6,1.4,1.1,2.3,1.4c0,0,0,0,0,0c0,0,0,0,0,0.1
							c-0.2,0.3-0.4,0.6-0.7,0.8c0,0,0,0-0.1,0c0,0,0,0-0.1,0c-0.8-1.1-1.9-2.3-2.8-2.3c-0.4,0-0.7,0.3-0.9,0.8
							C59.2,106.4,59,107.3,58.8,108.3C58.9,108.3,58.9,108.3,58.8,108.3C58.8,108.3,58.8,108.3,58.8,108.3
							C58.8,108.3,58.8,108.3,58.8,108.3z M63.4,106.9c0.2-0.2,0.4-0.4,0.6-0.7c-0.8-0.3-1.6-0.8-2.3-1.4c-0.4-0.4-0.6-0.8-0.5-1.2
							c0.2-1,1.7-1.7,3-2.2c-0.1-0.2-0.3-0.5-0.4-0.7c-0.6,0.7-1.4,1.3-2.2,1.7c-0.5,0.3-1,0.3-1.3,0.1c-0.8-0.5-1-2.2-1-3.6
							c-0.1,0-0.3,0.1-0.4,0.1c-0.2,0.1-0.5,0.1-0.7,0.2c0.5,0.8,0.9,1.6,1.2,2.5c0.2,0.6,0.1,1-0.2,1.3c-0.7,0.7-2.4,0.5-3.8,0.2
							c0,0.3,0,0.6,0,1c0.8-0.3,1.7-0.4,2.5-0.4h0c0.6,0,1,0.2,1.2,0.6c0.5,0.8-0.1,2.5-0.8,3.7c0.2,0.1,0.3,0.1,0.5,0.2
							c0.1-0.9,0.4-1.8,0.8-2.7c0.3-0.5,0.6-0.8,1-0.9c0,0,0.1,0,0.1,0C61.5,104.6,62.6,105.8,63.4,106.9z"/>
					</g>
					<g id="XMLID_519_">
						<ellipse id="XMLID_217_" class="st33" cx="60" cy="103.6" rx="1" ry="1"/>
						<path id="XMLID_520_" class="st34" d="M58.9,103.6c0-0.6,0.5-1.1,1.1-1.1c0.6,0,1.1,0.5,1.1,1.1c0,0.6-0.5,1.1-1.1,1.1
							C59.4,104.7,58.9,104.2,58.9,103.6z M59,103.6c0,0.5,0.4,1,0.9,1c0.5,0,0.9-0.4,0.9-1c0-0.5-0.4-1-0.9-1
							C59.4,102.6,59,103,59,103.6z"/>
					</g>
					<ellipse id="XMLID_214_" class="st34" cx="60" cy="103.6" rx="0.9" ry="0.9"/>
					<ellipse id="XMLID_213_" class="st37" cx="60" cy="103.6" rx="0.8" ry="0.8"/>
				</g>
			</g>
			<path id="XMLID_212_" class="st38" d="M62.7,96.7c0,0,3.8,1.4,4.6,5.2c0,0,0.1,0.5-0.2,0.7c0,0-0.2,0.2-0.3-0.2
				c-0.1-0.4-0.8-4.7-6-5.6c0,0-0.9,0-0.9-0.2C59.8,96.3,61.2,96.1,62.7,96.7z"/>
		</g>
		<g id="XMLID_504_">
			<g id="XMLID_507_">
				<path id="XMLID_211_" class="st20" d="M119.2,83.6c0,0-5.3-8.1-5.8-9c-0.5-0.9,0.1-1.4,0.1-1.4l1-0.3l8.5,11.5
					C121,84.8,119.2,83.6,119.2,83.6z"/>
				<path id="XMLID_508_" class="st19" d="M119.1,83.7C119.1,83.7,119.1,83.6,119.1,83.7c-0.1-0.1-5.3-8.1-5.8-9
					c-0.6-1,0.1-1.4,0.1-1.5c0,0,0,0,0,0l1-0.3c0,0,0.1,0,0.1,0l8.5,11.5c0,0,0,0,0,0.1c0,0,0,0-0.1,0c-0.2,0-0.5,0.1-0.7,0.1
					C120.6,84.6,119.1,83.7,119.1,83.7z M114.4,73.1l-0.9,0.2c-0.1,0.1-0.6,0.5-0.1,1.3c0.5,0.9,5.6,8.6,5.8,9
					c0.1,0.1,1.8,1.2,3.6,0.9L114.4,73.1z M119.2,83.6L119.2,83.6L119.2,83.6z"/>
			</g>
			<path id="XMLID_207_" class="st39" d="M114.3,75.5c-0.2-0.1-0.4-0.1-0.6-0.2c-0.2-0.3-0.3-0.5-0.4-0.7c-0.1-0.1-0.1-0.2-0.1-0.3
				c1,0.4,2,0.7,3,1.1l0.8,1.1C116.1,76.2,115.2,75.8,114.3,75.5z"/>
			<path id="XMLID_206_" class="st39" d="M122,83.7c-1.2-0.5-2.4-1-3.7-1.4c-0.4-0.7-1-1.5-1.5-2.4c1.2,0.5,2.3,1,3.5,1.5
				c0.2,0.1,0.4,0.2,0.6,0.3l1.7,2.3C122.3,83.8,122.1,83.8,122,83.7z"/>
		</g>
		<path id="XMLID_501_" class="st40" d="M96.8,101.9V86.9c0,0,0-0.1,0.1-0.1l17.6,0l3,0.4c0,0,0.1,0,0.1,0.1v6.1c0,0,0,0.1-0.1,0.1
			l-6.6,0c0,0-3.7-0.2-4.6,2.6l-1.8,5.9c0,0,0,0-0.1,0L96.8,101.9C96.8,101.9,96.8,101.9,96.8,101.9z M106.2,96
			c1-2.9,4.7-2.7,4.7-2.7h6.5v-5.9l-2.9-0.4H97v14.8h7.5L106.2,96z"/>
		<path id="XMLID_203_" class="st15" d="M96.2,102.9c0.1,0,0.1-0.1,0.1-0.1V71c0-0.1-0.1-0.1-0.1-0.1c-0.1,0-0.1,0.1-0.1,0.1v31.8
			C96,102.8,96.1,102.9,96.2,102.9z"/>
		<g id="XMLID_495_">
			<path id="XMLID_202_" class="st15" d="M69.1,72.7h8h7.1h8c0,0,2.4-0.3,2.4,2.4v0.3v7.7v0.3c0,2.7-2.4,2.4-2.4,2.4h-8h-7.1h-8
				c0,0-2.4,0.3-2.4-2.4v-0.3v-7.7v-0.3C66.7,72.5,69.1,72.7,69.1,72.7z"/>
			<path id="XMLID_496_" class="st41" d="M92.3,86l-23.2,0c0,0-1,0.1-1.8-0.5c-0.5-0.4-0.7-1.1-0.7-1.9v-8.4c0-0.9,0.2-1.5,0.7-1.9
				c0.7-0.6,1.7-0.5,1.8-0.5l23.2,0c0,0,1-0.1,1.8,0.5c0.5,0.4,0.7,1.1,0.7,1.9v8.4c0,0.9-0.2,1.5-0.7,1.9C93.5,86,92.8,86,92.5,86
				C92.4,86,92.3,86,92.3,86z M92.3,72.8H69.1c0,0,0,0,0,0c0,0-1-0.1-1.6,0.5c-0.4,0.4-0.7,1-0.7,1.8v8.4c0,0.8,0.2,1.4,0.7,1.8
				c0.7,0.6,1.6,0.5,1.7,0.5l23.2,0c0,0,1,0.1,1.6-0.5c0.4-0.4,0.7-1,0.7-1.8v-8.4c0-0.8-0.2-1.4-0.7-1.8c-0.5-0.5-1.2-0.5-1.5-0.5
				C92.3,72.8,92.3,72.8,92.3,72.8z"/>
		</g>
		<g id="XMLID_490_">
			<path id="XMLID_199_" class="st3" d="M69.4,73.1h7.8h6.9h7.8c0,0,2.3-0.2,2.3,2.3v0.3V83v0.3c0,2.5-2.3,2.3-2.3,2.3h-7.8h-6.9
				h-7.8c0,0-2.3,0.2-2.3-2.3V83v-7.3v-0.3C67,72.9,69.4,73.1,69.4,73.1z"/>
			<path id="XMLID_491_" class="st15" d="M91.9,85.6l-22.5,0c0,0-1,0.1-1.7-0.5c-0.4-0.4-0.7-1-0.7-1.8v-7.9c0-0.8,0.2-1.4,0.7-1.8
				c0.7-0.6,1.7-0.5,1.7-0.5l22.5,0c0,0,1-0.1,1.7,0.5c0.4,0.4,0.7,1,0.7,1.8v7.9c0,0.8-0.2,1.4-0.7,1.8c-0.5,0.5-1.2,0.5-1.5,0.5
				C92,85.6,91.9,85.6,91.9,85.6z M91.9,73.2H69.4c0,0,0,0,0,0c0,0-1-0.1-1.6,0.5c-0.4,0.4-0.6,0.9-0.6,1.7v7.9
				c0,0.7,0.2,1.3,0.6,1.7c0.7,0.6,1.6,0.5,1.6,0.5l22.5,0c0,0,1,0.1,1.6-0.5c0.4-0.4,0.6-0.9,0.6-1.7v-7.9c0-0.7-0.2-1.3-0.6-1.7
				c-0.5-0.4-1.2-0.5-1.5-0.5C91.9,73.2,91.9,73.2,91.9,73.2z"/>
		</g>
		<g id="XMLID_485_">
			<path id="XMLID_196_" class="st3" d="M69.4,73.1h7.8h6.9h7.8c0,0,2.3-0.2,2.3,2.3v0.3V83v0.3c0,2.5-2.3,2.3-2.3,2.3h-7.8h-6.9
				h-7.8c0,0-2.3,0.2-2.3-2.3V83v-7.3v-0.3C67,72.9,69.4,73.1,69.4,73.1z"/>
			<path id="XMLID_486_" class="st15" d="M91.9,85.6l-22.5,0c0,0-1,0.1-1.7-0.5c-0.4-0.4-0.7-1-0.7-1.8v-7.9c0-0.8,0.2-1.4,0.7-1.8
				c0.7-0.6,1.7-0.5,1.7-0.5l22.5,0c0,0,1-0.1,1.7,0.5c0.4,0.4,0.7,1,0.7,1.8v7.9c0,0.8-0.2,1.4-0.7,1.8c-0.5,0.5-1.2,0.5-1.5,0.5
				C92,85.6,91.9,85.6,91.9,85.6z M91.9,73.2H69.4c0,0,0,0,0,0c0,0-1-0.1-1.6,0.5c-0.4,0.4-0.6,0.9-0.6,1.7v7.9
				c0,0.7,0.2,1.3,0.6,1.7c0.7,0.6,1.6,0.5,1.6,0.5l22.5,0c0,0,1,0.1,1.6-0.5c0.4-0.4,0.6-0.9,0.6-1.7v-7.9c0-0.7-0.2-1.3-0.6-1.7
				c-0.5-0.4-1.2-0.5-1.5-0.5C91.9,73.2,91.9,73.2,91.9,73.2z"/>
		</g>
		<path id="XMLID_193_" class="st42" d="M87.1,79.2c-5-1.1-10.1-1.9-15.2-2.5c-1.6-0.2-3.2-0.4-4.8-0.5v-0.9c0-2.5,2.3-2.3,2.3-2.3
			h22.5c0,0,2.3-0.2,2.3,2.3v5.5C91.9,80.3,89.5,79.7,87.1,79.2z"/>
		<g id="XMLID_479_">
			<path id="XMLID_192_" class="st15" d="M41.6,72.7H48h7.1h8c0,0,2.4-0.3,2.4,2.4v0.3v7.7v0.3c0,2.7-2.4,2.4-2.4,2.4h-8H48h-8
				c0,0-2.2,0.3-2.2-2.2l1-8.7C38.7,72.4,41.6,72.7,41.6,72.7z"/>
			<path id="XMLID_480_" class="st41" d="M38.4,85.6c-0.4-0.4-0.7-1-0.7-1.8l1-8.7c0-0.8,0.2-1.4,0.7-1.8c0.8-0.8,2.1-0.6,2.2-0.6
				l21.6,0c0,0,1-0.1,1.8,0.5c0.5,0.4,0.7,1.1,0.7,1.9v8.4c0,0.9-0.2,1.5-0.7,1.9c-0.7,0.6-1.7,0.5-1.7,0.5L40,86c0,0-0.1,0-0.2,0
				C39.5,86,38.9,86,38.4,85.6z M63.2,85.9c0,0,1,0.1,1.6-0.5c0.4-0.4,0.7-1,0.7-1.8v-8.4c0-0.8-0.2-1.4-0.7-1.8
				c-0.7-0.6-1.6-0.5-1.7-0.5H41.6c0,0,0,0,0,0c0,0-1.3-0.1-2.1,0.6c-0.4,0.4-0.7,0.9-0.7,1.7l-1,8.7c0,0.8,0.2,1.3,0.6,1.7
				c0.6,0.5,1.5,0.4,1.5,0.4h15.1L63.2,85.9z"/>
		</g>
		<g id="XMLID_474_">
			<path id="XMLID_189_" class="st3" d="M41.9,73.1h6.2h6.9h7.8c0,0,2.3-0.2,2.3,2.2v0.3V83v0.3c0,2.5-2.3,2.2-2.3,2.2h-7.8h-6.9
				h-7.8c0,0-2.2,0.3-2.2-2.1l0.9-8.2C39.1,72.8,41.9,73.1,41.9,73.1z"/>
			<path id="XMLID_475_" class="st15" d="M38.8,85.2c-0.4-0.4-0.6-0.9-0.6-1.7l0.9-8.2c0-0.7,0.2-1.3,0.7-1.7
				c0.8-0.7,2.1-0.6,2.2-0.6l20.9,0c0,0,1-0.1,1.7,0.5c0.4,0.4,0.7,1,0.7,1.8v7.9c0,0.8-0.2,1.4-0.7,1.8c-0.7,0.6-1.7,0.5-1.7,0.5
				l-22.5,0c0,0-0.1,0-0.2,0C39.8,85.6,39.2,85.6,38.8,85.2z M62.9,85.5c0,0,1,0.1,1.6-0.5c0.4-0.4,0.6-0.9,0.6-1.7v-7.9
				c0-0.7-0.2-1.3-0.6-1.7c-0.7-0.6-1.6-0.5-1.6-0.5H41.9c0,0,0,0,0,0c0,0-1.3-0.1-2.1,0.6c-0.4,0.4-0.6,0.9-0.6,1.6l-0.9,8.2
				c0,0.7,0.2,1.2,0.6,1.6c0.6,0.5,1.5,0.4,1.5,0.4h14.7L62.9,85.5z"/>
		</g>
		<g id="XMLID_469_">
			<path id="XMLID_186_" class="st3" d="M41.9,73.1h6.2h6.9h7.8c0,0,2.3-0.2,2.3,2.2v0.3V83v0.3c0,2.5-2.3,2.2-2.3,2.2h-7.8h-6.9
				h-7.8c0,0-2.2,0.3-2.2-2.1l0.9-8.2C39.1,72.8,41.9,73.1,41.9,73.1z"/>
			<path id="XMLID_470_" class="st15" d="M38.8,85.2c-0.4-0.4-0.6-0.9-0.6-1.7l0.9-8.2c0-0.7,0.2-1.3,0.7-1.7
				c0.8-0.7,2.1-0.6,2.2-0.6l20.9,0c0,0,1-0.1,1.7,0.5c0.4,0.4,0.7,1,0.7,1.8v7.9c0,0.8-0.2,1.4-0.7,1.8c-0.7,0.6-1.7,0.5-1.7,0.5
				l-22.5,0c0,0-0.1,0-0.2,0C39.8,85.6,39.2,85.6,38.8,85.2z M62.9,85.5c0,0,1,0.1,1.6-0.5c0.4-0.4,0.6-0.9,0.6-1.7v-7.9
				c0-0.7-0.2-1.3-0.6-1.7c-0.7-0.6-1.6-0.5-1.6-0.5H41.9c0,0,0,0,0,0c0,0-1.3-0.1-2.1,0.6c-0.4,0.4-0.6,0.9-0.6,1.6l-0.9,8.2
				c0,0.7,0.2,1.2,0.6,1.6c0.6,0.5,1.5,0.4,1.5,0.4h14.7L62.9,85.5z"/>
		</g>
		<path id="XMLID_183_" class="st42" d="M56.8,75.5c-5.1-0.3-10.2-0.5-15.3-0.4c-0.8,0-1.5,0-2.3,0.1c0.1-2.3,2.8-2,2.8-2h20.9
			c0,0,2.3-0.2,2.3,2.2v0.7C62.4,75.9,59.6,75.7,56.8,75.5z"/>
		<g id="XMLID_463_">
			<path id="XMLID_182_" class="st20" d="M38.5,72.5l-1.7,13.3c0,0-0.2,0.4-0.4,0.5c-0.1,0-0.7,0.1-1.4,0.1l1.8-15.2h1.1
				C37.8,71.3,38.5,71.2,38.5,72.5z"/>
			<path id="XMLID_464_" class="st19" d="M34.9,86.5C34.9,86.5,34.9,86.4,34.9,86.5l1.8-15.2c0,0,0-0.1,0.1-0.1l1.1,0
				c0,0,0.2,0,0.4,0.2c0.2,0.2,0.3,0.6,0.3,1.1c0,0,0,0,0,0l-1.7,13.3c0,0,0,0,0,0c0,0-0.2,0.4-0.5,0.5
				C36.4,86.4,36.3,86.4,34.9,86.5C35,86.5,35,86.5,34.9,86.5C35,86.5,34.9,86.5,34.9,86.5z M38.4,72.5c0-0.5-0.1-0.8-0.3-1
				c-0.1-0.1-0.3-0.1-0.3-0.1h-1l-1.8,15c1.1,0,1.3-0.1,1.3-0.1c0.2-0.1,0.3-0.3,0.4-0.4L38.4,72.5z"/>
		</g>
		<path id="XMLID_179_" class="st20" d="M36.5,73.8l0.1-0.5c0.5,0.3,1,0.7,1.4,1c0.1,0.1,0.2,0.1,0.3,0.2l-0.1,0.5
			C37.6,74.6,37.1,74.2,36.5,73.8z"/>
		<path id="XMLID_178_" class="st20" d="M35.3,83.3l0.2-1.6c0.3,0.2,0.5,0.4,0.8,0.6c0.3,0.2,0.6,0.5,0.9,0.7L37,84.8
			C36.4,84.3,35.9,83.8,35.3,83.3z"/>
		<g id="XMLID_451_">
			<g id="XMLID_456_">
				<path id="XMLID_177_" class="st22" d="M126.5,86.9l1.1,0.4c0,0,1,0.7,1.9,2.2c1,1.5,0.7,3.9,0.7,3.9l0,1.8
					c-0.1,0.1-0.2,0.2-0.3,0.3h-1.3c-0.1-0.1-0.2-0.3-0.3-0.4C128.4,89.2,126.5,86.9,126.5,86.9z"/>
				<path id="XMLID_457_" class="st43" d="M128.6,95.5c-0.1-0.1-0.2-0.3-0.3-0.4c0,0,0,0,0,0c0-5.7-1.9-8.1-1.9-8.1c0,0,0-0.1,0-0.1
					c0,0,0.1,0,0.1,0l1.1,0.4c0,0,0,0,0,0c0,0,1,0.7,2,2.2c1,1.5,0.7,3.8,0.7,3.9l0,1.8c0,0,0,0,0,0.1c-0.1,0.1-0.2,0.2-0.3,0.3
					c0,0,0,0,0,0L128.6,95.5C128.6,95.5,128.6,95.5,128.6,95.5z M130.2,95.1l0-1.8c0,0,0.2-2.4-0.7-3.8c-0.9-1.4-1.8-2.1-1.9-2.1
					l-0.9-0.3c0.2,0.3,0.5,0.8,0.8,1.7c0.4,1.2,0.9,3.3,1,6.3c0.1,0.1,0.2,0.2,0.2,0.3h1.2C130,95.3,130.1,95.2,130.2,95.1z"/>
			</g>
			<path id="XMLID_453_" class="st22" d="M126.5,86.9c0,0,1.9,2.4,1.9,8.2c0.1,0.1,0.2,0.3,0.3,0.4h1.3c0.1-0.1,0.2-0.2,0.3-0.3
				l0-1.8c0,0,0.2-2.4-0.7-3.9c-1-1.5-1.9-2.2-1.9-2.2L126.5,86.9z M127.5,87.7c0,0,1.9,1.5,2.2,2.9c0,0,0.2,0.8,0.3,1.2
				c0.1,0.5,0,3.1,0,3.1h-0.4l-0.1-3C129.4,92,129.3,89.5,127.5,87.7z"/>
			<path id="XMLID_172_" class="st22" d="M127.4,88.2c0.3,0.6,0.5,1.2,0.6,1.8c0.2,0.7,0.3,1.5,0.4,2.2c0.1,0.8,0.2,1.5,0.2,2.3
				c0,0.3,0,0.6,0,0.9h-0.1c-0.1-0.1-0.2-0.3-0.3-0.4c0-5.8-1.9-8.2-1.9-8.2l0,0C126.8,87.3,127.1,87.7,127.4,88.2z"/>
		</g>
		<g id="XMLID_438_">
			<g id="XMLID_446_">
				<path id="XMLID_171_" class="st44" d="M124,94.1c0,0.4,0.3,0.7,0.6,0.7h1.2c0.4,0,0.6-0.4,0.6-0.7l0,0c0-0.4-0.3-0.7-0.6-0.7
					h-1.2C124.3,93.4,124,93.8,124,94.1L124,94.1z"/>
				<path id="XMLID_447_" class="st45" d="M123.9,94.1c0-0.4,0.3-0.7,0.7-0.7h1.2c0.4,0,0.7,0.3,0.7,0.7c0,0.4-0.3,0.7-0.7,0.7h-1.2
					C124.2,94.9,123.9,94.5,123.9,94.1z M124.6,93.4c-0.3,0-0.6,0.3-0.6,0.6c0,0.3,0.3,0.6,0.6,0.6h1.2c0.3,0,0.6-0.3,0.6-0.6
					c0-0.3-0.3-0.6-0.6-0.6H124.6z"/>
			</g>
			<g id="XMLID_441_">
				<path id="XMLID_168_" class="st44" d="M124,94.1c0,0.4,0.3,0.7,0.6,0.7h1.2c0.4,0,0.6-0.4,0.6-0.7l0,0c0-0.4-0.3-0.7-0.6-0.7
					h-1.2C124.3,93.4,124,93.8,124,94.1L124,94.1z"/>
				<path id="XMLID_442_" class="st45" d="M123.9,94.1c0-0.4,0.3-0.7,0.7-0.7h1.2c0.4,0,0.7,0.3,0.7,0.7c0,0.4-0.3,0.7-0.7,0.7h-1.2
					C124.2,94.9,123.9,94.5,123.9,94.1z M124.6,93.4c-0.3,0-0.6,0.3-0.6,0.6c0,0.3,0.3,0.6,0.6,0.6h1.2c0.3,0,0.6-0.3,0.6-0.6
					c0-0.3-0.3-0.6-0.6-0.6H124.6z"/>
			</g>
			<path id="XMLID_165_" class="st46" d="M124.3,94c0,0.3,0,0.5,0.3,0.5h1c0.3,0,0.5-0.2,0.5-0.5v0c0-0.3-0.2-0.6-0.5-0.6h-1
				C124.3,93.4,124.3,93.7,124.3,94L124.3,94z"/>
			<path id="XMLID_164_" class="st46" d="M125,94c0,0.1,0.1,0.3,0.3,0.3l0.5,0c0.1,0,0.3-0.1,0.3-0.3l0,0c0-0.1-0.1-0.3-0.3-0.3
				l-0.5,0C125.2,93.7,125,93.8,125,94L125,94z"/>
		</g>
		<path id="XMLID_163_" class="st46" d="M130,97.6H125c0,0-0.9-0.1-0.9,0.5l0.6,2c0,0,0.1,0.4,0.4,0.4h4.4c0,0,0.8,0,0.7-0.4V98
			C130.2,98,130.2,97.6,130,97.6z"/>
		<path id="XMLID_434_" class="st46" d="M124.1,98.1l0.6,2c0,0,0.1,0.4,0.4,0.4h4.4c0,0,0.8,0,0.7-0.4V98c0,0,0-0.3-0.3-0.3H125
			C125,97.6,124.1,97.5,124.1,98.1z M125.5,98.2c0-0.4,0.7-0.4,0.7-0.4h3.4c0.2,0,0.2,0.2,0.2,0.2v1.5c0,0.3-0.5,0.3-0.5,0.3h-3
			c-0.2,0-0.3-0.3-0.3-0.3L125.5,98.2z"/>
		<path id="XMLID_160_" class="st22" d="M129.6,99.3v-1c0,0,0-0.4-0.3-0.4h-2.2c0,0-0.2,0-0.2,0.1c0,0.1,1.7,0.2,1.7,0.2
			s0.5,0.1,0.6,0.4C129.4,99,129.6,99.3,129.6,99.3z"/>
		<g id="XMLID_328_">
			<g id="XMLID_428_">
				<path id="XMLID_159_" class="st3" d="M36.8,70.7l1.3-3.3c1.3-3.4,6.3-3,6.3-3s60.2,0,61.3,0c1.1,0,1.8,0.3,1.8,0.3
					c2.4,0.7,4,4.1,4,4.1l1.2,1.9H36.8z"/>
				<path id="XMLID_429_" class="st15" d="M36.8,70.8C36.8,70.7,36.8,70.7,36.8,70.8l1.3-3.3c0.5-1.4,1.8-2.4,3.7-2.8
					c1.4-0.3,2.7-0.2,2.7-0.2h61.3c1.1,0,1.8,0.3,1.8,0.3c2.4,0.7,4,4,4.1,4.1l1.2,1.9c0,0,0,0,0,0.1c0,0,0,0-0.1,0L36.8,70.8
					C36.8,70.8,36.8,70.8,36.8,70.8z M111.5,68.9c0,0-1.7-3.4-4-4.1c0,0-0.6-0.3-1.8-0.3l-61.3,0c0,0-1.3-0.1-2.6,0.2
					c-1.3,0.3-2.9,1-3.6,2.7l-1.3,3.2h75.7L111.5,68.9z"/>
			</g>
			<path id="XMLID_425_" class="st47" d="M36.8,70.7h76l-1.2-1.9c0,0-1.7-3.4-4-4.1c0,0-0.6-0.3-1.8-0.3c-1.1,0-61.3,0-61.3,0
				s-5-0.4-6.3,3L36.8,70.7z M41.2,70.1l1.1-2.7c1.1-2.7,5.1-2.4,5.1-2.4s42.2,0,51.8,0c0,0,0,0,0,0c0.8,1.4,1.6,2.7,2.4,4.1
				c0.2,0.3,0.4,0.7,0.6,1H41.2z"/>
			<g id="XMLID_418_">
				<g id="XMLID_423_">
					<path id="XMLID_154_" class="st48" d="M105.7,64.5c1.1,0,1.8,0.3,1.8,0.3c2.4,0.7,4,4.1,4,4.1l1.2,1.9h-7.3l-3-6.3
						C104.4,64.5,105.6,64.5,105.7,64.5z"/>
				</g>
				<path id="XMLID_420_" class="st48" d="M102.4,64.5l3,6.3h7.3l-1.2-1.9c0,0-1.7-3.4-4-4.1c0,0-0.6-0.3-1.8-0.3
					C105.6,64.5,104.4,64.5,102.4,64.5z M104.5,65.3c1.3,0,2.1,0,2.2,0c0.7,0,1.2,0.2,1.2,0.2c1.5,0.5,2.6,2.6,2.6,2.6l0.8,1.2h-4.7
					L104.5,65.3z"/>
				<path id="XMLID_151_" class="st48" d="M107,65.6c0,0,1.2,0,2,1c0.8,1,1.6,2.4,1.6,2.4h-1l-1-2.3C108.5,66.7,107.8,65.7,107,65.6
					z"/>
			</g>
			<g id="XMLID_329_">
				<g id="XMLID_405_">
					<g id="XMLID_413_">
						<path id="XMLID_150_" class="st44" d="M98.9,67.8c0,0.5,0.4,1,0.9,1h1.7c0.5,0,0.9-0.5,0.9-1l0,0c0-0.5-0.4-1-0.9-1h-1.7
							C99.3,66.8,98.9,67.3,98.9,67.8L98.9,67.8z"/>
						<path id="XMLID_414_" class="st45" d="M98.9,67.8c0-0.5,0.4-1,1-1h1.7c0.5,0,0.9,0.5,0.9,1c0,0.5-0.4,1-0.9,1h-1.7
							C99.3,68.8,98.9,68.3,98.9,67.8z M99.8,66.8c-0.4,0-0.8,0.4-0.8,0.9c0,0.5,0.4,0.9,0.8,0.9h1.7c0.4,0,0.8-0.4,0.8-0.9
							c0-0.5-0.4-0.9-0.8-0.9H99.8z"/>
					</g>
					<g id="XMLID_408_">
						<path id="XMLID_147_" class="st44" d="M98.9,67.8c0,0.5,0.4,1,0.9,1h1.7c0.5,0,0.9-0.5,0.9-1l0,0c0-0.5-0.4-1-0.9-1h-1.7
							C99.3,66.8,98.9,67.3,98.9,67.8L98.9,67.8z"/>
						<path id="XMLID_409_" class="st45" d="M98.9,67.8c0-0.5,0.4-1,1-1h1.7c0.5,0,0.9,0.5,0.9,1c0,0.5-0.4,1-0.9,1h-1.7
							C99.3,68.8,98.9,68.3,98.9,67.8z M99.8,66.8c-0.4,0-0.8,0.4-0.8,0.9c0,0.5,0.4,0.9,0.8,0.9h1.7c0.4,0,0.8-0.4,0.8-0.9
							c0-0.5-0.4-0.9-0.8-0.9H99.8z"/>
					</g>
					<path id="XMLID_144_" class="st46" d="M99.4,67.6c0,0.4,0.1,0.6,0.5,0.6h1.4c0.4,0,0.7-0.3,0.7-0.6v0c0-0.4-0.2-0.8-0.7-0.8
						h-1.4C99.4,66.8,99.4,67.2,99.4,67.6L99.4,67.6z"/>
					<path id="XMLID_143_" class="st46" d="M100.4,67.6c0,0.2,0.2,0.4,0.4,0.4l0.7,0c0.2,0,0.4-0.2,0.4-0.4l0-0.1
						c0-0.2-0.2-0.4-0.4-0.4l-0.7,0C100.6,67.1,100.4,67.3,100.4,67.6L100.4,67.6z"/>
				</g>
				<g id="XMLID_330_">
					<g id="XMLID_386_">
						<g id="XMLID_400_">
							<path id="XMLID_142_" class="st49" d="M91.6,68.6v-1.7c0-0.6,0.7-0.8,0.7-0.8h2.1h0.7h1.1c0,0,0.7,0.2,0.7,0.8v1.7
								c0,0,0,1-0.8,1h-0.9h-1.7h-0.9C91.6,69.6,91.6,68.6,91.6,68.6z"/>
							<path id="XMLID_401_" class="st50" d="M91.8,69.4c-0.3-0.3-0.3-0.8-0.3-0.8v-1.7c0-0.7,0.7-0.9,0.7-0.9c0,0,0,0,0,0h3.9
								c0,0,0,0,0,0c0,0,0.7,0.2,0.7,0.9l0,1.7c0,0,0,0.5-0.3,0.8c-0.1,0.2-0.3,0.2-0.6,0.2h-3.6C92.2,69.6,92,69.5,91.8,69.4z
								 M92.3,66.1c-0.1,0-0.6,0.2-0.6,0.7v1.7c0,0,0,0,0,0c0,0,0,0.5,0.2,0.7c0.1,0.1,0.3,0.2,0.5,0.2H96c0.2,0,0.4-0.1,0.5-0.2
								c0.3-0.3,0.2-0.7,0.2-0.7v-1.7c0-0.5-0.5-0.7-0.6-0.7H92.3z"/>
						</g>
						<g id="XMLID_395_">
							<path id="XMLID_139_" class="st51" d="M92,68.4V67c0-0.5,0.6-0.7,0.6-0.7h1.8h0.6h0.9c0,0,0.6,0.1,0.6,0.7v1.4
								c0,0,0,0.8-0.7,0.8h-0.8h-1.5h-0.8C92,69.3,92,68.4,92,68.4z"/>
							<path id="XMLID_396_" class="st52" d="M92.2,69.1C92,68.9,92,68.5,92,68.4V67c0-0.6,0.6-0.7,0.6-0.8c0,0,0,0,0,0h3.2
								c0,0,0,0,0,0c0,0,0.6,0.2,0.6,0.8l0,1.4c0,0,0,0.4-0.2,0.7c-0.1,0.1-0.3,0.2-0.5,0.2h-3C92.5,69.3,92.3,69.3,92.2,69.1z
								 M92.6,66.4c-0.1,0-0.5,0.2-0.5,0.6v1.4c0,0,0,0,0,0c0,0,0,0.4,0.2,0.6c0.1,0.1,0.2,0.2,0.4,0.2h3c0.2,0,0.3-0.1,0.4-0.2
								c0.2-0.2,0.2-0.6,0.2-0.6V67c0-0.4-0.4-0.6-0.5-0.6H92.6z"/>
						</g>
						<g id="XMLID_390_">
							<path id="XMLID_136_" class="st51" d="M92,68.4V67c0-0.5,0.6-0.7,0.6-0.7h1.8h0.6h0.9c0,0,0.6,0.1,0.6,0.7v1.4
								c0,0,0,0.8-0.7,0.8h-0.8h-1.5h-0.8C92,69.3,92,68.4,92,68.4z"/>
							<path id="XMLID_391_" class="st52" d="M92.2,69.1C92,68.9,92,68.5,92,68.4V67c0-0.6,0.6-0.7,0.6-0.8c0,0,0,0,0,0h3.2
								c0,0,0,0,0,0c0,0,0.6,0.2,0.6,0.8l0,1.4c0,0,0,0.4-0.2,0.7c-0.1,0.1-0.3,0.2-0.5,0.2h-3C92.5,69.3,92.3,69.3,92.2,69.1z
								 M92.6,66.4c-0.1,0-0.5,0.2-0.5,0.6v1.4c0,0,0,0,0,0c0,0,0,0.4,0.2,0.6c0.1,0.1,0.2,0.2,0.4,0.2h3c0.2,0,0.3-0.1,0.4-0.2
								c0.2-0.2,0.2-0.6,0.2-0.6V67c0-0.4-0.4-0.6-0.5-0.6H92.6z"/>
						</g>
						<path id="XMLID_387_" class="st53" d="M92.7,69.3h0.8h1.5h0.8c0.7,0,0.7-0.8,0.7-0.8V67c0-0.5-0.6-0.7-0.6-0.7h-0.9h-0.6h-1.8
							c0,0-0.6,0.1-0.6,0.7v1.4C92,68.4,92,69.3,92.7,69.3z M94.1,67.6V67c0-0.2,0.3-0.3,0.3-0.3h0.8h0.3h0.4c0,0,0.3,0.1,0.3,0.3
							v0.6c0,0,0,0.4-0.3,0.4h-0.4h-0.7h-0.4C94,68,94.1,67.6,94.1,67.6z"/>
					</g>
					<g id="XMLID_367_">
						<g id="XMLID_381_">
							<path id="XMLID_131_" class="st49" d="M43.7,68.6v-1.7c0-0.6,0.7-0.8,0.7-0.8h2.1h0.7h1.1c0,0,0.7,0.2,0.7,0.8v1.7
								c0,0,0,1-0.8,1h-0.9h-1.7h-0.9C43.6,69.6,43.7,68.6,43.7,68.6z"/>
							<path id="XMLID_382_" class="st50" d="M43.9,69.4c-0.3-0.3-0.3-0.8-0.3-0.8v-1.7c0-0.7,0.7-0.9,0.7-0.9c0,0,0,0,0,0h3.9
								c0,0,0,0,0,0c0,0,0.7,0.2,0.7,0.9l0,1.7c0,0,0,0.5-0.3,0.8c-0.1,0.2-0.3,0.2-0.6,0.2h-3.6C44.2,69.6,44,69.5,43.9,69.4z
								 M44.3,66.1c-0.1,0-0.6,0.2-0.6,0.7v1.7c0,0,0,0,0,0c0,0,0,0.5,0.2,0.7c0.1,0.1,0.3,0.2,0.5,0.2h3.6c0.2,0,0.4-0.1,0.5-0.2
								c0.3-0.3,0.2-0.7,0.2-0.7v-1.7c0-0.5-0.5-0.7-0.6-0.7H44.3z"/>
						</g>
						<g id="XMLID_376_">
							<path id="XMLID_128_" class="st51" d="M44.1,68.4V67c0-0.5,0.6-0.7,0.6-0.7h1.8H47h0.9c0,0,0.6,0.1,0.6,0.7v1.4
								c0,0,0,0.8-0.7,0.8H47h-1.5h-0.8C44,69.3,44.1,68.4,44.1,68.4z"/>
							<path id="XMLID_377_" class="st52" d="M44.2,69.1C44,68.9,44,68.5,44,68.4V67c0-0.6,0.6-0.7,0.6-0.8c0,0,0,0,0,0h3.2
								c0,0,0,0,0,0c0,0,0.6,0.2,0.6,0.8l0,1.4c0,0,0,0.4-0.2,0.7c-0.1,0.1-0.3,0.2-0.5,0.2h-3C44.5,69.3,44.4,69.3,44.2,69.1z
								 M44.7,66.4c-0.1,0-0.5,0.2-0.5,0.6v1.4c0,0,0,0,0,0c0,0,0,0.4,0.2,0.6c0.1,0.1,0.2,0.2,0.4,0.2h3c0.2,0,0.3-0.1,0.4-0.2
								c0.2-0.2,0.2-0.6,0.2-0.6V67c0-0.4-0.4-0.6-0.5-0.6H44.7z"/>
						</g>
						<g id="XMLID_371_">
							<path id="XMLID_125_" class="st51" d="M44.1,68.4V67c0-0.5,0.6-0.7,0.6-0.7h1.8H47h0.9c0,0,0.6,0.1,0.6,0.7v1.4
								c0,0,0,0.8-0.7,0.8H47h-1.5h-0.8C44,69.3,44.1,68.4,44.1,68.4z"/>
							<path id="XMLID_372_" class="st52" d="M44.2,69.1C44,68.9,44,68.5,44,68.4V67c0-0.6,0.6-0.7,0.6-0.8c0,0,0,0,0,0h3.2
								c0,0,0,0,0,0c0,0,0.6,0.2,0.6,0.8l0,1.4c0,0,0,0.4-0.2,0.7c-0.1,0.1-0.3,0.2-0.5,0.2h-3C44.5,69.3,44.4,69.3,44.2,69.1z
								 M44.7,66.4c-0.1,0-0.5,0.2-0.5,0.6v1.4c0,0,0,0,0,0c0,0,0,0.4,0.2,0.6c0.1,0.1,0.2,0.2,0.4,0.2h3c0.2,0,0.3-0.1,0.4-0.2
								c0.2-0.2,0.2-0.6,0.2-0.6V67c0-0.4-0.4-0.6-0.5-0.6H44.7z"/>
						</g>
						<path id="XMLID_368_" class="st53" d="M44.8,69.3h0.8H47h0.8c0.7,0,0.7-0.8,0.7-0.8V67c0-0.5-0.6-0.7-0.6-0.7H47h-0.6h-1.8
							c0,0-0.6,0.1-0.6,0.7v1.4C44.1,68.4,44,69.3,44.8,69.3z M46.1,67.6V67c0-0.2,0.3-0.3,0.3-0.3h0.8h0.3h0.4c0,0,0.3,0.1,0.3,0.3
							v0.6c0,0,0,0.4-0.3,0.4h-0.4h-0.7h-0.4C46.1,68,46.1,67.6,46.1,67.6z"/>
					</g>
					<g id="XMLID_354_">
						<g id="XMLID_362_">
							<path id="XMLID_120_" class="st44" d="M39.6,67.8c0,0.5,0.4,1,0.9,1h1.7c0.5,0,0.9-0.5,0.9-1l0,0c0-0.5-0.4-1-0.9-1h-1.7
								C40,66.8,39.6,67.3,39.6,67.8L39.6,67.8z"/>
							<path id="XMLID_363_" class="st45" d="M39.5,67.8c0-0.5,0.4-1,0.9-1h1.7c0.5,0,0.9,0.5,0.9,1c0,0.5-0.4,1-0.9,1h-1.7
								C39.9,68.8,39.5,68.3,39.5,67.8z M40.5,66.8c-0.4,0-0.8,0.4-0.8,0.9c0,0.5,0.4,0.9,0.8,0.9h1.7c0.4,0,0.8-0.4,0.8-0.9
								c0-0.5-0.4-0.9-0.8-0.9H40.5z"/>
						</g>
						<g id="XMLID_357_">
							<path id="XMLID_117_" class="st44" d="M39.6,67.8c0,0.5,0.4,1,0.9,1h1.7c0.5,0,0.9-0.5,0.9-1l0,0c0-0.5-0.4-1-0.9-1h-1.7
								C40,66.8,39.6,67.3,39.6,67.8L39.6,67.8z"/>
							<path id="XMLID_358_" class="st45" d="M39.5,67.8c0-0.5,0.4-1,0.9-1h1.7c0.5,0,0.9,0.5,0.9,1c0,0.5-0.4,1-0.9,1h-1.7
								C39.9,68.8,39.5,68.3,39.5,67.8z M40.5,66.8c-0.4,0-0.8,0.4-0.8,0.9c0,0.5,0.4,0.9,0.8,0.9h1.7c0.4,0,0.8-0.4,0.8-0.9
								c0-0.5-0.4-0.9-0.8-0.9H40.5z"/>
						</g>
						<path id="XMLID_114_" class="st46" d="M40.1,67.6c0,0.4,0,0.6,0.4,0.6h1.4c0.4,0,0.7-0.3,0.7-0.6v0c0-0.4-0.3-0.8-0.7-0.8
							h-1.4C40.1,66.8,40.1,67.2,40.1,67.6L40.1,67.6z"/>
						<path id="XMLID_113_" class="st46" d="M41.1,67.6c0,0.2,0.2,0.4,0.4,0.4l0.7,0c0.2,0,0.4-0.2,0.4-0.4l0-0.1
							c0-0.2-0.2-0.4-0.4-0.4l-0.7,0C41.2,67.1,41.1,67.3,41.1,67.6L41.1,67.6z"/>
					</g>
					<g id="XMLID_331_">
						<path id="XMLID_351_" class="st54" d="M70.5,69l1-2.5h0.6l1,2.5h-0.6l-0.2-0.5h-0.9L71.1,69H70.5z M71.5,68.1h0.6l-0.3-0.8
							L71.5,68.1z"/>
						<path id="XMLID_349_" class="st54" d="M67.5,69v-2.5h0.9l0.5,1.6h0l0.6-1.6h0.8V69h-0.6l0-1.7h0L69.1,69h-0.4l-0.6-1.7h0
							l0,1.7H67.5z"/>
						<path id="XMLID_345_" class="st54" d="M65.1,68.1c0-0.1,0.1-0.1,0.1-0.2c0,0,0.1-0.1,0.2-0.1c0.1,0,0.1-0.1,0.2-0.1v0
							c-0.1,0-0.2-0.1-0.3-0.2c-0.1-0.1-0.1-0.2-0.1-0.3c0-0.1,0-0.2,0.1-0.3c0.1-0.1,0.1-0.1,0.2-0.2c0.1,0,0.2-0.1,0.3-0.1
							c0.1,0,0.2,0,0.3,0h1V69h-1c-0.1,0-0.2,0-0.3,0c-0.1,0-0.2-0.1-0.3-0.1c-0.1-0.1-0.2-0.1-0.2-0.2c-0.1-0.1-0.1-0.2-0.1-0.3
							C65.1,68.2,65.1,68.2,65.1,68.1z M65.8,67.5c0.1,0,0.1,0.1,0.3,0.1h0.3V67h-0.3c-0.1,0-0.2,0-0.3,0.1c-0.1,0-0.1,0.1-0.1,0.2
							C65.7,67.4,65.8,67.4,65.8,67.5z M65.7,68.4C65.7,68.4,65.7,68.5,65.7,68.4c0.1,0.1,0.2,0.1,0.2,0.1c0,0,0.1,0,0.1,0h0.3V68
							h-0.3c-0.1,0-0.2,0-0.3,0.1c-0.1,0-0.1,0.1-0.1,0.2C65.7,68.3,65.7,68.4,65.7,68.4z"/>
						<path id="XMLID_343_" class="st54" d="M62.6,68.1v-1.5h0.6V68c0,0.1,0,0.1,0,0.2c0,0.1,0,0.1,0.1,0.2c0,0,0.1,0.1,0.1,0.1
							c0.1,0,0.1,0,0.2,0c0.1,0,0.2,0,0.2,0c0.1,0,0.1-0.1,0.1-0.1c0,0,0.1-0.1,0.1-0.2c0-0.1,0-0.1,0-0.2v-1.5h0.6v1.5
							c0,0.1,0,0.3-0.1,0.4c0,0.1-0.1,0.2-0.2,0.3c-0.1,0.1-0.2,0.2-0.3,0.2c-0.1,0-0.3,0.1-0.4,0.1c-0.2,0-0.3,0-0.4-0.1
							c-0.1,0-0.2-0.1-0.3-0.2c-0.1-0.1-0.2-0.2-0.2-0.3C62.6,68.4,62.6,68.2,62.6,68.1z"/>
						<path id="XMLID_341_" class="st54" d="M60.6,69v-0.5h0.9v-1.9h0.6V69H60.6z"/>
						<path id="XMLID_338_" class="st54" d="M58,69l1-2.5h0.6l1,2.5h-0.6l-0.2-0.5h-0.9L58.6,69H58z M59,68.1h0.6l-0.3-0.8L59,68.1z
							"/>
						<path id="XMLID_336_" class="st54" d="M55.5,69v-2.5h0.6l0,1.6h0l1-1.6h0.7V69h-0.6l0-1.6h0l-1,1.6H55.5z"/>
						<path id="XMLID_334_" class="st54" d="M52.9,68.7l0.4-0.4c0.1,0.1,0.1,0.1,0.2,0.2c0.1,0,0.2,0.1,0.3,0.1c0.1,0,0.2,0,0.3-0.1
							c0.1,0,0.2-0.1,0.2-0.2c0.1-0.1,0.1-0.1,0.1-0.2c0-0.1,0.1-0.2,0.1-0.3c0-0.1,0-0.2-0.1-0.3c0-0.1-0.1-0.2-0.1-0.2
							c-0.1-0.1-0.1-0.1-0.2-0.2c-0.1,0-0.2-0.1-0.3-0.1c-0.1,0-0.2,0-0.3,0.1c-0.1,0-0.2,0.1-0.2,0.2l-0.4-0.4
							c0.1-0.1,0.2-0.2,0.4-0.3c0.2-0.1,0.3-0.1,0.5-0.1c0.2,0,0.4,0,0.5,0.1c0.2,0.1,0.3,0.1,0.4,0.3c0.1,0.1,0.2,0.2,0.3,0.4
							c0.1,0.2,0.1,0.3,0.1,0.5c0,0.2,0,0.4-0.1,0.5c-0.1,0.2-0.2,0.3-0.3,0.4c-0.1,0.1-0.3,0.2-0.4,0.3c-0.2,0.1-0.3,0.1-0.5,0.1
							c-0.2,0-0.4,0-0.6-0.1C53.1,68.9,53,68.8,52.9,68.7z"/>
						<path id="XMLID_332_" class="st54" d="M50.9,69v-0.5h1.1V68h-1v-0.5h1v-0.5H51v-0.5h1.6V69H50.9z"/>
					</g>
				</g>
			</g>
		</g>
	</g>
	<g id="XMLID_84_">
		<g id="XMLID_322_">
			<path id="XMLID_99_" class="st55" d="M34.9,88.7h1.4c0,0,0.5-0.1,0.5,0.5v8.9c0,0,0.1,0.9-0.4,0.9c-0.4,0-1.7,0-1.7,0L34.9,88.7z
				"/>
			<path id="XMLID_323_" class="st56" d="M34.7,99.1C34.7,99.1,34.7,99.1,34.7,99.1l0.1-10.4c0,0,0-0.1,0.1-0.1l1.4,0
				c0,0,0.3,0,0.4,0.1c0.1,0.1,0.2,0.3,0.2,0.5l0,8.9c0,0,0.1,0.6-0.2,0.9c-0.1,0.1-0.2,0.1-0.3,0.1C36.1,99.2,34.8,99.2,34.7,99.1
				C34.8,99.2,34.7,99.1,34.7,99.1z M36.3,88.8H35L34.8,99c0.3,0,1.3,0,1.6,0c0.1,0,0.1,0,0.2-0.1c0.2-0.2,0.2-0.6,0.1-0.8v-8.9
				c0-0.2,0-0.3-0.1-0.4C36.5,88.8,36.4,88.8,36.3,88.8C36.3,88.8,36.3,88.8,36.3,88.8z"/>
		</g>
		<g id="XMLID_317_">
			<path id="XMLID_96_" class="st57" d="M34.8,94.4l0.1-5.7h1.4c0,0,0.5-0.1,0.5,0.5v5.2H34.8z"/>
			<path id="XMLID_318_" class="st56" d="M34.8,94.5C34.8,94.5,34.8,94.4,34.8,94.5l0-5.8c0,0,0-0.1,0.1-0.1l1.4,0
				c0,0,0.3,0,0.4,0.1c0.1,0.1,0.2,0.3,0.2,0.5v5.2c0,0,0,0.1-0.1,0.1L34.8,94.5C34.8,94.5,34.8,94.5,34.8,94.5z M36.7,89.2
				c0-0.2,0-0.3-0.1-0.4c-0.1-0.1-0.3-0.1-0.3-0.1H35l-0.1,5.6h1.8V89.2z"/>
		</g>
		<path id="XMLID_86_" class="st56" d="M34.8,99.1c0,0,1.3,0,1.7,0c0.4,0,0.4-0.9,0.4-0.9v-8.9c0-0.6-0.5-0.5-0.5-0.5h-1.4
			L34.8,99.1z M35,98.2l0.2-9h0.9c0,0,0.5-0.1,0.5,0.5v7.8c0,0,0.1,0.8-0.3,0.8C35.9,98.2,35,98.2,35,98.2z"/>
		<path id="XMLID_45_" class="st57" d="M35.9,89.3c0,0,0.3,0.1,0.4,1.1c0,1,0,7.3,0,7.3l-0.4-7.2c0,0,0-0.9-0.6-1.1H35.9z"/>
	</g>
</g>
</svg>
